<svg width="118" height="134" viewBox="0 0 118 134" fill="none" xmlns="http://www.w3.org/2000/svg">
<g clip-path="url(#clip0_22_167)">
<path d="M25.1151 58.991C22.1692 58.991 19.3827 59.5884 16.758 60.5236V58.991C16.758 49.8212 24.2533 42.366 33.4723 42.366C38.087 42.366 41.8294 38.6435 41.8294 34.0535C41.8294 29.4634 38.0948 25.741 33.4723 25.741C15.0395 25.741 0.0437012 40.6515 0.0437012 58.991V83.9285C0.0437012 97.7012 11.2684 108.866 25.1151 108.866C38.9619 108.866 50.1866 97.7012 50.1866 83.9285C50.1866 70.1557 38.9566 58.991 25.1151 58.991ZM91.9723 58.991C89.0264 58.991 86.2398 59.5897 83.6151 60.5181V58.991C83.6151 49.8212 91.1104 42.366 100.329 42.366C104.944 42.366 108.687 38.6435 108.687 34.0535C108.687 29.4634 104.944 25.741 100.329 25.741C81.8967 25.741 66.9008 40.6567 66.9008 58.991V83.9285C66.9008 97.7012 78.1255 108.866 91.9723 108.866C105.819 108.866 117.044 97.7012 117.044 83.9285C117.044 70.1557 105.814 58.991 91.9723 58.991Z" fill="#F79D32" fill-opacity="0.1"/>
</g>
<defs>
<clipPath id="clip0_22_167">
<rect width="117" height="133" fill="white" transform="translate(0.0437012 0.803467)"/>
</clipPath>
</defs>
</svg>
