<?xml version="1.0" encoding="UTF-8"?>
<svg width="423px" height="493px" viewBox="0 0 423 493" version="1.1" xmlns="http://www.w3.org/2000/svg" xmlns:xlink="http://www.w3.org/1999/xlink">
    <title>discord</title>
    <g id="product-logos" stroke="none" stroke-width="1" fill="none" fill-rule="evenodd">
        <g id="discord" transform="translate(10.000000, 10.000000)" fill-rule="nonzero">
            <path d="M355.791429,0 C381.548181,0 402.567123,20.7303665 402.9934,46.5789447 L403,47.38 L403,460 L353.488571,416.3 L325.624,390.54 L296.147429,363.17 L308.352571,405.72 L47.2085714,405.72 C21.4518192,405.72 0.432876718,384.989633 0.00660058492,359.141055 L0,358.34 L0,47.38 C0,21.427551 20.7561185,0.432363598 46.4134989,0.00659263996 L47.2085714,0 L355.791429,0 Z" id="Shape" stroke="#000000" stroke-width="20"></path>
            <g id="discourse" transform="translate(103.000000, 97.000000)" fill="#3C1C8C">
                <path d="M99.3354907,0 C45.4243303,0 0,43.313616 0,96.7850448 C0,98.5 0.0439732143,197 0.0439732143,197 L99.3354907,196.912053 C153.290625,196.912053 197,151.927455 197,98.456027 C197,44.9845982 153.290625,0 99.3354907,0 Z M100.402446,164.699675 C90.560457,164.699675 81.1750541,162.465036 72.8042897,158.411505 L31.6607143,168.857143 L43.2783206,129.880884 C38.3065939,120.474615 35.4656072,109.665198 35.4656072,98.1801946 C35.4656072,61.4385754 64.5349891,31.6607143 100.402446,31.6607143 C136.269904,31.6607143 165.339286,61.4385754 165.339286,98.1801946 C165.339286,134.921814 136.269904,164.699675 100.402446,164.699675 Z" id="Shape"></path>
            </g>
        </g>
    </g>
</svg>