<?xml version="1.0" encoding="UTF-8"?>
<svg width="531px" height="435px" viewBox="0 0 531 435" version="1.1" xmlns="http://www.w3.org/2000/svg" xmlns:xlink="http://www.w3.org/1999/xlink">
    <title>layouts</title>
    <g id="product-logos" stroke="none" stroke-width="1" fill="none" fill-rule="evenodd">
        <g id="layouts" fill-rule="nonzero">
            <g id="Group" transform="translate(41.000000, 53.000000)" fill="#3C1C8C">
                <path d="M31.383561,95.8988322 C27.6962549,95.8988322 24.0602384,95.252093 20.5780906,93.975233 C4.33315058,88.0230158 -4.0381433,69.9752508 1.92115334,53.7430644 C6.43741024,41.4439391 18.2769898,33.1803561 31.3863334,33.1803561 C35.0736396,33.1803561 38.7068837,33.8270954 42.1918039,35.1039554 C58.4367439,41.0561725 66.8080378,59.1025526 60.8515136,75.3333542 C56.3352566,87.6338644 44.4929047,95.8988322 31.383561,95.8988322 Z M31.3849472,53.9549512 C26.9615661,53.9549512 22.9651362,56.7441009 21.4403103,60.8959731 C19.4316988,66.3745611 22.2553991,72.4652663 27.7378411,74.4747282 C28.918888,74.9081958 30.1442935,75.127007 31.3821748,75.127007 C35.805556,75.127007 39.8019859,72.3364724 41.3268117,68.1832152 C43.3381956,62.707397 40.511723,56.6166918 35.029281,54.60723 C33.8496203,54.1737623 32.6228286,53.9549512 31.3849472,53.9549512 Z" id="Shape"></path>
                <path d="M100.043696,62.7157063 C96.3563902,62.7157063 92.7231461,62.0689671 89.2409983,60.7921071 C81.3701246,57.9087855 75.0947731,52.1366028 71.5724254,44.5391474 C68.0473053,36.9403072 67.6952092,28.4246759 70.5812886,20.5627083 C75.0975455,8.263583 86.9398975,0 100.049241,0 C103.733775,0 107.369791,0.646739276 110.851939,1.92359926 C127.099652,7.87720129 135.468173,25.9235814 129.508876,42.152998 C124.995392,54.4521233 113.15304,62.7157063 100.043696,62.7157063 Z M100.049241,20.774595 C95.62586,20.774595 91.6266577,23.5651296 90.1018318,27.7170019 C89.1301019,30.3690484 89.2465432,33.2412909 90.4372935,35.8060899 C91.6266577,38.3708889 93.7433932,40.3180311 96.3993626,41.2916023 C97.5831819,41.7250699 98.805815,41.9438811 100.043696,41.9438811 C104.467077,41.9438811 108.463507,39.1547314 109.988333,35.0028591 C111.996945,29.525656 109.173245,23.4363357 103.693575,21.4268738 C102.509756,20.9934062 101.282964,20.774595 100.049241,20.774595 Z" id="Shape"></path>
                <path d="M177.061263,67.1445547 C173.373957,67.1445547 169.740713,66.4978155 166.255793,65.2209555 C158.387692,62.3376339 152.11234,56.5654512 148.58722,48.966611 C145.064872,41.3691556 144.712776,32.8535243 147.601628,24.9901718 C152.115113,12.6924314 163.954692,4.4288484 177.064036,4.4288484 C180.751342,4.4288484 184.384586,5.07558768 187.866734,6.35244766 C195.737608,9.23576923 202.012959,15.0079519 205.538079,22.6067922 C209.060427,30.2042476 209.412523,38.7198788 206.526444,46.5818464 C202.010187,58.8823566 190.170607,67.1445547 177.061263,67.1445547 Z M177.064036,25.2034434 C172.640655,25.2034434 168.646997,27.9925931 167.122171,32.1444654 C166.147669,34.7978968 166.266883,37.6715242 167.454861,40.2349383 C168.642839,42.7983524 170.76096,44.7468796 173.41693,45.7204507 C174.597977,46.1539183 175.823382,46.3727295 177.061263,46.3727295 C181.484645,46.3727295 185.478302,43.5835798 187.003128,39.4317075 C187.97763,36.7782761 187.858417,33.9060336 186.670439,31.3412346 C185.482461,28.7764356 183.364339,26.8292934 180.70837,25.8557222 C179.525937,25.4222546 178.299145,25.2034434 177.064036,25.2034434 Z" id="Shape"></path>
                <path d="M245.71724,98.5397997 C242.032706,98.5397997 238.399462,97.8930604 234.920087,96.6189702 C218.672375,90.6612135 210.303853,72.6134485 216.260377,56.3854168 C220.776634,44.0862915 232.616214,35.8227085 245.725557,35.8227085 C249.410091,35.8227085 253.046108,36.4694477 256.528255,37.7463077 C272.775968,43.6985249 281.144489,61.744905 275.187965,77.9757065 C270.671708,90.2762167 258.829356,98.5397997 245.71724,98.5397997 Z M245.725557,56.5973035 C241.302176,56.5973035 237.305746,59.3864532 235.78092,63.5383255 C233.772309,69.0155285 236.596009,75.1076186 242.078451,77.1170805 C243.256726,77.5491633 244.482131,77.7679744 245.71724,77.7679744 C250.143394,77.7679744 254.139824,74.9774398 255.667422,70.8241827 C257.676033,65.3483645 254.852333,59.2590442 249.369891,57.2495823 C248.186072,56.8161147 246.95928,56.5973035 245.725557,56.5973035 Z" id="Shape"></path>
                <path d="M298.614835,155 C294.927529,155 291.291512,154.353261 287.809364,153.077786 C279.938491,150.193079 273.663139,144.420897 270.140792,136.823441 C266.615671,129.224601 266.263575,120.70897 269.152427,112.845617 C273.665912,100.546492 285.508264,92.2829088 298.617607,92.2829088 C302.302141,92.2829088 305.935385,92.9282632 309.417533,94.2037383 C325.668018,100.161495 334.036539,118.20926 328.080015,134.437292 C323.563758,146.736417 311.721406,155 298.614835,155 Z M298.617607,113.057504 C294.194226,113.057504 290.197796,115.848038 288.67297,119.999911 C287.698468,122.653342 287.817682,125.525585 289.00566,128.090384 C290.193638,130.655183 292.311759,132.602325 294.967729,133.575896 C296.151548,134.009364 297.376954,134.228175 298.614835,134.228175 C303.035444,134.228175 307.031874,131.43764 308.559472,127.285768 C310.568083,121.80995 307.741611,115.71786 302.259169,113.708398 C301.080894,113.276315 299.854102,113.057504 298.617607,113.057504 Z" id="Shape"></path>
            </g>
            <path d="M524.865701,8.05502918 C524.862935,8.04672453 524.86017,8.03841988 524.857404,8.03011522 L524.857404,8.03149933 C524.619555,7.00725881 524.222679,6.00101171 523.655713,5.05012896 C520.71164,0.131006261 514.343648,-1.47040763 509.42764,1.47774413 C504.706614,4.30824664 396.825489,70.0741766 419.434974,148.486709 C416.250286,152.102001 411.489157,157.756085 405.776632,165.288406 C389.106458,116.120708 350.632996,74.8092128 295.356607,47.4647592 C252.831415,26.4290736 208.296951,15.1181364 166.565511,14.7554999 C127.905365,14.3665653 92.2321605,23.2511598 63.3708413,40.2964597 C25.0024754,62.9570891 1.96154291,98.6324936 0.156932603,138.176482 C-3.71364536,222.99467 64.8781403,245.808935 110.268584,260.904026 C119.135374,263.853562 127.511255,266.639773 134.204216,269.493805 C142.649239,273.095256 147.584606,277.676657 148.869267,283.113436 C151.076285,292.443713 143.405654,304.315215 140.008008,308.439859 C118.190892,330.373831 118.557345,363.304548 140.974616,388.70156 C158.730322,408.820966 186.770232,420.259241 218.16492,420.259241 C218.867404,420.259241 219.576803,420.252321 220.284819,420.241248 C254.277869,419.68622 290.894172,405.989079 326.95319,380.489643 C326.380693,394.995103 326.678004,410.037598 328.089887,425.560378 C328.435598,429.362525 330.836214,432.667777 334.344487,434.166766 C335.654039,434.725946 337.039648,435 338.414194,435 C340.726308,435 343.01353,434.227667 344.883134,432.735598 C412.880297,378.477149 446.544231,309.698014 462.810615,261.555941 C476.625218,220.665215 480.569087,187.838306 481.657384,174.768167 C553.472577,136.667804 526.099197,13.4253714 524.865701,8.05502918 Z M329.139465,352.847606 C328.467403,353.395713 327.791193,353.939668 327.119131,354.471166 C290.51389,383.371357 253.455077,398.935661 219.948788,399.482384 C193.760504,399.896232 170.653195,390.972883 156.519155,374.955976 C141.157151,357.548039 140.537637,337.096448 154.944097,322.8512 C155.144609,322.654656 155.338207,322.44704 155.51936,322.235271 C157.434598,320.00824 174.066052,299.862537 169.083668,278.447605 C166.22948,266.183017 157.229937,256.742011 142.33395,250.39172 C134.8583,247.202733 126.091075,244.2878 116.810815,241.199853 C72.66493,226.518611 17.7245719,208.244222 20.8788371,139.120444 C22.3806048,106.232635 41.2135456,77.4860793 73.9108717,58.1763773 C129.935379,25.0906404 209.282918,28.0429445 286.166232,66.0754863 C342.038626,93.7161391 378.905224,136.568148 390.438136,187.072894 C383.880694,197.102146 376.90425,208.753574 370.043965,221.910913 C353.503779,253.644375 335.561389,298.702653 329.139465,352.847606 Z M442.932245,255.587664 C428.841073,297.037571 401.058371,354.721689 347.538193,403.244392 C345.531688,330.995296 367.940661,271.012173 388.102514,232.15747 C392.883003,222.943458 397.750611,214.490705 402.481317,206.844888 L451.254195,227.686799 C449.008457,236.394227 446.273194,245.759107 442.932245,255.587664 Z M455.955861,207.12171 L414.065394,189.221031 C422.381813,177.310775 429.520049,168.578432 433.916107,163.480759 L460.797195,174.970247 C460.163853,181.676254 458.797604,192.873694 455.955861,207.12171 Z M471.172667,156.830117 L439.531833,143.307374 C424.982941,93.9721993 481.119458,46.7644002 507.318804,27.9031495 C511.930586,59.889904 516.925416,133.185386 471.172667,156.830117 Z" id="Shape" fill="#000000"></path>
            <g id="discourse" transform="translate(194.000000, 290.000000)" fill="#000000">
                <path d="M39.3308034,0 C17.9852678,0 0,17.1495536 0,38.3209822 C0,39 0.0174107143,78 0.0174107143,78 L39.3308034,77.9651784 C60.69375,77.9651784 78,60.1540178 78,38.9825894 C78,17.8111607 60.69375,0 39.3308034,0 Z M39.7532528,65.2110389 C35.8564246,65.2110389 32.1403767,64.3262578 28.8260639,62.7213066 L12.5357143,66.8571429 L17.1355787,51.4249186 C15.1670778,47.7006088 14.0422201,43.4207385 14.0422201,38.8733765 C14.0422201,24.3259334 25.5519246,12.5357143 39.7532528,12.5357143 C53.9545811,12.5357143 65.4642857,24.3259334 65.4642857,38.8733765 C65.4642857,53.4208197 53.9545811,65.2110389 39.7532528,65.2110389 Z" id="Shape"></path>
            </g>
        </g>
    </g>
</svg>