<?xml version="1.0" encoding="UTF-8"?>
<svg width="400px" height="392px" viewBox="0 0 400 392" version="1.1" xmlns="http://www.w3.org/2000/svg" xmlns:xlink="http://www.w3.org/1999/xlink">
    <title>multilingual</title>
    <g id="product-logos" stroke="none" stroke-width="1" fill="none" fill-rule="evenodd">
        <g id="multilingual" fill-rule="nonzero">
            <g>
                <path d="M229,209.329383 L229,19.6706174 C228.994152,14.4541125 226.919652,9.45430699 223.231193,5.76592587 C219.541238,2.07881726 214.541306,0.00411691449 209.325277,0 L19.6702316,0 C14.4553261,0.0058478899 9.4556186,2.08038917 5.76730982,5.76742293 C2.08027352,9.45599118 0.0056138642,14.4559838 0,19.6706174 L0,209.329383 C0.00584777521,214.54439 2.08034837,219.544196 5.76730982,223.232577 C9.45580573,226.919686 14.4557003,228.994386 19.6702316,229 L209.325277,229 C214.54168,228.995614 219.541387,226.92107 223.231193,223.234074 C226.919689,219.545506 228.994012,214.545513 229,209.329383 Z M13.4725256,209.329383 L13.4725256,19.6706174 C13.4725256,18.0273697 14.1274764,16.45134 15.2897334,15.2890976 C16.4505308,14.1282774 18.0264922,13.4733138 19.6696703,13.4733138 L209.324716,13.4733138 C210.967931,13.4733138 212.54393,14.1268178 213.707647,15.2890976 C214.869904,16.4513774 215.526314,18.0273697 215.526314,19.6706174 L215.526314,209.329383 C215.526314,210.97263 214.869904,212.54866 213.707647,213.710902 C212.54393,214.871723 210.967969,215.526686 209.324716,215.526686 L19.6696703,215.526686 C18.0279144,215.523762 16.4533752,214.870263 15.2912304,213.707983 C14.130433,212.547163 13.4784014,210.971171 13.4769418,209.329457 L13.4725256,209.329383 Z" id="Shape" fill="#3C1C8C"></path>
                <path d="M177.277252,69.7084992 L121.220024,69.7084992 L121.220024,48.7398526 C121.220024,46.3324869 119.938375,44.1064871 117.860622,42.9027481 C115.781413,41.699084 113.219421,41.699084 111.141817,42.9027481 C109.062608,44.1064122 107.782415,46.3324495 107.782415,48.7398526 L107.782415,69.7084992 L51.7177222,69.7084992 C49.3177279,69.7084992 47.1000371,70.9926248 45.8999839,73.0782196 C44.7000054,75.1638144 44.7000054,77.7321779 45.8999839,79.8176604 C47.0999624,81.9032552 49.3176905,83.1873807 51.7177222,83.1873807 L139.75646,83.1873807 C139.406522,96.0870447 136.066082,125.870505 114.48069,148.129381 L114.479232,148.129381 C106.785081,140.019587 100.769138,130.461562 96.7781677,120.007566 C96.1322293,118.334388 94.8476684,116.988859 93.2088027,116.267813 C91.5699369,115.548228 89.7123367,115.513146 88.0487606,116.171286 C86.3851099,116.82943 85.0509793,118.125274 84.342332,119.773554 C83.6336848,121.421834 83.6103929,123.28368 84.2767192,124.949445 C88.8682757,136.812358 95.6994337,147.671844 104.396553,156.935579 C91.7887161,165.797195 77.2458633,171.498388 61.9896974,173.558784 C60.1831601,173.784017 58.5457128,174.734667 57.4507715,176.192857 C56.3572114,177.65101 55.8979065,179.490915 56.1808055,181.29424 C56.4636709,183.097564 57.4639105,184.707841 58.9511553,185.757996 C60.4398558,186.809573 62.2886842,187.208848 64.0761102,186.866596 C82.3747749,184.422688 99.731687,177.273751 114.463413,166.114361 C129.226493,177.26177 146.602442,184.413814 164.917904,186.881199 C166.705516,187.221975 168.554345,186.822697 170.042859,185.772598 C171.530103,184.721021 172.530347,183.110744 172.813208,181.307344 C173.096074,179.50402 172.63678,177.664115 171.543242,176.205962 C170.448226,174.747809 168.810816,173.797136 167.00581,173.571889 C151.725008,171.502394 137.163492,165.783716 124.542964,156.898887 C148.519392,131.424175 152.555527,97.7303413 153.097884,83.1881258 L177.285954,83.1881258 C179.685948,83.1866634 181.903639,81.9010798 183.102199,79.8140248 C184.300722,77.72843 184.299266,75.1585689 183.097825,73.0745841 C181.896353,70.9904495 179.67717,69.7077841 177.2771,69.7092443 L177.277252,69.7084992 Z" id="Path" fill="#3C1C8C"></path>
                <path d="M380.329929,163 L245.012904,163 C242.606532,163 240.382948,164.284863 239.179705,166.369583 C237.976538,168.454303 237.976538,171.02159 239.179705,173.106198 C240.382873,175.190918 242.606494,176.474506 245.012904,176.474506 L380.329929,176.474506 C381.973149,176.475967 383.549153,177.129454 384.70988,178.291707 C385.872141,179.453961 386.525634,181.028457 386.527094,182.673127 L386.527094,372.331295 L386.527094,372.329833 C386.525631,373.973043 385.872141,375.549037 384.70988,376.711253 C383.549079,377.873506 381.973112,378.526995 380.329929,378.526995 L190.67052,378.526995 C189.0273,378.526995 187.451296,377.873506 186.289072,376.711253 C185.128271,375.548999 184.474778,373.973043 184.473318,372.329833 L184.473318,245.232363 L184.473318,245.233825 C184.473318,242.826009 183.189723,240.602402 181.104989,239.399168 C179.020255,238.196008 176.452951,238.196008 174.36833,239.399168 C172.283596,240.602327 171,242.825934 171,245.233825 L171,372.331295 L171,372.329833 C171.005848,377.544721 173.080355,382.545909 176.767329,386.232709 C180.455837,389.919733 185.455748,391.994386 190.670296,392 L380.329704,392 C385.544627,391.994152 390.54435,389.919658 394.232671,386.232709 C397.91972,382.545685 399.994386,377.544347 400,372.329833 L400,182.652952 C399.989766,177.441057 397.912347,172.445857 394.225186,168.761677 C390.538138,165.077572 385.541258,163.005988 380.32933,163 L380.329929,163 Z" id="Path" fill="#000000"></path>
            </g>
            <g id="discourse" transform="translate(244.000000, 234.000000)" fill="#000000">
                <path d="M48.4071427,0 C22.1357143,0 0,21.1071428 0,47.1642858 C0,48 0.0214285714,96 0.0214285714,96 L48.4071427,95.9571427 C74.7,95.9571427 96,74.0357142 96,47.9785715 C96,21.9214286 74.7,0 48.4071427,0 Z M48.9304674,79.0441558 C44.0628313,79.0441558 39.4210129,77.9652463 35.2810129,76.0081556 L14.9322857,81.0514286 L20.6781039,62.2332465 C18.2191948,57.6917923 16.8141039,52.4728829 16.8141039,46.9277921 C16.8141039,29.1885194 31.1911948,14.8114286 48.9304674,14.8114286 C66.6697401,14.8114286 81.0468311,29.1885194 81.0468311,46.9277921 C81.0468311,64.6670648 66.6697401,79.0441558 48.9304674,79.0441558 Z" id="Shape"></path>
            </g>
        </g>
    </g>
</svg>