<?xml version="1.0" encoding="UTF-8"?>
<svg width="442px" height="390px" viewBox="0 0 442 390" version="1.1" xmlns="http://www.w3.org/2000/svg" xmlns:xlink="http://www.w3.org/1999/xlink">
    <title>news</title>
    <g id="product-logos" stroke="none" stroke-width="1" fill="none" fill-rule="evenodd">
        <g id="news" fill-rule="nonzero">
            <path d="M171,310 L70,310 C64.477,310 60,314.477 60,320 C60,325.523 64.477,330 70,330 L171,330 C176.523,330 181,325.523 181,320 C181,314.477 176.523,310 171,310 Z" id="Path" fill="#000000"></path>
            <path d="M322,310 L221,310 C215.477,310 211,314.477 211,320 C211,325.523 215.477,330 221,330 L322,330 C327.522,330 332,325.523 332,320 C332,314.477 327.522,310 322,310 Z" id="Path" fill="#3C1C8C"></path>
            <path d="M322,60 L70,60 C64.477,60 60,64.477 60,70 C60,75.523 64.477,80 70,80 L322,80 C327.522,80 332,75.523 332,70 C332,64.477 327.522,60 322,60 Z" id="Path" fill="#000000"></path>
            <path d="M322,110 L221,110 C215.477,110 211,114.477 211,120 C211,125.523 215.477,130 221,130 L322,130 C327.522,130 332,125.523 332,120 C332,114.477 327.522,110 322,110 Z" id="Path" fill="#3C1C8C"></path>
            <path d="M322,160 L221,160 C215.477,160 211,164.477 211,170 C211,175.523 215.477,180 221,180 L322,180 C327.522,180 332,175.523 332,170 C332,164.477 327.522,160 322,160 Z" id="Path" fill="#000000"></path>
            <path d="M322,210 L221,210 C215.477,210 211,214.477 211,220 C211,225.523 215.477,230 221,230 L322,230 C327.522,230 332,225.523 332,220 C332,214.477 327.522,210 322,210 Z" id="Path" fill="#3C1C8C"></path>
            <path d="M322,260 L221,260 C215.477,260 211,264.477 211,270 C211,275.523 215.477,280 221,280 L322,280 C327.522,280 332,275.523 332,270 C332,264.477 327.522,260 322,260 Z" id="Path" fill="#000000"></path>
            <path d="M171,260 L70,260 C64.477,260 60,264.477 60,270 C60,275.523 64.477,280 70,280 L171,280 C176.523,280 181,275.523 181,270 C181,264.477 176.523,260 171,260 Z" id="Path" fill="#3C1C8C"></path>
            <path d="M422,50 L392,50 L392,20 C392,8.972 383.028,0 372,0 L20,0 C8.972,0 0,8.972 0,20 L0,340 C0,367.57 22.43,390 50,390 L392,390 C419.57,390 442,367.57 442,340 L442,70 C442,58.972 433.028,50 422,50 Z M422,340 C422,356.542 408.542,370 392,370 L50,370 C33.458,370 20,356.542 20,340 L20,20 L372,20 L372,325 C372,338.785 383.215,350 397,350 C402.522,350 407,345.523 407,340 C407,334.477 402.522,330 397,330 C394.243,330 392,327.757 392,325 L392,70 L422,70 L422,340 Z" id="Shape" fill="#000000"></path>
            <g id="discourse" transform="translate(60.000000, 109.000000)" fill="#000000">
                <path d="M61.0131694,0 C27.9002232,0 0,26.6037946 0,59.4466519 C0,60.5 0.0270089286,121 0.0270089286,121 L61.0131694,120.945982 C94.153125,120.945982 121,93.3158481 121,60.4729912 C121,27.6301339 94.153125,0 61.0131694,0 Z M61.6727767,99.6285714 C55.5375269,99.6285714 49.6869017,98.2686959 44.4687767,95.8019461 L18.8209018,102.158571 L26.0630268,78.4398211 C22.9637768,72.7156965 21.1927768,66.1376962 21.1927768,59.1485713 C21.1927768,36.7896964 39.3139017,18.6685714 61.6727767,18.6685714 C84.0316516,18.6685714 102.152777,36.7896964 102.152777,59.1485713 C102.152777,81.5074462 84.0316516,99.6285714 61.6727767,99.6285714 Z" id="Shape"></path>
            </g>
        </g>
    </g>
</svg>