<svg width="407" height="307" viewBox="0 0 407 307" fill="none" xmlns="http://www.w3.org/2000/svg">
<path d="M360.613 46.1249H299.642V88.0444H360.613V46.1249Z" fill="#A0A8BC"/>
<path d="M321.931 75.3164C321.615 75.3142 321.308 75.2071 321.059 75.0119L311.924 67.7851C311.755 67.6564 311.619 67.4904 311.526 67.3002C311.432 67.11 311.384 66.9007 311.386 66.6889C311.384 66.4765 311.431 66.2666 311.522 66.0749C311.613 65.8832 311.747 65.7149 311.913 65.5825L321.048 58.2238C321.193 58.1071 321.359 58.0201 321.537 57.9677C321.716 57.9153 321.903 57.8985 322.087 57.9183C322.272 57.9381 322.451 57.9941 322.614 58.0831C322.777 58.1721 322.921 58.2923 323.038 58.4369C323.154 58.5815 323.241 58.7477 323.294 58.926C323.346 59.1042 323.363 59.291 323.343 59.4758C323.323 59.6605 323.267 59.8395 323.178 60.0026C323.089 60.1657 322.969 60.3097 322.825 60.4263L315.06 66.6787L322.814 72.7687C323.045 72.9509 323.212 73.2004 323.294 73.4825C323.376 73.7645 323.368 74.065 323.27 74.3421C323.173 74.6192 322.992 74.8591 322.752 75.0282C322.512 75.1974 322.225 75.2875 321.931 75.2859V75.3164Z" fill="white"/>
<path d="M338.486 75.3164C338.186 75.3245 337.89 75.2364 337.643 75.0649C337.397 74.8935 337.211 74.6477 337.113 74.3633C337.016 74.0789 337.012 73.7709 337.102 73.484C337.192 73.1972 337.371 72.9466 337.613 72.7687L345.358 66.6787L337.603 60.4364C337.458 60.3205 337.338 60.1772 337.249 60.0147C337.16 59.8522 337.103 59.6737 337.083 59.4895C337.063 59.3052 337.079 59.1188 337.131 58.9408C337.183 58.7628 337.269 58.5967 337.385 58.4521C337.501 58.3075 337.644 58.1871 337.807 58.0979C337.969 58.0087 338.147 57.9523 338.332 57.932C338.516 57.9118 338.702 57.928 338.88 57.9798C339.058 58.0316 339.224 58.1179 339.369 58.2339L348.504 65.5926C348.679 65.7155 348.823 65.8778 348.923 66.0665C349.024 66.2552 349.078 66.4649 349.083 66.6787C349.084 66.8895 349.036 67.0977 348.945 67.2876C348.854 67.4775 348.72 67.6441 348.555 67.7749L339.42 75.0017C339.156 75.2138 338.825 75.3253 338.486 75.3164Z" fill="white"/>
<path d="M326.377 75.3164C326.173 75.3173 325.972 75.2722 325.788 75.1844C325.448 75.0295 325.183 74.7458 325.052 74.3956C324.92 74.0454 324.933 73.6574 325.088 73.3168L331.747 58.7313C331.905 58.3919 332.192 58.129 332.543 57.9997C332.895 57.8705 333.283 57.8853 333.624 58.0411C333.793 58.1176 333.945 58.2268 334.071 58.3624C334.197 58.498 334.295 58.6572 334.359 58.8309C334.423 59.0045 334.452 59.1892 334.445 59.3742C334.437 59.5592 334.393 59.7409 334.314 59.9087L327.656 74.4942C327.544 74.7391 327.363 74.9466 327.137 75.0923C326.91 75.238 326.647 75.3157 326.377 75.3164Z" fill="white"/>
<path d="M133.608 42.9074H64.6797V158.252H133.608V42.9074Z" fill="#24285B"/>
<path d="M279.545 43.3337H151.868V132.238H279.545V43.3337Z" fill="#E6E6E6"/>
<path d="M279.545 132.227H151.868V219.517H279.545V132.227Z" fill="#E6E6E6"/>
<path d="M266.817 146.265H165.814V187.717H266.817V146.265Z" fill="#C9C9C9"/>
<path d="M235.697 192.864H195.564V212.088H235.697V192.864Z" fill="#C9C9C9"/>
<path d="M271.09 51.5958H160.201V121.651H271.09V51.5958Z" fill="#24285B"/>
<path d="M228.216 100.255H192.6V104.244H228.216V100.255Z" fill="#35197E"/>
<path d="M234.662 89.1508H202.821V93.1397H234.662V89.1508Z" fill="#A0A8BC"/>
<path d="M245.268 109.887H202.821V113.876H245.268V109.887Z" fill="#35197E"/>
<path d="M195.351 109.887H179.385V113.876H195.351V109.887Z" fill="white"/>
<path d="M185.14 100.255H169.174V104.244H185.14V100.255Z" fill="white"/>
<path d="M167.459 60.1928C168.496 60.1928 169.336 59.3521 169.336 58.3151C169.336 57.278 168.496 56.4373 167.459 56.4373C166.422 56.4373 165.581 57.278 165.581 58.3151C165.581 59.3521 166.422 60.1928 167.459 60.1928Z" fill="white"/>
<path opacity="0.08" d="M192.6 154.202C192.6 154.202 205.856 151.441 202.821 164.23C199.786 177.019 209.926 175.284 207.957 185.302C205.988 195.32 192.6 219.517 192.6 219.517H167.459L180.248 172.391L192.6 154.202Z" fill="black"/>
<path d="M173.041 60.1928C174.078 60.1928 174.919 59.3521 174.919 58.3151C174.919 57.278 174.078 56.4373 173.041 56.4373C172.004 56.4373 171.163 57.278 171.163 58.3151C171.163 59.3521 172.004 60.1928 173.041 60.1928Z" fill="#35197E"/>
<path opacity="0.08" d="M253.338 158.983C253.338 158.983 265.761 153.258 271.08 164.139C276.399 175.02 279.545 177.831 279.545 177.831V212.088L252.302 191.615L253.338 158.983Z" fill="black"/>
<path d="M178.309 60.1928C179.346 60.1928 180.187 59.3521 180.187 58.3151C180.187 57.278 179.346 56.4373 178.309 56.4373C177.272 56.4373 176.431 57.278 176.431 58.3151C176.431 59.3521 177.272 60.1928 178.309 60.1928Z" fill="#FFD200"/>
<path d="M185.14 69.9368H169.174V73.9258H185.14V69.9368Z" fill="white"/>
<path d="M195.351 79.9041H179.385V83.8931H195.351V79.9041Z" fill="white"/>
<path d="M234.662 79.9041H202.821V83.8931H234.662V79.9041Z" fill="#A0A8BC"/>
<path d="M195.351 89.1508H179.385V93.1397H195.351V89.1508Z" fill="white"/>
<path d="M224.4 69.9368H191.514V73.9258H224.4V69.9368Z" fill="#35197E"/>
<path d="M254.627 69.9368H231.282V73.9258H254.627V69.9368Z" fill="#35197E"/>
<path d="M252.302 199.38C252.302 199.38 235.464 195.239 236.753 185.17C238.042 175.101 248.933 180.765 248.933 180.765C248.933 180.765 246.08 167.052 241.939 163.154C237.798 159.257 246.598 152.558 253.338 159.023C260.077 165.489 261.377 160.302 266.817 167.032C272.257 173.761 272.257 192.904 272.257 192.904L252.302 199.38Z" fill="#F4A28C"/>
<path d="M252.302 199.39L266.817 256.92L298.434 244.476L272.257 192.864L252.302 199.39Z" fill="#35197E"/>
<path d="M182.42 193.939C182.42 193.939 199.259 189.788 197.969 179.729C196.68 169.671 185.789 175.324 185.789 175.324C185.789 175.324 188.631 161.622 192.783 157.714C196.934 153.806 188.114 147.128 181.374 153.583C174.635 160.038 173.346 154.862 167.905 161.601C162.465 168.341 162.465 187.464 162.465 187.464L182.42 193.939Z" fill="#F4A28C"/>
<path d="M182.42 193.939L167.905 251.47L136.288 239.026L162.465 187.413L182.42 193.939Z" fill="#35197E"/>
<path d="M85.9338 78.2091H111.228V120.19" stroke="white" stroke-width="1.015" stroke-miterlimit="10"/>
<path d="M108.477 52.9661H75.0428V58.3151H108.477V52.9661Z" fill="#A0A8BC"/>
<path d="M94.744 72.7382H77.1236V83.6799H94.744V72.7382Z" fill="#35197E"/>
<path d="M85.9338 120.19H110.933" stroke="white" stroke-width="1.015" stroke-miterlimit="10"/>
<path d="M120.038 94.2461H102.417V105.188H120.038V94.2461Z" fill="#35197E"/>
<path d="M94.744 114.719H77.1236V125.66H94.744V114.719Z" fill="#35197E"/>
<path d="M119.743 114.719H102.123V125.66H119.743V114.719Z" fill="#35197E"/>
<path opacity="0.1" d="M119.754 140.297H77.1236V148.072H119.754V140.297Z" fill="white"/>
<path d="M370.347 107.187H299.429V148.203H370.347V107.187Z" fill="#E6E6E6"/>
<path d="M311.548 124.351C313.824 124.351 315.669 122.506 315.669 120.23C315.669 117.954 313.824 116.109 311.548 116.109C309.272 116.109 307.427 117.954 307.427 120.23C307.427 122.506 309.272 124.351 311.548 124.351Z" fill="#24285B"/>
<path d="M311.548 138.693C313.824 138.693 315.669 136.848 315.669 134.572C315.669 132.296 313.824 130.451 311.548 130.451C309.272 130.451 307.427 132.296 307.427 134.572C307.427 136.848 309.272 138.693 311.548 138.693Z" fill="#35197E"/>
<path d="M358.228 117.419H321.069V122.433H358.228V117.419Z" fill="#C9C9C9"/>
<path d="M358.228 131.923H321.069V136.937H358.228V131.923Z" fill="#C9C9C9"/>
</svg>
