<?xml version="1.0" encoding="UTF-8"?>
<svg width="274px" height="355px" viewBox="0 0 274 355" version="1.1" xmlns="http://www.w3.org/2000/svg" xmlns:xlink="http://www.w3.org/1999/xlink">
    <title>wizard</title>
    <g id="product-logos" stroke="none" stroke-width="1" fill="none" fill-rule="evenodd">
        <g id="wizard" fill-rule="nonzero">
            <g>
                <polygon id="Path" fill="#3C1C8C" points="53 113 177 113 177 126 53 126"></polygon>
                <path d="M0,355 L274,355 L274,0 L0,0 L0,355 Z M12.3252724,11.8692719 L260.325272,11.8692719 L260.325272,341.869272 L12.3252724,341.869272 L12.3252724,11.8692719 Z" id="Shape" fill="#000000"></path>
                <polygon id="Path" fill="#3C1C8C" points="54 190 221 190 221 203 54 203"></polygon>
                <polygon id="Path" fill="#3C1C8C" points="54 267 221 267 221 280 54 280"></polygon>
            </g>
            <g id="discourse" transform="translate(31.000000, 27.000000)" fill="#000000">
                <path d="M25.2120535,0 C11.5290178,0 0,10.9933036 0,24.5647322 C0,25 0.0111607143,50 0.0111607143,50 L25.2120535,49.9776785 C38.90625,49.9776785 50,38.5602678 50,24.9888393 C50,11.4174107 38.90625,0 25.2120535,0 Z M25.4846185,41.1688311 C22.9493913,41.1688311 20.5317776,40.6068991 18.3755276,39.587581 L7.77723215,42.2142857 L10.7698458,32.4131492 C9.48916396,30.0478085 8.75734578,27.3296265 8.75734578,24.4415584 C8.75734578,15.2023539 16.2454139,7.71428572 25.4846185,7.71428572 C34.723823,7.71428572 42.2118912,15.2023539 42.2118912,24.4415584 C42.2118912,33.6807629 34.723823,41.1688311 25.4846185,41.1688311 Z" id="Shape"></path>
            </g>
        </g>
    </g>
</svg>