<?xml version="1.0" encoding="UTF-8"?>
<svg width="1600px" height="600px" viewBox="0 0 1600 600" version="1.1" xmlns="http://www.w3.org/2000/svg" xmlns:xlink="http://www.w3.org/1999/xlink">
    <title>discourse-tickets</title>
    <defs>
        <linearGradient x1="102.594058%" y1="50%" x2="0%" y2="50%" id="linearGradient-1">
            <stop stop-color="#FFFFFF" offset="0%"></stop>
            <stop stop-color="#3C1C8C" stop-opacity="0.05" offset="100%"></stop>
        </linearGradient>
    </defs>
    <g id="discourse-tickets" stroke="none" stroke-width="1" fill="none" fill-rule="evenodd">
        <rect id="Rectangle" fill="url(#linearGradient-1)" x="0" y="0" width="1600" height="600"></rect>
        <g id="tickets" transform="translate(535.000000, 163.000000)" fill-rule="nonzero">
            <path d="M522.398488,90.5690377 C527.148816,90.5690377 531,86.7204268 531,81.9707113 L531,26.9414226 C531,12.0858075 518.909715,0 504.048596,0 L26.9514039,0 C12.0902851,0 0,12.0858075 0,26.9414226 L0,81.9707113 C0,86.7204268 3.85118359,90.5690377 8.60151188,90.5690377 C34.2133737,90.5690377 55.049676,111.397623 55.049676,137 C55.049676,162.602377 34.2133737,183.430962 8.60151188,183.430962 C3.85118359,183.430962 0,187.279573 0,192.029289 L0,247.058577 C0,261.914192 12.0902851,274 26.9514039,274 L504.048596,274 C518.909715,274 531,261.914192 531,247.058577 L531,192.029289 C531,187.279573 527.148816,183.430962 522.398488,183.430962 C496.786626,183.430962 475.950324,162.602377 475.950324,137 C475.950324,111.397623 496.786626,90.5690377 522.398488,90.5690377 Z M458.7473,137 C458.7473,169.170351 482.751253,195.840067 513.796976,200.048661 L513.796976,247.058577 C513.796976,252.431958 509.423968,256.803347 504.048596,256.803347 L411.69703,256.803347 C411.709646,256.613038 411.725702,256.423874 411.725702,256.230126 L411.725702,237.887029 C411.725702,233.137314 407.874518,229.288703 403.12419,229.288703 C398.373862,229.288703 394.522678,233.137314 394.522678,237.887029 L394.522678,256.230126 C394.522678,256.423874 394.538734,256.613038 394.55135,256.803347 L26.9514039,256.803347 C21.5760324,256.803347 17.2030238,252.431958 17.2030238,247.058577 L17.2030238,200.048661 C48.2487473,195.840067 72.2526998,169.169205 72.2526998,137 C72.2526998,104.830795 48.2487473,78.1599331 17.2030238,73.9513389 L17.2030238,26.9414226 C17.2030238,21.5680418 21.5760324,17.1966527 26.9514039,17.1966527 L394.552497,17.1966527 C394.539881,17.3869623 394.523825,17.5761255 394.523825,17.7698745 L394.523825,36.1129707 C394.523825,40.8626862 398.375009,44.7112971 403.125337,44.7112971 C407.875665,44.7112971 411.726849,40.8626862 411.726849,36.1129707 L411.726849,17.7698745 C411.726849,17.5761255 411.710793,17.3869623 411.698177,17.1966527 L504.048596,17.1966527 C509.423968,17.1966527 513.796976,21.5680418 513.796976,26.9414226 L513.796976,73.9513389 C482.7524,78.1599331 458.7473,104.830795 458.7473,137 Z" id="Shape" fill="#000000"></path>
            <path d="M402.5,119 C397.805733,119 394,122.898452 394,127.709677 L394,146.290323 C394,151.101548 397.805733,155 402.5,155 C407.194267,155 411,151.101548 411,146.290323 L411,127.709677 C411,122.899613 407.1954,119 402.5,119 Z" id="Path" fill="#3C1C8C"></path>
            <path d="M402.5,64 C397.805733,64 394,67.8984516 394,72.7096774 L394,91.2903226 C394,96.1015484 397.805733,100 402.5,100 C407.194267,100 411,96.1015484 411,91.2903226 L411,72.7096774 C411,67.8996129 407.1954,64 402.5,64 Z" id="Path" fill="#3C1C8C"></path>
            <path d="M402.5,174 C397.805733,174 394,177.898452 394,182.709677 L394,201.290323 C394,206.101548 397.805733,210 402.5,210 C407.194267,210 411,206.101548 411,201.290323 L411,182.709677 C411,177.899613 407.1954,174 402.5,174 Z" id="Path" fill="#3C1C8C"></path>
            <g id="discourse" transform="translate(187.000000, 85.000000)" fill="#000000">
                <path d="M51.9368302,0 C23.7497768,0 0,22.6462053 0,50.6033483 C0,51.5 0.0229910714,103 0.0229910714,103 L51.9368302,102.954018 C80.146875,102.954018 103,79.4341517 103,51.4770091 C103,23.5198661 80.146875,0 51.9368302,0 Z M52.498314,84.8077921 C47.2757461,84.8077921 42.2954618,83.6502122 37.8535868,81.5504169 L16.0210982,86.9614286 L22.1858823,66.7710874 C19.5476778,61.8984855 18.0401323,56.2990306 18.0401323,50.3496103 C18.0401323,31.316849 33.4655527,15.8914286 52.498314,15.8914286 C71.5310753,15.8914286 86.9564959,31.316849 86.9564959,50.3496103 C86.9564959,69.3823716 71.5310753,84.8077921 52.498314,84.8077921 Z" id="Shape"></path>
            </g>
        </g>
    </g>
</svg>