<?xml version="1.0" encoding="UTF-8"?>
<svg width="1600px" height="600px" viewBox="0 0 1600 600" version="1.1" xmlns="http://www.w3.org/2000/svg" xmlns:xlink="http://www.w3.org/1999/xlink">
    <title>discourse-news</title>
    <defs>
        <linearGradient x1="102.594058%" y1="50%" x2="0%" y2="50%" id="linearGradient-1">
            <stop stop-color="#FFFFFF" offset="0%"></stop>
            <stop stop-color="#3C1C8C" stop-opacity="0.05" offset="100%"></stop>
        </linearGradient>
    </defs>
    <g id="discourse-news" stroke="none" stroke-width="1" fill="none" fill-rule="evenodd">
        <rect id="Rectangle" fill="url(#linearGradient-1)" x="0" y="0" width="1600" height="600"></rect>
        <g id="news" transform="translate(618.000000, 139.000000)" fill-rule="nonzero">
            <path d="M140.818182,255 L58.1818182,255 C53.663,255 50,258.80545 50,263.5 C50,268.19455 53.663,272 58.1818182,272 L140.818182,272 C145.337,272 149,268.19455 149,263.5 C149,258.80545 145.337,255 140.818182,255 Z" id="Path" fill="#000000"></path>
            <path d="M264.818182,255 L182.181818,255 C177.663,255 174,258.80545 174,263.5 C174,268.19455 177.663,272 182.181818,272 L264.818182,272 C269.336182,272 273,268.19455 273,263.5 C273,258.80545 269.336182,255 264.818182,255 Z" id="Path" fill="#3C1C8C"></path>
            <path d="M266.727941,50 L58.2720588,50 C53.7034007,50 50,53.80545 50,58.5 C50,63.19455 53.7034007,67 58.2720588,67 L266.727941,67 C271.295772,67 275,63.19455 275,58.5 C275,53.80545 271.295772,50 266.727941,50 Z" id="Path" fill="#000000"></path>
            <path d="M264.818182,91 L182.181818,91 C177.663,91 174,94.80545 174,99.5 C174,104.19455 177.663,108 182.181818,108 L264.818182,108 C269.336182,108 273,104.19455 273,99.5 C273,94.80545 269.336182,91 264.818182,91 Z" id="Path" fill="#3C1C8C"></path>
            <path d="M264.818182,133 L182.181818,133 C177.663,133 174,136.80545 174,141.5 C174,146.19455 177.663,150 182.181818,150 L264.818182,150 C269.336182,150 273,146.19455 273,141.5 C273,136.80545 269.336182,133 264.818182,133 Z" id="Path" fill="#000000"></path>
            <path d="M264.818182,172 L182.181818,172 C177.663,172 174,175.80545 174,180.5 C174,185.19455 177.663,189 182.181818,189 L264.818182,189 C269.336182,189 273,185.19455 273,180.5 C273,175.80545 269.336182,172 264.818182,172 Z" id="Path" fill="#3C1C8C"></path>
            <path d="M264.818182,214 L182.181818,214 C177.663,214 174,217.80545 174,222.5 C174,227.19455 177.663,231 182.181818,231 L264.818182,231 C269.336182,231 273,227.19455 273,222.5 C273,217.80545 269.336182,214 264.818182,214 Z" id="Path" fill="#000000"></path>
            <path d="M140.818182,214 L58.1818182,214 C53.663,214 50,217.80545 50,222.5 C50,227.19455 53.663,231 58.1818182,231 L140.818182,231 C145.337,231 149,227.19455 149,222.5 C149,217.80545 145.337,214 140.818182,214 Z" id="Path" fill="#3C1C8C"></path>
            <path d="M347.529412,41.2820513 L322.823529,41.2820513 L322.823529,16.5128205 C322.823529,7.40765128 315.434824,0 306.352941,0 L16.4705882,0 C7.38870588,0 0,7.40765128 0,16.5128205 L0,280.717949 C0,303.480872 18.4717647,322 41.1764706,322 L322.823529,322 C345.528235,322 364,303.480872 364,280.717949 L364,57.7948718 C364,48.6897026 356.611294,41.2820513 347.529412,41.2820513 Z M347.529412,280.717949 C347.529412,294.375703 336.446353,305.487179 322.823529,305.487179 L41.1764706,305.487179 C27.5536471,305.487179 16.4705882,294.375703 16.4705882,280.717949 L16.4705882,16.5128205 L306.352941,16.5128205 L306.352941,268.333333 C306.352941,279.714795 315.588824,288.974359 326.941176,288.974359 C331.488706,288.974359 335.176471,285.277964 335.176471,280.717949 C335.176471,276.157933 331.488706,272.461538 326.941176,272.461538 C324.670706,272.461538 322.823529,270.609626 322.823529,268.333333 L322.823529,57.7948718 L347.529412,57.7948718 L347.529412,280.717949 Z" id="Shape" fill="#000000"></path>
            <g id="discourse" transform="translate(50.000000, 90.000000)" fill="#000000">
                <path d="M49.9198659,0 C22.8274553,0 0,21.7667411 0,48.6381697 C0,49.5 0.0220982143,99 0.0220982143,99 L49.9198659,98.9558034 C77.034375,98.9558034 99,76.3493303 99,49.4779019 C99,22.6064732 77.034375,0 49.9198659,0 Z M50.4595445,81.5142857 C45.4397948,81.5142857 40.6529196,80.4016603 36.3835446,78.3834104 L15.3989197,83.5842857 L21.3242946,64.1780354 C18.7885446,59.4946608 17.3395446,54.1126605 17.3395446,48.3942856 C17.3395446,30.1006607 32.1659196,15.2742857 50.4595445,15.2742857 C68.7531695,15.2742857 83.5795446,30.1006607 83.5795446,48.3942856 C83.5795446,66.6879106 68.7531695,81.5142857 50.4595445,81.5142857 Z" id="Shape"></path>
            </g>
        </g>
    </g>
</svg>