<?xml version="1.0" encoding="UTF-8"?>
<svg width="1600px" height="600px" viewBox="0 0 1600 600" version="1.1" xmlns="http://www.w3.org/2000/svg" xmlns:xlink="http://www.w3.org/1999/xlink">
    <title>discourse-multilingual</title>
    <defs>
        <linearGradient x1="102.594058%" y1="50%" x2="0%" y2="50%" id="linearGradient-1">
            <stop stop-color="#FFFFFF" offset="0%"></stop>
            <stop stop-color="#3C1C8C" stop-opacity="0.05" offset="100%"></stop>
        </linearGradient>
    </defs>
    <g id="discourse-multilingual" stroke="none" stroke-width="1" fill="none" fill-rule="evenodd">
        <rect id="Rectangle" fill="url(#linearGradient-1)" x="0" y="0" width="1600" height="600"></rect>
        <g id="multilingual" transform="translate(594.000000, 98.000000)" fill-rule="nonzero">
            <g>
                <path d="M235.87,215.203421 L235.87,20.222599 C235.863976,14.8597126 233.727241,9.71960642 229.928129,5.92772481 C226.127475,2.13715142 220.977545,0.00423244015 215.605036,0 L20.2603386,0 C14.8889858,0.00601198885 9.73928716,2.13876744 5.94032912,5.92926388 C2.14268172,9.72133787 0.00578228013,14.8616364 0,20.222599 L0,215.203421 C0.00602320847,220.564769 2.14275882,225.704875 5.94032912,229.496757 C9.7394799,233.28733 14.8893713,235.420249 20.2603386,235.42602 L215.605036,235.42602 C220.97793,235.421511 226.127629,233.288754 229.928129,229.498296 C233.72728,225.706222 235.863832,220.565923 235.87,215.203421 Z M13.8767013,215.203421 L13.8767013,20.222599 C13.8767013,18.5332398 14.5513007,16.9129847 15.7484254,15.7181284 C16.9440467,14.5247342 18.567287,13.8513914 20.2597604,13.8513914 L215.604457,13.8513914 C217.296969,13.8513914 218.920248,14.5232336 220.118876,15.7181284 C221.316001,16.9130232 221.992104,18.5332398 221.992104,20.222599 L221.992104,215.203421 C221.992104,216.892781 221.316001,218.513036 220.118876,219.707892 C218.920248,220.901286 217.297008,221.574629 215.604457,221.574629 L20.2597604,221.574629 C18.5687518,221.571623 16.9469764,220.899786 15.7499674,219.704891 C14.554346,218.511497 13.8827535,216.89128 13.8812501,215.203498 L13.8767013,215.203421 Z" id="Shape" fill="#3C1C8C"></path>
                <path d="M182.595569,71.6646051 L124.856625,71.6646051 L124.856625,50.1075525 C124.856625,47.6326332 123.536526,45.3441691 121.396441,44.1066517 C119.254856,42.8692113 116.616004,42.8692113 114.476072,44.1066517 C112.334487,45.3440921 111.015887,47.6325948 111.015887,50.1075525 L111.015887,71.6646051 L53.2692539,71.6646051 C50.7972597,71.6646051 48.5130382,72.9847648 47.2769834,75.1288839 C46.0410055,77.2730031 46.0410055,79.913438 47.2769834,82.0574417 C48.5129613,84.2015608 50.7972213,85.5217205 53.2692539,85.5217205 L143.949154,85.5217205 C143.588718,98.7833649 140.148064,129.402586 117.915111,152.286072 L117.913609,152.286072 C109.988633,143.948708 103.792212,134.122473 99.6815127,123.375126 C99.0161961,121.654996 97.6930985,120.271709 96.0050667,119.530431 C94.317035,118.790653 92.4037068,118.754586 90.6902235,119.431194 C88.9766632,120.107806 87.6025087,121.440014 86.872602,123.134547 C86.1426953,124.82908 86.1187047,126.743171 86.8050207,128.455679 C91.5343239,140.65148 98.5704167,151.815696 107.52845,161.339384 C94.5423776,170.449668 79.5632392,176.310842 63.8493883,178.429056 C61.9886549,178.660609 60.3020841,179.637936 59.1742947,181.137045 C58.0479278,182.636115 57.5748437,184.52765 57.8662296,186.381578 C58.157581,188.235506 59.1878279,189.890969 60.71969,190.970593 C62.2530515,192.051679 64.1573447,192.462157 65.9983935,192.110302 C84.8460181,189.597814 102.723638,182.24827 117.897315,170.775733 C133.103288,182.235952 151.000515,189.588692 169.865441,192.125314 C171.706682,192.475653 173.610975,192.06517 175.144144,190.985605 C176.676006,189.904519 177.706257,188.249055 177.997605,186.39505 C178.288956,184.541122 177.815883,182.649587 176.68954,181.150517 C175.561673,179.651446 173.875141,178.674096 172.015984,178.442529 C156.276758,176.314961 141.278397,170.43581 128.279253,161.301662 C152.974973,135.112099 157.132193,100.472774 157.69082,85.5224865 L182.604533,85.5224865 C185.076527,85.520983 187.360748,84.1993244 188.595265,82.0537041 C189.829744,79.9095849 189.828244,77.2676104 188.59076,75.1251464 C187.353244,72.9825284 185.067485,71.6638699 182.595413,71.6653711 L182.595569,71.6646051 Z" id="Path" fill="#3C1C8C"></path>
                <path d="M391.739826,167.57398 L252.363291,167.57398 C249.884727,167.57398 247.594436,168.894897 246.355097,171.038117 C245.115834,173.181337 245.115834,175.820665 246.355097,177.96377 C247.594359,180.10699 249.884689,181.426596 252.363291,181.426596 L391.739826,181.426596 C393.432344,181.428099 395.055628,182.099924 396.251176,183.294791 C397.448305,184.489659 398.121403,186.108337 398.122906,187.799159 L398.122906,382.779367 L398.122906,382.777864 C398.1214,384.467185 397.448305,386.087403 396.251176,387.282232 C395.055551,388.477099 393.432305,389.148926 391.739826,389.148926 L196.390636,389.148926 C194.698119,389.148926 193.074835,388.477099 191.877744,387.282232 C190.682119,386.087364 190.009021,384.467185 190.007518,382.777864 L190.007518,252.113883 L190.007518,252.115386 C190.007518,249.640004 188.685414,247.354 186.538138,246.117001 C184.390862,244.88008 181.74654,244.88008 179.599379,246.117001 C177.452103,247.353923 176.13,249.639927 176.13,252.115386 L176.13,382.779367 L176.13,382.777864 C176.136024,388.139088 178.272766,393.280616 182.070349,397.070872 C185.869512,400.861358 191.01942,402.994229 196.390405,403 L391.739595,403 C397.110965,402.993988 402.260681,400.861281 406.059651,397.070872 C409.857311,393.280385 411.994218,388.138704 412,382.777864 L412,187.778417 C411.989459,182.42027 409.849717,177.284899 406.051942,173.497336 C402.254282,169.709851 397.107496,167.580136 391.73921,167.57398 L391.739826,167.57398 Z" id="Path" fill="#000000"></path>
            </g>
            <g id="discourse" transform="translate(251.000000, 241.000000)" fill="#000000">
                <path d="M49.4156248,0 C22.596875,0 0,21.546875 0,48.1468751 C0,49 0.021875,98 0.021875,98 L49.4156248,97.9562498 C76.25625,97.9562498 98,75.5781249 98,48.9781251 C98,22.378125 76.25625,0 49.4156248,0 Z M49.9498522,80.690909 C44.9808069,80.690909 40.242284,79.5895223 36.016034,77.5916588 L15.243375,82.74 L21.1088977,63.5297724 C18.5987614,58.8937046 17.1643977,53.566068 17.1643977,47.9054544 C17.1643977,29.7966136 31.8410113,15.12 49.9498522,15.12 C68.058693,15.12 82.7353068,29.7966136 82.7353068,47.9054544 C82.7353068,66.0142953 68.058693,80.690909 49.9498522,80.690909 Z" id="Shape"></path>
            </g>
        </g>
    </g>
</svg>