<?xml version="1.0" encoding="UTF-8"?>
<svg width="1600px" height="600px" viewBox="0 0 1600 600" version="1.1" xmlns="http://www.w3.org/2000/svg" xmlns:xlink="http://www.w3.org/1999/xlink">
    <title>discourse-layouts</title>
    <defs>
        <linearGradient x1="102.594058%" y1="50%" x2="0%" y2="50%" id="linearGradient-1">
            <stop stop-color="#FFFFFF" offset="0%"></stop>
            <stop stop-color="#3C1C8C" stop-opacity="0.05" offset="100%"></stop>
        </linearGradient>
    </defs>
    <g id="discourse-layouts" stroke="none" stroke-width="1" fill="none" fill-rule="evenodd">
        <rect id="Rectangle" fill="url(#linearGradient-1)" x="0" y="0" width="1600" height="600"></rect>
        <g id="layouts" transform="translate(587.000000, 126.000000)" fill-rule="nonzero">
            <g id="Group" transform="translate(32.000000, 43.000000)" fill="#3C1C8C">
                <path d="M25.1068488,76.7190658 C22.1570039,76.7190658 19.2481907,76.2016744 16.4624725,75.1801864 C3.46652046,70.4184127 -3.23051464,55.9802007 1.53692267,42.9944515 C5.14992819,33.1551513 14.6215918,26.5442849 25.1090668,26.5442849 C28.0589117,26.5442849 30.965507,27.0616763 33.7534431,28.0831643 C46.7493951,32.844938 53.4464302,47.2820421 48.6812108,60.2666833 C45.0682053,70.1070915 35.5943237,76.7190658 25.1068488,76.7190658 Z M25.1079578,43.1639609 C21.5692529,43.1639609 18.3721089,45.3952807 17.1522483,48.7167785 C15.5453591,53.0996489 17.8043192,57.972213 22.1902729,59.5797825 C23.1351104,59.9265567 24.1154348,60.1016056 25.1057399,60.1016056 C28.6444448,60.1016056 31.8415887,57.8691779 33.0614494,54.5465722 C34.6705565,50.1659176 32.4093784,45.2933535 28.0234248,43.685784 C27.0796962,43.3390099 26.0982629,43.1639609 25.1079578,43.1639609 Z" id="Shape"></path>
                <path d="M80.0349571,50.1725651 C77.0851122,50.1725651 74.1785169,49.6551736 71.3927987,48.6336857 C65.0960997,46.3270284 60.0758185,41.7092823 57.2579403,35.631318 C54.4378443,29.5522457 54.1561673,22.7397407 56.4650309,16.4501666 C60.0780364,6.6108664 69.551918,0 80.0393929,0 C82.9870199,0 85.8958331,0.517391421 88.6815513,1.53887941 C101.679721,6.30176103 108.374538,20.7388651 103.607101,33.7223984 C99.9963136,43.5616987 90.522432,50.1725651 80.0349571,50.1725651 Z M80.0393929,16.619676 C76.500688,16.619676 73.3013261,18.8521037 72.0814655,22.1736015 C71.3040815,24.2952387 71.3972345,26.5930327 72.3498348,28.6448719 C73.3013261,30.6967111 74.9947146,32.2544249 77.1194901,33.0332818 C78.0665455,33.3800559 79.044652,33.5551048 80.0349571,33.5551048 C83.573662,33.5551048 86.7708059,31.3237851 87.9906666,28.0022873 C89.5975558,23.6205248 87.3385956,18.7490686 82.9548599,17.1414991 C82.0078045,16.7947249 81.0263711,16.619676 80.0393929,16.619676 Z" id="Shape"></path>
                <path d="M141.649011,53.7156438 C138.699166,53.7156438 135.792571,53.1982524 133.004634,52.1767644 C126.710153,49.8701071 121.689872,45.252361 118.869776,39.1732888 C116.051898,33.0953245 115.770221,26.2828194 118.081303,19.9921375 C121.69209,10.1539451 131.163754,3.54307872 141.651229,3.54307872 C144.601074,3.54307872 147.507669,4.06047014 150.293387,5.08195813 C156.590086,7.38861539 161.610367,12.0063615 164.430463,18.0854337 C167.248342,24.1633981 167.530018,30.9759031 165.221155,37.2654772 C161.608149,47.1058853 152.136486,53.7156438 141.649011,53.7156438 Z M141.651229,20.1627548 C138.112524,20.1627548 134.917598,22.3940745 133.697737,25.7155723 C132.918135,27.8383174 133.013506,30.1372193 133.963889,32.1879506 C134.914271,34.238682 136.608768,35.7975036 138.733544,36.5763605 C139.678381,36.9231347 140.658706,37.0981836 141.649011,37.0981836 C145.187716,37.0981836 148.382642,34.8668638 149.602502,31.545366 C150.382104,29.4226209 150.286733,27.1248269 149.336351,25.0729877 C148.385969,23.0211485 146.691471,21.4634347 144.566696,20.6845778 C143.620749,20.3378037 142.639316,20.1627548 141.651229,20.1627548 Z" id="Shape"></path>
                <path d="M196.573792,78.8318397 C193.626165,78.8318397 190.71957,78.3144483 187.93607,77.2951761 C174.9379,72.5289708 168.243082,58.0907588 173.008302,45.1083334 C176.621307,35.2690332 186.092971,28.6581668 196.580446,28.6581668 C199.528073,28.6581668 202.436886,29.1755582 205.222604,30.1970462 C218.220774,34.9588199 224.915591,49.395924 220.150372,62.3805652 C216.537367,72.2209733 207.063485,78.8318397 196.573792,78.8318397 Z M196.580446,45.2778428 C193.041741,45.2778428 189.844597,47.5091625 188.624736,50.8306604 C187.017847,55.2124228 189.276807,60.0860949 193.662761,61.6936644 C194.605381,62.0393306 195.585705,62.2143795 196.573792,62.2143795 C200.114715,62.2143795 203.311859,59.9819519 204.533938,56.6593462 C206.140827,52.2786916 203.881867,47.4072353 199.495913,45.7996658 C198.548857,45.4528917 197.567424,45.2778428 196.580446,45.2778428 Z" id="Shape"></path>
                <path d="M238.891868,124 C235.942023,124 233.03321,123.482609 230.247492,122.462228 C223.950793,120.154463 218.930511,115.536717 216.112633,109.458753 C213.292537,103.379681 213.01086,96.5671756 215.321942,90.2764937 C218.932729,80.4371934 228.406611,73.826327 238.894086,73.826327 C241.841713,73.826327 244.748308,74.3426105 247.534026,75.3629906 C260.534414,80.129196 267.229231,94.567408 262.464012,107.549833 C258.851006,117.389134 249.377125,124 238.891868,124 Z M238.894086,90.4460031 C235.355381,90.4460031 232.158237,92.6784307 230.938376,95.9999285 C230.158774,98.1226736 230.254145,100.420468 231.204528,102.472307 C232.15491,104.524146 233.849407,106.08186 235.974183,106.860717 C236.921238,107.207491 237.901563,107.38254 238.891868,107.38254 C242.428355,107.38254 245.625499,105.150112 246.847577,101.828614 C248.454467,97.4479598 246.193288,92.5742877 241.807335,90.9667182 C240.864715,90.621052 239.883282,90.4460031 238.894086,90.4460031 Z" id="Shape"></path>
            </g>
            <path d="M420.09025,6.44402334 C420.088037,6.43737962 420.085823,6.4307359 420.08361,6.42409218 L420.08361,6.42519946 C419.893241,5.60580705 419.57559,4.80080937 419.121804,4.04010317 C416.765437,0.104805009 411.668644,-1.1763261 407.733987,1.1821953 C403.955388,3.44659731 317.609854,56.0593413 335.705958,118.789367 C333.157009,121.681601 329.346312,126.204868 324.774141,132.230724 C311.431723,92.8965667 280.638462,59.8473703 236.396531,37.9718074 C202.36036,21.1432589 166.716016,12.0945091 133.315145,11.8043999 C102.372467,11.4932523 73.8204675,18.6009278 50.7205415,32.2371678 C20.0113974,50.3656713 1.56997314,78.9059949 0.125605191,110.541186 C-2.97231502,178.395736 51.9269484,196.647148 88.2563994,208.723221 C95.3531712,211.08285 102.057031,213.311818 107.41392,215.595044 C114.17312,218.476205 118.123272,222.141325 119.151485,226.490749 C120.91793,233.954971 114.778537,243.452172 112.05914,246.751887 C94.59723,264.299065 94.8905307,290.643638 112.83279,310.961248 C127.044043,327.056773 149.486532,336.207393 174.614107,336.207393 C175.176359,336.207393 175.744145,336.201857 176.310825,336.192998 C203.518068,335.748976 232.824903,324.791264 261.685698,304.391714 C261.227485,315.996083 261.465446,328.030078 262.595484,340.448302 C262.872183,343.49002 264.79358,346.134221 267.60152,347.333413 C268.649655,347.780757 269.758664,348 270.858818,348 C272.70938,348 274.54002,347.382134 276.036407,346.188478 C330.459748,302.781719 357.403575,247.758411 370.422809,209.244753 C381.479694,176.532172 384.636275,150.270645 385.507322,139.814533 C442.986526,109.334243 421.077512,10.7402971 420.09025,6.44402334 Z M263.435542,282.278085 C262.897639,282.71657 262.356416,283.151734 261.818514,283.576932 C232.520534,306.697086 202.859525,319.148529 176.041873,319.585907 C155.081383,319.916986 136.586832,312.778306 125.274277,299.964781 C112.978887,286.038432 112.483043,269.677158 124.013637,258.28096 C124.174122,258.123725 124.329074,257.957632 124.474064,257.788217 C126.006976,256.006592 139.318403,239.890029 135.33062,222.758084 C133.046194,212.946414 125.84317,205.393609 113.92077,200.313376 C107.937434,197.762186 100.920352,195.43024 93.4926482,192.959882 C58.1593131,181.214889 14.1863334,166.595378 16.7109337,111.296356 C17.9129134,84.9861081 32.9863594,61.9888634 59.1565357,46.5411018 C103.997243,20.0725123 167.505161,22.4343556 229.040769,52.860389 C273.759729,74.9729113 303.266893,109.254518 312.497567,149.658315 C307.249143,157.681717 301.66536,167.00286 296.174549,177.52873 C282.936169,202.9155 268.575499,238.962123 263.435542,282.278085 Z M354.512625,204.470131 C343.23438,237.630056 320.997755,283.777351 278.161454,322.595513 C276.555494,264.796237 294.491113,216.809738 310.628189,185.725976 C314.454381,178.354766 318.3503,171.592564 322.136647,165.475911 L361.17332,182.149439 C359.375884,189.115382 357.186643,196.607286 354.512625,204.470131 Z M364.936424,165.697368 L331.408272,151.376825 C338.064539,141.84862 343.777817,134.862746 347.296319,130.784608 L368.811314,139.976197 C368.304402,145.341003 367.210888,154.298955 364.936424,165.697368 Z M377.1156,125.464093 L351.791015,114.645899 C340.146421,75.1777594 385.076779,37.4115201 406.046124,22.3225196 C409.737287,47.9119232 413.735031,106.548309 377.1156,125.464093 Z" id="Shape" fill="#000000"></path>
            <g id="discourse" transform="translate(156.000000, 232.000000)" fill="#000000">
                <path d="M31.2629463,0 C14.2959821,0 0,13.6316964 0,30.4602679 C0,31 0.0138392857,62 0.0138392857,62 L31.2629463,61.9723213 C48.24375,61.9723213 62,47.8147321 62,30.9861608 C62,14.1575893 48.24375,0 31.2629463,0 Z M31.5987394,51.8344155 C28.5012606,51.8344155 25.5474789,51.131128 22.9130252,49.8553976 L9.96428571,53.1428571 L13.6205882,40.8762173 C12.0558823,37.9158686 11.1617647,34.5139203 11.1617647,30.8993506 C11.1617647,19.3359983 20.3105042,9.96428571 31.5987394,9.96428571 C42.8869747,9.96428571 52.0357143,19.3359983 52.0357143,30.8993506 C52.0357143,42.4627028 42.8869747,51.8344155 31.5987394,51.8344155 Z" id="Shape"></path>
            </g>
        </g>
    </g>
</svg>