<?xml version="1.0" encoding="UTF-8"?>
<svg width="1600px" height="600px" viewBox="0 0 1600 600" version="1.1" xmlns="http://www.w3.org/2000/svg" xmlns:xlink="http://www.w3.org/1999/xlink">
    <title>discourse-journal</title>
    <defs>
        <linearGradient x1="102.594058%" y1="50%" x2="0%" y2="50%" id="linearGradient-1">
            <stop stop-color="#FFFFFF" offset="0%"></stop>
            <stop stop-color="#3C1C8C" stop-opacity="0.05" offset="100%"></stop>
        </linearGradient>
    </defs>
    <g id="discourse-journal" stroke="none" stroke-width="1" fill="none" fill-rule="evenodd">
        <rect id="Rectangle" fill="url(#linearGradient-1)" x="0" y="0" width="1600" height="600"></rect>
        <g id="journal" transform="translate(646.000000, 105.000000)" fill-rule="nonzero">
            <path d="M308.920093,9.84 C308.920093,4.4 304.525213,0 299.091544,0 L60.6493406,0 C27.1683476,0 0,27.28 0,60.72 L0,329.28 C0,362.8 27.2482545,390 60.6493406,390 L299.171451,390 C304.60512,390 309,385.6 309,380.16 L309,111.68 C309,106.24 304.60512,101.84 299.171451,101.84 L60.6493406,101.84 C38.0356866,101.84 19.5771916,83.36 19.5771916,60.72 C19.5771916,38.08 38.0356866,19.6 60.6493406,19.6 L299.171451,19.6 C304.525213,19.6 308.920093,15.2 308.920093,9.84 Z M60.6493406,121.44 L289.342901,121.44 L289.342901,370.4 L60.6493406,370.4 C38.0356866,370.4 19.5771916,351.92 19.5771916,329.28 L19.5771916,105.36 C30.3646237,115.36 44.8277735,121.44 60.6493406,121.44 Z" id="Shape" fill="#000000"></path>
            <path d="M63.8496882,52 C58.4043321,52 54,56.4715447 54,62 C54,67.5284553 58.4043321,72 63.8496882,72 L288.150312,72 C293.595668,72 298,67.5284553 298,62 C298,56.4715447 293.595668,52 288.150312,52 L63.8496882,52 Z" id="Path" fill="#3C1C8C"></path>
            <g id="discourse" transform="translate(98.000000, 176.000000)" fill="#000000">
                <path d="M56.9792409,0 C26.0555803,0 0,24.8448661 0,55.5162947 C0,56.5 0.0252232143,113 0.0252232143,113 L56.9792409,112.949553 C87.928125,112.949553 113,87.1462053 113,56.4747769 C113,25.8033482 87.928125,0 56.9792409,0 Z M57.5952377,93.0415584 C51.8656243,93.0415584 46.4018173,91.7715921 41.5286923,89.4679331 L17.5765447,95.4042857 L24.3398514,73.2537172 C21.4455105,67.9080472 19.7916015,61.7649559 19.7916015,55.237922 C19.7916015,34.3573198 36.7146355,17.4342857 57.5952377,17.4342857 C78.4758399,17.4342857 95.3988741,34.3573198 95.3988741,55.237922 C95.3988741,76.1185242 78.4758399,93.0415584 57.5952377,93.0415584 Z" id="Shape"></path>
            </g>
        </g>
    </g>
</svg>