<?xml version="1.0" encoding="UTF-8"?>
<svg width="1600px" height="600px" viewBox="0 0 1600 600" version="1.1" xmlns="http://www.w3.org/2000/svg" xmlns:xlink="http://www.w3.org/1999/xlink">
    <title>discourse-verifiable-credentials</title>
    <defs>
        <linearGradient x1="102.594058%" y1="50%" x2="0%" y2="50%" id="linearGradient-1">
            <stop stop-color="#FFFFFF" offset="0%"></stop>
            <stop stop-color="#3C1C8C" stop-opacity="0.05" offset="100%"></stop>
        </linearGradient>
    </defs>
    <g id="discourse-verifiable-credentials" stroke="none" stroke-width="1" fill="none" fill-rule="evenodd">
        <rect id="Rectangle" fill="url(#linearGradient-1)" x="0" y="0" width="1600" height="600"></rect>
        <g id="verifiable-credentials" transform="translate(674.000000, 112.000000)" fill-rule="nonzero">
            <path d="M219.992,62.966 L175.192,62.966 L175.192,51.394 C175.192,45.576 170.473,40.986 164.784,40.986 L157.285,40.986 L157.285,10.408 C157.285,4.59 152.566,0 146.877,0 L104.146,0 C98.328,0 93.738,4.719 93.738,10.408 L93.738,40.986 L86.239,40.986 C80.421,40.986 75.831,45.705 75.831,51.394 L75.831,62.966 L30.966,62.966 C13.899,62.966 0,76.865 0,93.932 L0,345.213 C0,362.28 13.899,376.179 30.966,376.179 L220.315,376.179 C237.382,376.179 251.281,362.28 251.281,345.213 L251.281,93.931 C251.023,76.865 237.059,62.966 219.992,62.966 Z M136.34,20.816 L136.34,40.921 L114.489,40.921 L114.424,20.816 L136.34,20.816 Z M96.453,61.867 L154.247,61.867 L154.247,78.934 L96.453,78.934 L96.453,61.867 Z M220.057,355.232 L30.708,355.232 C25.148,355.232 20.688,350.771 20.688,345.212 L20.688,198.594 L40.987,198.594 C46.805,198.594 51.395,193.875 51.395,188.186 C51.395,182.497 46.676,177.778 40.987,177.778 L20.623,177.778 L20.623,157.673 L61.415,157.673 C67.233,157.673 71.823,152.954 71.823,147.265 C71.823,141.576 67.104,136.857 61.415,136.857 L20.623,136.857 L20.623,94.19 C20.623,88.63 25.084,84.17 30.643,84.17 L75.572,84.17 L75.572,89.665 C75.572,95.483 80.291,100.073 85.98,100.073 L164.655,100.073 C170.473,100.073 175.063,95.354 175.063,89.665 L175.063,84.17 L219.863,84.17 C225.423,84.17 229.883,88.631 229.883,94.19 L229.883,345.342 L230.071,345.342 C230.002,350.84 225.573,355.232 220.057,355.232 Z" id="Shape" fill="#000000"></path>
            <path d="M172.477,250.44 C142.158,239.256 108.477,239.256 78.222,250.44 C61.996,256.452 51.006,272.097 51.006,289.228 L51.006,324.719 C51.006,330.537 55.725,335.127 61.414,335.127 L189.22,335.127 C195.038,335.127 199.628288,330.408 199.628288,324.719 L199.628288,289.228 C199.693,272.032 188.768,256.453 172.477,250.44 Z M178.813,314.246 L71.952,314.246 L71.952,289.293 C71.952,280.824 77.382,273.067 85.463,270.158 C111.128,260.72 139.637,260.72 165.301,270.158 C173.446,273.196 178.813,280.889 178.813,289.293 L178.813,314.246 L178.813,314.246 Z" id="Shape" fill="#3C1C8C"></path>
            <path d="M125.35,142.028 C102.077,142.028 83.136,160.905 83.136,184.178 C83.136,207.451 102.077,226.392 125.35,226.392 C148.623,226.392 167.564,207.451 167.564,184.178 C167.564,160.905 148.623,142.028 125.35,142.028 Z M125.35,205.446 C113.584,205.446 104.081,195.878 104.081,184.177 C104.081,172.476 113.713,162.973 125.35,162.973 C137.116,162.973 146.619,172.541 146.619,184.242 C146.619,195.943 136.986,205.446 125.35,205.446 Z" id="Shape" fill="#3C1C8C"></path>
        </g>
    </g>
</svg>