<?xml version="1.0" encoding="UTF-8"?>
<svg width="1600px" height="600px" viewBox="0 0 1600 600" version="1.1" xmlns="http://www.w3.org/2000/svg" xmlns:xlink="http://www.w3.org/1999/xlink">
    <title>discourse-mentionables</title>
    <defs>
        <linearGradient x1="102.594058%" y1="50%" x2="0%" y2="50%" id="linearGradient-1">
            <stop stop-color="#FFFFFF" offset="0%"></stop>
            <stop stop-color="#3C1C8C" stop-opacity="0.05" offset="100%"></stop>
        </linearGradient>
    </defs>
    <g id="discourse-mentionables" stroke="none" stroke-width="1" fill="none" fill-rule="evenodd">
        <rect id="Rectangle" fill="url(#linearGradient-1)" x="0" y="0" width="1600" height="600"></rect>
        <g id="mentionables" transform="translate(646.000000, 153.000000)" fill="#212121" fill-rule="nonzero">
            <path d="M154.5,0 C238.381756,0 306.650545,63.8183942 308.940644,143.371404 L309,147.5 L308.995102,170.000095 L308.995102,170.000095 C308.78924,202.410539 281.201263,228.625 247.2,228.625 C224.866044,228.625 205.299169,217.314491 194.441056,200.365953 C182.080796,212.672086 165.365282,220.266666 146.775,220.266666 C107.917008,220.266666 77.25,187.085428 77.25,147.008334 C77.25,106.931239 107.917008,73.75 146.775,73.75 C161.245555,73.75 174.580194,78.3515298 185.618182,86.1971237 C186.744136,79.1457649 193.13704,73.75 200.85,73.75 C208.773313,73.75 215.303586,79.4440928 216.196057,86.7798383 L216.3,88.5 L216.3,169.625 C216.3,185.9174 230.134401,199.125 247.2,199.125 C263.48989,199.125 276.835651,187.090802 278.015246,171.826619 L278.104816,169.253101 L278.104816,169.253101 L278.1,147.5 C278.1,82.3303995 222.762395,29.5 154.5,29.5 C86.2376049,29.5 30.9,82.3303995 30.9,147.5 C30.9,212.669601 86.2376049,265.5 154.5,265.5 C168.736492,265.5 182.623087,263.20759 195.74354,258.775139 C203.787566,256.057644 212.616048,260.080202 215.462508,267.759772 C218.308967,275.439342 214.095509,283.867828 206.051484,286.585323 C189.632005,292.132277 172.260367,295 154.5,295 C69.1720061,295 0,228.962001 0,147.5 C0,66.0379994 69.1720061,0 154.5,0 Z M149.080491,103.328344 L146.775,103.25 C125.903396,103.25 108.15,122.458907 108.15,147.008334 C108.15,171.55776 125.903396,190.766666 146.775,190.766666 C166.873581,190.766666 184.080657,172.954292 185.327685,149.713366 L185.39702,146.457733 C185.143754,123.078544 168.782902,104.669695 149.080491,103.328344 L146.775,103.25 L149.080491,103.328344 Z" id="🎨-Color"></path>
        </g>
    </g>
</svg>