<?xml version="1.0" encoding="UTF-8"?>
<svg width="1600px" height="600px" viewBox="0 0 1600 600" version="1.1" xmlns="http://www.w3.org/2000/svg" xmlns:xlink="http://www.w3.org/1999/xlink">
    <title>discourse-legal-tools</title>
    <defs>
        <linearGradient x1="102.594058%" y1="50%" x2="0%" y2="50%" id="linearGradient-1">
            <stop stop-color="#FFFFFF" offset="0%"></stop>
            <stop stop-color="#3C1C8C" stop-opacity="0.05" offset="100%"></stop>
        </linearGradient>
    </defs>
    <g id="discourse-legal-tools" stroke="none" stroke-width="1" fill="none" fill-rule="evenodd">
        <rect id="Rectangle" fill="url(#linearGradient-1)" x="0" y="0" width="1600" height="600"></rect>
        <g id="legal-tools" transform="translate(610.000000, 110.000000)" fill-rule="nonzero">
            <path d="M368.125,296.875 L261.25,296.875 L261.25,11.875 C261.25,5.31703125 255.932969,0 249.375,0 L11.875,0 C5.31703125,0 0,5.31703125 0,11.875 L0,308.75 C0,348.039922 31.9608203,380 71.25,380 L308.75,380 C348.039922,380 380,348.03918 380,308.75 C380,302.192031 374.682969,296.875 368.125,296.875 Z M118.75,308.75 C118.75,334.941055 97.4410547,356.25 71.25,356.25 C45.0589453,356.25 23.75,334.941055 23.75,308.75 L23.75,23.75 L237.5,23.75 L237.5,296.875 L130.625,296.875 C124.067031,296.875 118.75,302.192031 118.75,308.75 Z M308.75,356.25 L124.310469,356.25 C133.106875,346.433086 139.229922,334.169922 141.508437,320.625 L354.748555,320.625 C349.460469,341.087109 330.841953,356.25 308.75,356.25 Z" id="Shape" fill="#000000"></path>
            <g id="discourse" transform="translate(91.000000, 113.000000)" fill="#3C1C8C">
                <path d="M49.9198659,0 C22.8274553,0 0,21.7667411 0,48.6381697 C0,49.5 0.0220982143,99 0.0220982143,99 L49.9198659,98.9558034 C77.034375,98.9558034 99,76.3493303 99,49.4779019 C99,22.6064732 77.034375,0 49.9198659,0 Z M50.4560517,82.7678571 C45.5100774,82.7678571 40.7935551,81.6448656 36.5869273,79.6078122 L15.9107143,84.8571429 L21.7490038,65.270089 C19.2505218,60.5430804 17.8228178,55.1109373 17.8228178,49.3392856 C17.8228178,30.8752232 32.4312889,15.9107143 50.4560517,15.9107143 C68.4808145,15.9107143 83.0892857,30.8752232 83.0892857,49.3392856 C83.0892857,67.803348 68.4808145,82.7678571 50.4560517,82.7678571 Z" id="Shape"></path>
            </g>
        </g>
    </g>
</svg>