<?xml version="1.0" encoding="UTF-8"?>
<svg width="122px" height="53px" viewBox="0 0 122 53" version="1.1" xmlns="http://www.w3.org/2000/svg" xmlns:xlink="http://www.w3.org/1999/xlink">
    <title>Group</title>
    <g id="Page-1" stroke="none" stroke-width="1" fill="none" fill-rule="evenodd">
        <g id="Group" transform="translate(0.000000, 0.000000)" fill="#C2C2C2" fill-rule="nonzero">
            <path d="M102.7712,0.403531768 C97.6192,1.82358177 93.5082,6.02106177 92.2002,11.2209618 C91.7092,13.2048618 91.6892,16.5461618 92.1382,18.6344618 C92.5072,20.2633618 93.2632,22.1219618 94.1222,23.5211618 L94.6742,24.3982618 L93.5292,27.6768618 C92.9152,29.4728618 92.4452,31.0390618 92.4662,31.1225618 C92.5072,31.2269618 93.9582,30.6422618 95.7172,29.8695618 L98.9272,28.4286618 L100.3182,29.1386618 C102.7102,30.3499618 104.7552,30.7466618 107.7612,30.6213618 C109.6222,30.5378618 110.6642,30.3916618 111.6462,30.0575618 C115.6132,28.7001618 118.6802,25.9644618 120.4392,22.2263618 C121.5022,19.9292618 121.8702,18.2585618 121.8702,15.5437618 C121.8702,12.7454618 121.5022,11.1583618 120.2952,8.54796177 C119.4772,6.83556177 119.0892,6.29256177 117.3922,4.55926177 C115.6742,2.80506177 115.1632,2.42916177 113.4862,1.59387177 C112.4232,1.09267177 110.9302,0.507941768 110.1742,0.320001768 C108.2722,-0.139428232 104.6122,-0.0976682324 102.7712,0.403531768 Z" id="Path"></path>
            <polygon id="Path" points="-7.10542736e-15 24.0014618 -7.10542736e-15 31.9370618 1.8403 31.9370618 3.6807 31.9370618 3.6807 28.9089618 3.6807 25.8809618 6.9524 25.8809618 10.224 25.8809618 10.224 28.9089618 10.224 31.9370618 12.0644 31.9370618 13.9047 31.9370618 13.9047 24.0014618 13.9047 16.0658618 12.0644 16.0658618 10.224 16.0658618 10.224 19.1983618 10.224 22.3308618 6.9524 22.3308618 3.6807 22.3308618 3.6807 19.1983618 3.6807 16.0658618 1.8403 16.0658618 -7.10542736e-15 16.0658618"></polygon>
            <polygon id="Path" points="16.9717 24.0014618 16.9717 31.9370618 22.5949 31.9370618 28.2181 31.9370618 28.2181 30.2663618 28.2181 28.5957618 24.5375 28.5957618 20.8568 28.5957618 20.8568 27.2383618 20.8568 25.9018618 23.8831 25.8391618 26.889 25.7765618 26.9503 24.0432618 27.0117 22.3308618 23.924 22.3308618 20.8568 22.3308618 20.8568 20.8689618 20.8568 19.4071618 24.4352 19.4071618 28.0136 19.4071618 28.0136 17.7365618 28.0136 16.0658618 22.4927 16.0658618 16.9717 16.0658618"></polygon>
            <path d="M35.1911,16.6297618 C35.0684,16.9638618 33.678,20.4513618 32.1035,24.3982618 C30.529,28.3451618 29.2407,31.6655618 29.2407,31.7699618 C29.2407,31.8743618 30.1405,31.9161618 31.2242,31.8952618 L33.2077,31.8326618 L33.6371,30.6840618 L34.0665,29.5354618 L37.1746,29.4728618 L40.2827,29.4101618 L40.8143,30.6840618 L41.3664,31.9370618 L43.3703,31.9370618 L45.3742,31.9370618 L43.2681,26.6536618 C42.1026,23.7717618 40.6712,20.2007618 40.0782,18.7180618 L39.0149,16.0658618 L37.2155,16.0658618 C35.4569,16.0658618 35.4161,16.0658618 35.1911,16.6297618 Z M37.3586,26.0480618 C36.4589,26.0897618 35.6819,26.0688618 35.6205,26.0062618 C35.5387,25.9018618 36.5816,23.0199618 37.0723,22.0384618 C37.2359,21.7043618 37.42,21.9966618 38.1152,23.8135618 L38.974,25.9853618 L37.3586,26.0480618 Z" id="Shape"></path>
            <polygon id="Path" points="47.0303 24.0014618 47.0303 31.9370618 52.1423 31.9370618 57.2543 31.9370618 57.2543 30.2663618 57.2543 28.5957618 53.9826 28.5957618 50.7109 28.5957618 50.7109 22.3308618 50.7109 16.0658618 48.8706 16.0658618 47.0303 16.0658618"></polygon>
            <polygon id="Path" points="56.4365 17.7365618 56.4365 19.4071618 58.5836 19.4071618 60.7306 19.4071618 60.7306 25.6721618 60.7306 31.9370618 62.571 31.9370618 64.4113 31.9370618 64.4113 25.6721618 64.4113 19.4071618 66.5583 19.4071618 68.7054 19.4071618 68.7054 17.7365618 68.7054 16.0658618 62.571 16.0658618 56.4365 16.0658618"></polygon>
            <polygon id="Path" points="70.75 24.0014618 70.75 31.9370618 72.5903 31.9370618 74.4307 31.9370618 74.4307 28.9089618 74.4307 25.8809618 77.7024 25.8809618 80.9742 25.8809618 80.9742 28.9089618 80.9742 31.9370618 82.8142 31.9370618 84.6542 31.9370618 84.6542 24.0014618 84.6542 16.0658618 82.8142 16.0658618 80.9742 16.0658618 80.9742 19.1983618 80.9742 22.3308618 77.7024 22.3308618 74.4307 22.3308618 74.4307 19.1983618 74.4307 16.0658618 72.5903 16.0658618 70.75 16.0658618"></polygon>
            <path d="M19.1187,35.5080618 C17.81,35.6959618 15.7857,36.6357618 14.886,37.4501618 C11.4712,40.5617618 11.144,45.8660618 14.1907,49.2282618 C15.847,51.0659618 17.9736,51.9848618 20.5501,51.9848618 C23.0652,51.9848618 25.3145,51.0241618 26.9094,49.2491618 C29.6904,46.1375618 29.7108,41.3761618 26.9503,38.3063618 C24.9055,36.0301618 22.2268,35.0694618 19.1187,35.5080618 Z M23.1265,39.5802618 C26.8276,42.3159618 25.3145,48.2676618 20.8364,48.6017618 C18.5257,48.7688618 16.6445,47.3069618 16.0311,44.8636618 C15.5812,43.0886618 16.3991,40.6452618 17.7283,39.7681618 C19.0165,38.8910618 19.3232,38.8075618 20.7955,38.8702618 C22.0428,38.9328618 22.3904,39.0372618 23.1265,39.5802618 Z" id="Shape"></path>
            <polygon id="Path" points="-7.10542736e-15 43.7360618 -7.10542736e-15 51.7760618 1.8403 51.7760618 3.6807 51.7760618 3.6807 48.9567618 3.6807 46.1375618 6.7479 46.1375618 9.8151 46.1375618 9.8151 44.4669618 9.8151 42.7962618 6.7479 42.7962618 3.6807 42.7962618 3.6807 40.9167618 3.6807 39.0373618 7.2591 39.0373618 10.8375 39.0373618 10.8375 37.3666618 10.8375 35.6960618 5.4188 35.6960618 -7.10542736e-15 35.6960618"></polygon>
            <path d="M31.4898,43.7151618 L31.4898,51.7760618 L33.4323,51.7760618 L35.3749,51.7760618 L35.3749,49.1656618 L35.3749,46.5552618 L36.3769,46.5552618 L37.3993,46.5552618 L38.7488,49.1656618 L40.1189,51.7760618 L42.2659,51.7760618 C44.1062,51.7760618 44.3925,51.7342618 44.2903,51.4627618 C44.2289,51.2748618 43.5337,50.0009618 42.7362,48.6435618 L41.2844,46.1375618 L42.3886,45.0307618 C43.6973,43.7360618 44.0653,42.6292618 43.9222,40.6453618 C43.7995,39.1417618 43.4519,38.3272618 42.4908,37.3457618 C41.1617,36.0092618 40.4665,35.8213618 35.743,35.7377618 L31.4898,35.6542618 L31.4898,43.7151618 Z M38.7079,39.2670618 C39.6281,39.5176618 40.1189,40.2276618 40.1189,41.2718618 C40.1189,41.8774618 39.9757,42.1697618 39.485,42.6292618 C38.892,43.1721618 38.7284,43.2139618 37.113,43.2139618 L35.3749,43.2139618 L35.3749,41.1256618 L35.3749,39.0373618 L36.6631,39.0373618 C37.3584,39.0373618 38.2785,39.1417618 38.7079,39.2670618 Z" id="Shape"></path>
            <path d="M46.2124,41.2926618 C46.2124,47.6619618 46.2942,48.1840618 47.6847,49.7920618 C49.1978,51.5462618 51.5289,52.2980618 54.269,51.9430618 C55.8435,51.7133618 57.0294,51.1703618 58.0109,50.1679618 C59.6672,48.4764618 59.9126,47.2443618 59.9126,40.5408618 L59.9126,35.6959618 L57.9701,35.6959618 L56.0275,35.6959618 L56.0275,41.0838618 C56.0275,45.9286618 55.9866,46.5343618 55.639,47.1816618 C55.1278,48.1840618 54.2076,48.6852618 52.9194,48.6852618 C51.7743,48.6643618 51.1609,48.3302618 50.4247,47.3069618 C50.0158,46.7640618 49.9953,46.4090618 49.934,41.2091618 L49.8726,35.6959618 L48.0527,35.6959618 L46.2124,35.6959618 L46.2124,41.2926618 Z" id="Path"></path>
            <path d="M62.5708,43.7360618 L62.5708,51.7760618 L64.5134,51.7760618 L66.456,51.7760618 L66.4968,47.1399618 L66.5582,42.4830618 L68.2963,44.9890618 C70.6682,48.3929618 70.566,48.3929618 72.9789,44.9681618 L74.8397,42.3159618 L74.8397,47.0355618 L74.8397,51.7760618 L76.7822,51.7760618 L78.7248,51.7760618 L78.7248,43.7360618 L78.7248,35.6960618 L77.048,35.6960618 L75.3509,35.7169618 L74.4307,37.0116618 C73.9195,37.7216618 72.8562,39.2252618 72.0587,40.3320618 L70.6069,42.3577618 L68.2758,39.0373618 L65.9447,35.7169618 L64.268,35.6960618 L62.5708,35.6960618 L62.5708,43.7360618 Z" id="Path"></path>
            <path d="M87.1082,43.7360618 L87.1082,51.7760618 L88.9492,51.7760618 L90.7892,51.7760618 L90.8302,47.1608618 L90.8912,42.5456618 L94.4702,47.1608618 L98.0482,51.7760618 L99.6432,51.7760618 L101.2172,51.7760618 L101.2172,43.7360618 L101.2172,35.6960618 L99.3772,35.6960618 L97.5372,35.6960618 L97.5372,40.3320618 C97.5162,44.5295618 97.4962,44.9472618 97.2102,44.5713618 C97.0462,44.3416618 95.4312,42.2533618 93.6112,39.9144618 L90.3392,35.6960618 L88.7242,35.6960618 L87.1082,35.6960618 L87.1082,43.7360618 Z" id="Path"></path>
            <path d="M103.8762,37.3666618 L103.8762,39.0373618 L107.5152,39.0790618 L111.1552,39.1417618 L107.3312,43.9448618 L103.4872,48.7479618 L103.4672,50.2515618 L103.4672,51.7760618 L110.0102,51.7760618 L116.5532,51.7760618 L116.5532,50.1053618 L116.5532,48.4347618 L112.5662,48.3929618 L108.5792,48.3303618 L110.7462,45.6154618 C111.9322,44.1119618 113.6702,41.9191618 114.6312,40.7288618 L116.3492,38.5570618 L116.3492,37.1369618 L116.3492,35.6960618 L110.1122,35.6960618 L103.8762,35.6960618 L103.8762,37.3666618 Z" id="Path"></path>
        </g>
    </g>
</svg>