<?xml version="1.0" encoding="UTF-8"?>
<svg width="509px" height="40px" viewBox="0 0 509 40" version="1.1" xmlns="http://www.w3.org/2000/svg" xmlns:xlink="http://www.w3.org/1999/xlink">
    <title>Group</title>
    <g id="Page-1" stroke="none" stroke-width="1" fill="none" fill-rule="evenodd">
        <g id="Group" transform="translate(0.000000, 0.000000)" fill-rule="nonzero">
            <path d="M23.7925075,0 C26.3317075,1.0117323 29.0280075,1.6158423 31.3216075,3.2365723 C37.9027075,7.8728723 41.0263075,14.2477323 39.9311075,22.0764323 C38.7426075,30.5288323 33.7232075,36.2308323 25.2610075,38.4949323 C13.6457075,41.6038323 1.72592755,33.3331323 0.64543655,21.5509323 C0.39004715,20.3230323 0.58649755,19.0952323 0.52756155,17.8428323 C0.75839355,10.7607323 4.37803755,5.7511723 10.3502075,2.1609923 C12.3856075,0.9509583 14.6663075,0.2125183 17.0247075,0 L23.7925075,0 Z" id="Path" fill="#C2C2C2"></path>
            <path d="M0.35020445,17.4989323 L0.64979555,17.4989323 C0.64979555,18.8545323 0.64979555,20.2051323 0.64979555,21.5606323 L0.35512055,21.5606323 L0.35020445,17.4989323 Z" id="Path" fill="#C2C2C2"></path>
            <path d="M225.563908,12.6809323 C227.483908,10.4905323 233.004908,10.0828323 236.137908,12.3077323 C237.757908,13.4484323 238.944908,15.1024323 239.506908,17.0019323 C240.069908,18.9013323 239.974908,20.9351323 239.236908,22.7737323 C237.330908,27.6114323 231.825908,29.6054323 226.815908,27.2725323 C222.444908,25.2392323 220.922908,19.4144323 223.579908,14.8174323 C224.885908,15.2594323 225.371908,14.9352323 225.258908,13.5650323 C225.261908,13.2451323 225.368908,12.9347323 225.563908,12.6809323 Z" id="Path" fill="#C2C2C2"></path>
            <path d="M460.349908,26.6340323 C458.678908,25.4873323 457.463908,23.7898323 456.916908,21.8382323 C456.369908,19.8865323 456.526908,17.8048323 457.358908,15.9568323 C459.200908,11.8411323 462.937908,10.1320323 467.834908,11.1535323 C468.403908,11.6447323 467.716908,12.2094323 467.981908,12.7841323 C468.836908,12.5238323 469.685908,12.2095323 470.594908,12.4256323 C474.715908,15.0679323 475.579908,21.5557323 472.264908,24.9052323 C471.596908,25.3964323 470.820908,25.7549323 470.569908,26.6340323 C467.907908,28.4807323 465.059908,28.6673323 462.068908,27.5770323 C461.812908,27.1350323 462.603908,26.5063323 461.808908,26.1576323 C461.169908,25.8728323 460.796908,26.3639323 460.349908,26.6340323 Z" id="Path" fill="#C2C2C2"></path>
            <path d="M435.905908,16.1680323 C435.862908,16.0922323 435.846908,16.0036323 435.861908,15.9175323 C435.247908,14.6307323 436.740908,14.6406323 437.094908,13.9530323 C437.210908,13.9084323 437.334908,13.8898323 437.458908,13.8985323 C437.582908,13.9072323 437.703908,13.9430323 437.812908,14.0035323 C437.920908,14.0639323 438.014908,14.1474323 438.087908,14.2482323 C438.160908,14.3489323 438.210908,14.4644323 438.233908,14.5865323 C438.322908,15.2005323 438.381908,15.8242323 439.054908,16.1336323 L440.723908,20.1265323 C442.197908,16.9734323 443.567908,14.1298323 445.109908,10.8785323 L449.564908,20.2100323 C450.590908,17.4842323 451.528908,15.0286323 452.437908,12.5631323 C452.702908,11.8460323 452.987908,11.1683323 453.856908,11.0897323 C454.578908,11.0307323 455.678908,10.7311323 455.948908,11.2223323 C456.440908,12.0572323 455.673908,12.9658323 455.261908,13.7909323 C454.932908,14.0561323 454.067908,14.1396323 454.907908,14.8026323 L453.169908,19.5126323 C452.678908,20.0283323 452.137908,19.4537323 451.558908,19.6452323 C451.666908,20.3623323 452.113908,21.0744323 451.735908,21.8160323 C451.504908,22.1040323 451.359908,22.4512323 451.316908,22.8177323 C451.274908,23.1843323 451.335908,23.5554323 451.494908,23.8886323 L451.194908,24.5664323 C450.644908,24.7579323 450.575908,25.1066323 450.846908,25.5732323 L450.016908,28.1222323 C449.066908,26.6097323 448.308908,24.9846323 447.761908,23.2845323 C447.550908,22.7934323 447.609908,22.1942323 447.044908,21.8946323 C446.937908,21.8226323 446.854908,21.7212323 446.803908,21.6027323 C446.753908,21.4842323 446.737908,21.3536323 446.759908,21.2266323 C446.268908,20.5096323 446.833908,20.1118323 447.290908,19.6698323 C446.882908,19.1246323 446.155908,19.6698323 445.767908,19.1786323 C445.384908,18.3535323 445.055908,18.0687323 444.564908,19.1541323 C443.449908,21.6097323 442.256908,24.0212323 441.126908,26.4523323 C440.939908,26.8452323 440.920908,27.4346323 440.404908,27.4837323 C439.888908,27.5328323 439.815908,26.8894323 439.682908,26.5014323 C438.774908,23.8591323 437.551908,21.3249323 436.912908,18.5893323 C436.549908,17.7789323 436.824908,16.7328323 435.905908,16.1680323 Z" id="Path" fill="#C2C2C2"></path>
            <path d="M360.782908,15.4804323 C361.116908,18.1522323 360.664908,20.5047323 358.100908,21.9879323 C357.491908,22.3415323 357.732908,22.6165323 358.031908,23.0144323 C359.171908,24.5271323 360.271908,26.0643323 361.410908,27.6261323 C358.871908,28.3431323 357.972908,28.0779323 356.577908,26.1969323 C355.787908,25.1213323 355.045908,24.0065323 354.284908,22.9063323 C354.372908,22.6215323 354.112908,22.6607323 353.979908,22.5772323 C350.694908,22.4938323 350.674908,22.4938323 350.630908,25.8678323 C350.630908,26.9140323 350.468908,27.7784323 349.196908,27.9306323 C348.086908,28.0583323 347.437908,27.8913323 347.467908,26.4572323 C347.555908,21.8209323 347.536908,17.1846323 347.467908,12.5483323 C347.467908,11.3942323 347.791908,10.9669323 348.994908,11.0160323 C351.190908,11.0995323 353.390908,11.0160323 355.590908,11.0455323 C356.676908,11.0455323 357.722908,11.2174323 358.537908,12.0523323 C358.355908,12.7350323 359.092908,12.9461323 359.264908,13.4520323 C359.436908,13.9579323 359.544908,14.4588323 359.063908,14.8026323 C358.581908,15.1464323 358.296908,14.7241323 357.967908,14.4097323 C356.494908,13.0002323 356.396908,13.0002323 354.785908,14.0807323 C354.238908,14.2113323 353.676908,14.2643323 353.115908,14.2378323 C351.150908,14.2919323 351.101908,14.3164323 351.087908,16.3644323 C351.062908,19.4979323 351.288908,19.6747323 354.421908,19.3407323 C356.032908,19.1639323 356.946908,18.2651323 357.447908,16.8310323 C357.573908,16.5434323 357.767908,16.2902323 358.011908,16.0928323 C358.255908,15.8954323 358.544908,15.7595323 358.851908,15.6965323 C359.495908,15.6326323 360.055908,14.8910323 360.782908,15.4804323 Z" id="Path" fill="#C2C2C2"></path>
            <path d="M327.576908,19.6698323 C327.576908,21.9093323 327.576908,24.1538323 327.576908,26.3934323 C327.576908,27.0515323 327.871908,27.9159323 326.633908,27.9502323 C325.543908,27.9797323 324.669908,27.7734323 324.546908,26.5505323 C324.451908,25.2085323 324.439908,23.8618323 324.511908,22.5183323 C324.565908,21.4820323 324.182908,21.1481323 323.151908,21.1824323 C321.186908,21.2512323 319.192908,21.2463323 317.213908,21.1824323 C316.231908,21.1530323 315.922908,21.5066323 315.966908,22.4447323 C316.025908,23.7854323 315.966908,25.1311323 315.966908,26.4768323 C315.966908,27.3265323 316.005908,28.0337323 314.777908,27.9502323 C313.716908,27.8766323 312.837908,27.7538323 312.842908,26.4179323 C312.842908,24.2897323 312.842908,22.1614323 312.842908,20.0332323 C312.842908,17.6217323 312.842908,15.2152323 312.842908,12.8037323 C312.842908,11.9148323 312.626908,10.9669323 314.119908,11.0504323 C315.401908,11.1191323 315.985908,11.6446323 315.966908,12.9019323 C315.966908,14.3017323 316.015908,15.7063323 315.966908,17.1060323 C315.922908,18.0883323 316.236908,18.5156323 317.302908,18.4763323 C319.266908,18.4125323 321.260908,18.4174323 323.234908,18.4763323 C324.217908,18.5009323 324.546908,18.1669323 324.511908,17.2141323 C324.453908,15.7063323 324.511908,14.1936323 324.511908,12.6809323 C324.511908,11.8116323 324.389908,11.0062323 325.744908,11.0504323 C326.987908,11.0897323 327.655908,11.4138323 327.620908,12.7792323 C327.532908,15.0728323 327.571908,17.3713323 327.576908,19.6698323 Z" id="Path" fill="#C2C2C2"></path>
            <path d="M296.654908,19.4733323 C296.654908,17.1797323 296.704908,14.8812323 296.654908,12.5974323 C296.615908,11.4580323 296.930908,10.9865323 298.157908,11.0406323 C300.191908,11.1290323 302.229908,11.0405323 304.262908,11.0651323 C307.808908,11.1044323 310.480908,13.4324323 310.46597,16.8114323 C310.46597,20.0970323 308.948908,22.3906323 304.572908,22.8425323 C303.670908,22.9382323 302.762908,22.9382323 301.860908,22.8425323 C300.426908,22.6804323 299.704908,23.0929323 299.965908,24.6498323 C299.999908,25.1518323 299.999908,25.6556323 299.965908,26.1576323 C299.989908,27.4444323 299.316908,27.9011323 298.064908,27.9552323 C296.939908,28.0043323 296.591908,27.6163323 296.625908,26.5210323 C296.704908,24.1783323 296.659908,21.8258323 296.654908,19.4733323 Z" id="Path" fill="#C2C2C2"></path>
            <path d="M155.326908,19.4242323 C155.326908,17.1306323 155.380908,14.8321323 155.297908,12.5483323 C155.253908,11.3451323 155.695908,11.0013323 156.859908,11.0504323 C158.823908,11.1290323 160.788908,11.0504323 162.792908,11.0504323 C166.450908,11.0798323 169.176908,13.4324323 169.117908,16.8458323 C169.058908,20.2591323 167.443908,22.4987323 163.022908,22.8376323 C161.951908,22.9039323 160.877908,22.9039323 159.805908,22.8376323 C158.907908,22.7934323 158.583908,23.1617323 158.641908,24.0212323 C158.686908,24.7432323 158.641908,25.4946323 158.641908,26.2018323 C158.641908,27.3855323 158.047908,27.8766323 156.864908,27.9404323 C155.680908,28.0043323 155.248908,27.6850323 155.297908,26.4670323 C155.390908,24.1292323 155.326908,21.7767323 155.326908,19.4242323 Z" id="Path" fill="#C2C2C2"></path>
            <path d="M331.549908,19.5322323 C331.549908,17.1257323 331.594908,14.7142323 331.549908,12.3077323 C331.520908,11.1879323 332.040908,11.0357323 333.023908,11.0455323 C336.132908,11.0799323 339.245908,11.0455323 342.354908,11.0455323 C343.027908,11.0455323 343.911908,10.7704323 343.921908,11.9835323 C343.921908,13.0493323 343.533908,13.7467323 342.389908,13.7614323 C340.355908,13.7958323 338.312908,13.8498323 336.284908,13.7614323 C335.022908,13.7025323 334.604908,14.0758323 334.653908,15.3527323 C334.781908,18.7464323 334.275908,18.1178323 337.546908,18.1816323 C338.568908,18.1816323 339.584908,18.2062323 340.601908,18.1816323 C341.367908,18.1816323 341.937908,18.2504323 341.893908,19.2376323 C341.853908,20.0823323 341.814908,20.8730323 340.709908,20.8976323 C339.182908,20.9369323 337.654908,20.9713323 336.132908,20.8976323 C335.036908,20.8436323 334.629908,21.1923323 334.658908,22.3121323 C334.742908,25.7991323 334.364908,25.1115323 337.526908,25.1754323 C339.167908,25.2097323 340.807908,25.1754323 342.438908,25.1754323 C343.675908,25.1754323 343.911908,25.8924323 343.911908,26.9336323 C343.911908,28.1271323 343.096908,27.9159323 342.389908,27.9159323 C339.280908,27.9159323 336.171908,27.8668323 333.057908,27.9453323 C331.844908,27.9748323 331.500908,27.5672323 331.540908,26.4081323 C331.603908,24.1292323 331.549908,21.8307323 331.549908,19.5322323 Z" id="Path" fill="#C2C2C2"></path>
            <path d="M143.067908,20.5882323 C141.397908,21.3789323 139.629908,20.8829323 137.910908,20.8976323 C136.565908,20.8976323 136.039908,21.2954323 136.211908,22.6166323 C136.263908,23.0620323 136.263908,23.5119323 136.211908,23.9573323 C136.118908,24.9150323 136.525908,25.2441323 137.483908,25.2195323 C139.575908,25.1704323 141.672908,25.2195323 143.765908,25.2195323 C144.865908,25.2195323 145.464908,25.5879323 145.474908,26.7715323 C145.474908,27.6065323 145.253908,27.9945323 144.334908,27.9846323 C140.988908,27.9453323 137.647908,27.9453323 134.310908,27.9846323 C133.431908,27.9846323 133.117908,27.6998323 133.122849,26.8206323 C133.151908,21.9977323 133.161908,17.1748323 133.122849,12.3519323 C133.122849,11.2321323 133.638908,11.0749323 134.595908,11.0848323 C137.709908,11.1191323 140.823908,11.0848323 143.927908,11.0848323 C144.604908,11.0848323 145.484908,10.8097323 145.489908,12.0277323 C145.489908,13.0984323 145.081908,13.7860323 143.946908,13.8007323 C141.397908,13.8351323 138.848908,13.8007323 136.299908,13.8253323 C135.838908,15.0531323 136.196908,16.3350323 136.088908,17.5824323 C136.039908,18.1571323 136.324908,18.3977323 136.889908,18.3683323 C138.014908,18.3093323 139.143908,18.5794323 140.238908,18.4714323 C141.933908,18.2848323 142.625908,19.2032323 143.067908,20.5882323 Z" id="Path" fill="#C2C2C2"></path>
            <path d="M185.845908,27.8864323 C183.443908,27.9846323 183.168908,27.7342323 183.154908,25.4307323 C183.119908,21.2119323 183.119908,21.2119323 178.792908,21.2119323 C174.637908,21.2119323 174.637908,21.2119323 174.637908,25.2834323 C174.637908,25.6763323 174.637908,26.0692323 174.637908,26.4621323 C174.672908,27.2823323 174.745908,28.0534323 173.483908,27.9650323 C172.432908,27.8913323 171.519908,27.8029323 171.519908,26.4572323 C171.519908,21.6883323 171.519908,16.9243323 171.519908,12.1554323 C171.519908,11.1732323 172.010908,11.0749323 172.796908,11.0799323 C173.857908,11.0799323 174.598908,11.4384323 174.632908,12.5778323 C174.677908,14.0905323 174.701908,15.6032323 174.632908,17.1159323 C174.593908,18.0981323 174.898908,18.5303323 175.963908,18.4960323 C177.928908,18.4272323 179.927908,18.4321323 181.906908,18.4960323 C182.888908,18.5205323 183.213908,18.1767323 183.178908,17.2288323 C183.124908,15.6081323 183.178908,13.9775323 183.178908,12.3519323 C183.178908,11.5808323 183.272908,11.0258323 184.259908,11.0946323 C185.162908,11.1535323 186.184908,10.9718323 186.253908,12.3077323 C186.282908,12.9216323 186.253908,13.5404323 186.253908,14.1593323 C185.020908,14.7191323 185.717908,15.2741323 186.253908,15.8340323 L186.253908,16.5118323 C185.609908,17.0029323 185.722908,17.6856323 185.727908,18.3388323 C185.688908,21.5066323 185.550908,24.6990323 185.845908,27.8864323 Z" id="Path" fill="#C2C2C2"></path>
            <path d="M270.354908,24.2815323 C269.485908,23.0144323 268.429908,22.2384323 266.725908,22.5134323 C265.934908,22.6411323 265.644908,22.8719323 265.679908,23.6381323 C265.718908,24.5320323 265.679908,25.4258323 265.679908,26.3197323 C265.649908,27.6703323 264.790908,27.9306323 263.626908,27.9502323 C262.300908,27.9748323 262.570908,27.0760323 262.565908,26.3442323 C262.565908,21.7571323 262.565908,17.1748323 262.540908,12.5925323 C262.540908,11.4629323 262.820908,10.9865323 264.048908,11.0356323 C266.243908,11.1191323 268.468908,11.0356323 270.649908,11.0651323 C271.380908,11.0276323 272.110908,11.1648323 272.778908,11.4655323 C273.446908,11.7661323 274.033908,12.2215323 274.489908,12.7939323 C274.455908,12.9010323 274.399908,12.9999323 274.324908,13.0844323 C274.250908,13.1689323 274.159908,13.2372323 274.057908,13.2850323 C273.078908,13.4799323 272.172908,13.9423323 271.440908,14.6209323 C270.117908,14.3048323 268.755908,14.1857323 267.398908,14.2673323 C266.553908,14.2673323 266.130908,14.6406323 266.155908,15.4902323 C266.141908,15.6536323 266.141908,15.8179323 266.155908,15.9813323 C266.381908,17.0717323 265.531908,18.4370323 266.784908,19.2425323 C267.948908,19.9694323 270.870908,19.2081323 271.955908,18.0785323 C272.152908,17.8722323 272.324908,17.6463323 272.535908,17.4646323 C273.070908,17.1061323 273.915908,16.9734323 273.689908,16.0305323 C273.659908,14.2035323 274.072908,13.9382323 275.604908,14.7781323 C276.616908,18.1227323 275.604908,20.6176323 272.554908,22.2924323 C271.518908,22.6264323 271.503908,24.0703323 270.354908,24.2815323 Z" id="Path" fill="#C2C2C2"></path>
            <path d="M79.4961076,18.8545323 L84.1618076,27.6359323 C81.4606076,28.2253323 81.0235076,28.0780323 79.7711075,25.9956323 C79.6511076,25.7466323 79.4579076,25.5403323 79.2174076,25.4043323 C78.9769076,25.2682323 78.7006076,25.2089323 78.4254076,25.2343323 C76.9520076,25.2687323 75.4786076,25.2883323 74.0052075,25.2343323 C72.4385075,25.1704323 71.0044075,25.1115323 70.3365076,27.0073323 C70.0516075,27.8275323 67.6500075,28.2941323 66.9722076,27.8471323 C66.3730075,27.4444323 66.9084076,27.0417323 67.0753076,26.7175323 C68.4849076,23.9721323 69.9337075,21.2512323 71.3678075,18.5205323 C72.1045076,18.3093323 72.0456075,17.3123323 72.8707076,17.0864323 C73.1899076,16.9980323 72.1389075,16.5560323 72.6792076,16.1041323 C73.1703076,14.5571323 74.0936076,13.2310323 74.7763075,11.7822323 C75.1103076,11.0602323 75.5130075,10.9767323 75.8961075,11.7822323 C76.7752076,13.5699323 77.6396076,15.3576323 78.5089076,17.1503323 C78.8773075,18.7906323 78.2142075,20.1363323 76.8882076,20.4507323 C76.0778076,20.1216323 75.9648076,19.2326323 75.3018076,18.5254323 C74.7560076,19.4129323 74.2751076,20.3386323 73.8628075,21.2954323 C73.8151076,21.3646323 73.7846076,21.4442323 73.7737075,21.5275323 C73.7629075,21.6109323 73.7719075,21.6956323 73.8002075,21.7748323 C73.8285075,21.8539323 73.8752075,21.9252323 73.9365076,21.9827323 C73.9978076,22.0403323 74.0718076,22.0825323 74.1526075,22.1058323 C74.9826075,22.4840323 76.6082076,22.0468323 77.2418076,21.2365323 C78.1848076,20.5882323 78.0620076,18.9822323 79.4961076,18.8545323 Z" id="Path" fill="#C2C2C2"></path>
            <path d="M123.963908,24.3453323 C123.103908,23.2059323 122.234908,22.2777323 120.525908,22.4938323 C119.464908,22.6264323 119.164908,22.9554323 119.233908,23.9181323 C119.280908,24.7032323 119.280908,25.4904323 119.233908,26.2755323 C119.174908,27.5328323 118.442908,27.9552323 117.209908,27.9552323 C115.874908,27.9552323 116.178908,27.0220323 116.173908,26.3099323 C116.173908,21.7080323 116.173908,17.1110323 116.149908,12.5090323 C116.149908,11.4482323 116.414908,10.9964323 117.568908,11.0356323 C119.773908,11.1093323 121.988908,11.0356323 124.193908,11.0651323 C126.831908,11.1093323 128.795908,12.6515323 129.380908,15.0728323 C130.087908,17.9901323 129.085908,20.5833323 126.747908,21.8749323 C126.545908,21.9492323 126.326908,21.9679323 126.114908,21.9290323 C125.220908,21.9290323 125.220908,21.9290323 125.529908,22.7541323 C124.847908,23.1421323 124.537908,23.8689323 123.963908,24.3453323 Z" id="Path" fill="#C2C2C2"></path>
            <path d="M499.374908,22.2335323 L497.410908,20.4359323 L497.410908,25.1459323 C497.410908,27.8864323 497.218908,28.0583323 494.355908,27.8619323 C493.972908,25.2490323 494.271908,22.6264323 494.198908,20.0037323 C494.154908,18.4370323 494.198908,16.8703323 494.198908,15.3036323 C494.198908,12.6220323 494.532908,12.3273323 497.370908,12.4648323 L497.370908,19.6403323 C499.261908,17.2583323 500.975908,15.3527323 502.390908,13.2556323 C503.750908,11.2272323 505.450908,10.6722323 507.954908,11.2910323 L503.014908,17.4793323 C502.876908,17.6543323 502.725908,17.8185323 502.562908,17.9704323 C501.408908,19.0313323 501.088908,20.1020323 502.498908,21.2119323 C502.547908,21.8209323 502.007908,21.8602323 501.658908,22.0567323 C501.349908,22.3319323 500.959908,22.4983323 500.546908,22.5302323 C500.133908,22.5622323 499.722908,22.4579323 499.374908,22.2335323 Z" id="Path" fill="#C2C2C2"></path>
            <path d="M484.459908,23.5743323 C484.164908,23.4515323 484.120908,23.1863323 484.071908,22.9211323 C484.041908,22.5429323 483.855908,22.3906323 483.476908,22.5085323 C480.436908,22.6313323 480.436908,22.6313323 480.402908,25.6567323 C480.421908,25.9843323 480.411908,26.3130323 480.372908,26.6389323 C480.161908,27.7833323 479.317908,27.9011323 478.334908,27.9306323 C477.165908,27.9699323 477.283908,27.2283323 477.283908,26.4867323 C477.283908,21.8455323 477.313908,17.2043323 477.283908,12.5631323 C477.283908,11.4236323 477.578908,10.9669323 478.796908,11.0111323 C480.991908,11.0995323 483.216908,11.0111323 485.397908,11.0455323 C486.129908,11.0152323 486.858908,11.1551323 487.527908,11.4542323 C488.196908,11.7534323 488.787908,12.2035323 489.252908,12.7693323 C488.098908,13.5993323 486.684908,13.6976323 485.382908,14.1199323 C484.319908,14.2623323 483.246908,14.3116323 482.175908,14.2673323 C481.345908,14.2673323 480.996908,14.6553323 480.908908,15.4853323 C480.515908,19.1639323 481.217908,19.8318323 484.940908,19.1983323 C485.425908,19.0451323 485.938908,18.9982323 486.443908,19.0608323 C487.145908,19.9202323 486.585908,20.3082323 485.854908,20.6324323 C485.407908,20.7159323 484.901908,20.7306323 485.249908,21.4427323 C485.470908,21.8848323 485.819908,22.2924323 485.780908,22.8376323 C485.755908,22.9971323 485.697908,23.1495323 485.608908,23.2845323 C485.471908,23.4469323 485.286908,23.5622323 485.080908,23.6142323 C484.874908,23.6661323 484.657908,23.6522323 484.459908,23.5743323 Z" id="Path" fill="#C2C2C2"></path>
            <path d="M281.665908,25.5830323 L281.243908,26.5653323 C280.845908,26.6242323 280.751908,26.9385323 280.634908,27.2577323 L280.221908,27.6065323 C278.699908,28.0337323 278.443908,26.9974323 278.257908,25.9071323 C278.625908,25.5433323 278.869908,25.0723323 278.954908,24.5614323 C279.339908,23.3573323 279.918908,22.2243323 280.668908,21.2070323 C281.527908,21.0155323 281.483908,19.9841323 282.215908,19.6010323 C282.706908,19.3407323 281.557908,19.2130323 281.969908,18.7759323 C282.323908,17.7377323 282.805908,16.7478323 283.404908,15.8291323 C284.180908,15.8537323 283.944908,14.7732323 284.646908,14.7142323 C284.882908,14.8471323 285.088908,15.0274323 285.252908,15.2438323 C285.415908,15.4601323 285.531908,15.7079323 285.594908,15.9715323 C285.682908,16.5658323 286.124908,17.0618323 286.085908,17.6954323 C285.889908,18.8790323 285.181908,19.8416323 284.676908,20.8878323 C284.258908,21.7571323 284.484908,22.1009323 285.452908,22.1254323 C287.578908,22.1794323 288.060908,21.8995323 286.974908,20.1265323 C286.671908,19.7214323 286.535908,19.2146323 286.596908,18.7120323 C286.935908,18.1080323 287.681908,18.4517323 288.114908,18.0736323 C288.713908,18.2258323 288.678908,16.8949323 289.469908,17.4989323 L294.818908,27.6065323 C292.205908,28.2498323 291.664908,28.0681323 290.456908,26.0152323 C290.318908,25.7444323 290.099908,25.5231323 289.830908,25.3815323 C289.561908,25.2400323 289.255908,25.1851323 288.953908,25.2245323 C286.753908,25.2245323 284.533908,25.2245323 282.348908,25.1852323 C282.277908,25.1547323 282.200908,25.1413323 282.124908,25.1459323 C282.047908,25.1506323 281.972908,25.1732323 281.906908,25.2118323 C281.840908,25.2505323 281.783908,25.3043323 281.741908,25.3687323 C281.699908,25.4332323 281.673908,25.5066323 281.665908,25.5830323 Z" id="Path" fill="#C2C2C2"></path>
            <path d="M87.0155075,20.7306323 C87.0155075,18.8299323 86.9762075,16.9243323 87.0155075,15.0236323 C87.0450075,14.0414323 86.6816075,13.7172323 85.7386075,13.7909323 C85.0117075,13.8449323 84.2652075,13.7909323 83.5383075,13.7909323 C82.8114075,13.7909323 82.1337075,13.8940323 82.1828075,12.8086323 C82.2221075,11.9148323 82.2614075,11.0553323 83.4647075,11.0504323 C87.0254075,11.0504323 90.5812075,11.0504323 94.1419075,11.0504323 C94.7165075,11.0504323 95.1241075,11.1732323 95.1487075,11.8656323 C95.1831075,12.7202323 95.0357075,13.4864323 94.0928075,13.7123323 C93.4843075,13.8441323 92.8572075,13.8658323 92.2412075,13.7762323 C90.8022075,13.5846323 90.2767075,14.0217323 90.3258075,15.5737323 C90.4584075,18.9822323 90.3651075,22.4005323 90.3749075,25.8138323 C90.3749075,26.7961323 90.1441075,27.5917323 89.0390075,27.8520323 C87.4772075,28.2204323 87.0106075,27.8520323 87.0057075,26.2657323 C87.0106075,24.4239323 87.0155075,22.5773323 87.0155075,20.7306323 Z" id="Path" fill="#C2C2C2"></path>
            <path d="M405.995908,27.8815323 C405.273908,27.4689323 405.617908,26.7764323 405.612908,26.2215323 C405.578908,21.8651323 405.676908,17.5039323 405.548908,13.1475323 C405.499908,11.4482323 405.961908,10.7606323 407.690908,11.0455323 C408.251908,11.1013323 408.816908,11.1177323 409.379908,11.0946323 C409.797908,11.9934323 410.283908,12.8578323 410.720908,13.7467323 C410.081908,13.9874323 408.981908,13.3587323 408.800908,14.2378323 C408.604908,15.4442323 408.617908,16.6752323 408.839908,17.8771323 C408.917908,18.3683323 409.723908,18.1374323 410.209908,18.1865323 C412.075908,18.3683323 413.991908,17.8084323 415.828908,18.5009323 C414.944908,19.2130323 413.863908,18.9920323 412.905908,18.9576323 C411.275908,18.8643323 410.042908,19.3210323 409.379908,20.8878323 C407.984908,21.9535323 408.711908,23.4367323 408.809908,24.6793323 C408.883908,25.6075323 410.032908,25.1361323 410.690908,25.1704323 C412.493908,25.2343323 414.295908,25.2245323 416.093908,25.1704323 C417.350908,25.1361323 418.057908,25.5486323 417.876908,26.9140323 C417.704908,27.0613323 417.493908,27.2381323 417.277908,27.1693323 C414.821908,26.3590323 412.365908,27.1694323 409.910908,27.1301323 C408.603908,27.1153323 407.243908,27.1939323 405.995908,27.8815323 Z" id="Path" fill="#C2C2C2"></path>
            <path d="M103.286908,27.9552323 C99.9029075,27.7047323 97.6486075,24.8708323 97.5749075,20.6766323 C97.5307075,17.9852323 97.5749075,15.2741323 97.5749075,12.6023323 C97.5749075,11.6201323 97.6437075,10.9963323 98.9059075,11.0504323 C100.168108,11.1044323 100.904908,11.3893323 100.904908,12.7300323 C100.904908,15.1415323 100.904908,17.5481323 100.904908,19.9595323 C100.839908,20.8543323 100.911908,21.7538323 101.120908,22.6264323 C101.822908,24.8119323 103.576908,25.3914323 105.589908,25.5437323 C105.954908,25.3800323 106.362908,25.3370323 106.753908,25.4209323 C107.034908,25.4753323 107.287908,25.6275323 107.467908,25.8504323 C107.647908,26.0733323 107.742908,26.3526323 107.736908,26.6389323 C107.760908,27.3511323 107.190908,27.5230323 106.581908,27.5917323 C106.193908,27.7004323 105.778908,27.6546323 105.422908,27.4640323 C104.440908,26.6389323 103.856908,27.1988323 103.286908,27.9552323 Z" id="Path" fill="#C2C2C2"></path>
            <path d="M103.286908,27.9552323 C103.507908,25.9612323 103.502908,25.9906323 105.388908,27.0564323 C105.663908,27.1987323 105.966908,27.2794323 106.276908,27.2930323 C106.585908,27.3066323 106.894908,27.2526323 107.180908,27.1350323 C107.475908,27.0367323 107.544908,26.7814323 107.387908,26.4572323 C107.014908,25.6812323 106.365908,25.4749323 105.579908,25.5437323 C108.266908,24.7382323 109.253908,22.8965323 109.111908,20.1904323 C108.988908,17.7887323 109.062908,15.3723323 109.111908,12.9658323 C109.111908,11.3696323 110.393908,10.5691323 111.890908,11.0995323 C112.382908,11.2763323 112.436908,11.6250323 112.421908,12.0228323 C112.313908,15.4313323 112.480908,18.8348323 112.269908,22.2531323 C112.008908,26.2608323 107.490908,29.1879323 103.286908,27.9552323 Z" id="Path" fill="#C2C2C2"></path>
            <path d="M397.808908,20.8878323 C398.466908,20.5243323 398.201908,19.9055323 398.206908,19.3849323 C398.235908,17.2583323 398.206908,15.1317323 398.235908,13.0002323 C398.275908,11.3401323 399.429908,10.6084323 401.015908,11.0798323 C401.506908,11.2321323 401.580908,11.5710323 401.580908,11.9590323 L401.580908,28.2547323 L395.068908,22.2335323 C395.382908,20.5882323 396.890908,21.3298323 397.808908,20.8878323 Z" id="Path" fill="#C2C2C2"></path>
            <path d="M371.680908,18.1325323 C376.768908,18.3486323 378.973908,22.1401323 376.380908,26.2018323 C376.301908,26.2335323 376.215908,26.2465323 376.130908,26.2397323 C376.045908,26.2328323 375.962908,26.2064323 375.889908,26.1625323 C375.471908,25.9464323 375.103908,25.5093323 374.573908,25.9562323 C374.042908,26.4032323 374.921908,26.7764323 374.715908,27.2283323 C371.709908,28.9767323 368.772908,28.3039323 365.875908,26.9778323 C365.772908,26.7790323 365.619908,26.6105323 365.432908,26.4890323 C365.244908,26.3675323 365.027908,26.2973323 364.804908,26.2853323 C364.678908,26.2908323 364.553908,26.2605323 364.443908,26.1979323 C364.334908,26.1354323 364.244908,26.0431323 364.185908,25.9317323 C363.910908,25.4799323 364.637908,25.2736323 364.455908,24.8414323 C364.514908,24.5762323 364.573908,24.3060323 364.897908,24.2176323 C365.457908,23.9672323 366.056908,25.0673323 366.597908,24.1636323 C368.227908,24.7972323 369.843908,25.4700323 371.665908,25.2441323 C372.859908,25.0968323 373.939908,24.8168323 374.091908,23.3876323 C374.244908,21.9584323 373.109908,21.6146323 372.078908,21.2954323 C370.958908,20.9418323 369.789908,20.7453323 368.640908,20.4801323 C368.596908,19.6599323 369.710908,19.9497323 369.814908,19.2670323 C369.903908,19.0346323 370.072908,18.8417323 370.291908,18.7229323 C370.509908,18.6040323 370.763908,18.5671323 371.007908,18.6187323 C371.493908,18.7513323 371.547908,18.4321323 371.680908,18.1325323 Z" id="Path" fill="#C2C2C2"></path>
            <path d="M485.500908,23.2206323 L485.500908,22.8867323 C486.256908,22.1009323 485.274908,21.3151323 485.500908,20.5292323 C485.868908,20.1167323 486.733908,20.0921323 486.521908,19.2326323 C486.502908,19.0413323 486.546908,18.8488323 486.647908,18.6852323 C486.748908,18.5217323 486.901908,18.3964323 487.081908,18.3290323 C487.833908,18.1522323 487.381908,17.7249323 487.273908,17.3762323 C487.307908,15.9028323 486.148908,14.9794323 485.495908,13.8253323 C486.650908,13.2106323 487.926908,12.8569323 489.232908,12.7890323 C489.756908,13.2160323 490.118908,13.8084323 490.259908,14.4687323 C490.642908,14.7290323 490.077908,15.2594323 490.559908,15.4951323 C490.971908,18.4419323 490.264908,20.8976323 487.366908,22.3219323 C488.147908,23.4613323 488.869908,24.5074323 489.586908,25.5584323 C489.773908,26.1085323 489.930908,26.6782323 490.568908,26.9287323 C490.745908,27.1841323 491.099908,27.4739323 491.059908,27.6949323 C490.991908,28.1025323 490.529908,27.9110323 490.234908,27.9257323 C489.797908,27.9257323 489.365908,27.9011323 488.928908,27.8864323 C488.599908,27.1104323 487.759908,27.6507323 487.283908,27.2528323 C486.425908,26.3600323 485.687908,25.3595323 485.087908,24.2766323 C485.081908,24.0818323 485.114908,23.8878323 485.185908,23.7063323 C485.256908,23.5248323 485.363908,23.3595323 485.500908,23.2206323 Z" id="Path" fill="#C2C2C2"></path>
            <path d="M259.299908,22.2285323 C259.304908,22.3391323 259.280908,22.4490323 259.230908,22.5478323 C258.898908,22.9681323 258.679908,23.4671323 258.597908,23.9966323 C258.342908,24.9471323 257.725908,25.7599323 256.878908,26.2607323 C255.979908,27.0613323 254.943908,26.4081323 253.975908,26.5309323 C253.819908,26.5301323 253.663908,26.5069323 253.513908,26.4621323 C253.090908,26.2699323 252.707908,26.0000323 252.384908,25.6665323 C252.346908,25.6013323 252.332908,25.5256323 252.341908,25.4511323 C252.351908,25.3766323 252.385908,25.3073323 252.438908,25.2539323 L254.402908,24.5320323 C255.090908,24.5320323 255.473908,24.2127323 255.478908,23.5055323 C255.625908,23.1470323 255.748908,22.7786323 255.920908,22.4250323 C256.234908,21.7669323 256.013908,21.5115323 255.306908,21.5164323 C254.127908,21.5164323 252.944908,21.5164323 251.760908,21.5164323 C250.488908,21.5164323 249.982908,20.9663323 249.987871,19.6796323 C249.987871,18.2848323 250.901908,18.5500323 251.706908,18.5401323 C253.671908,18.5401323 255.635908,18.6384323 257.600908,18.5009323 C259.230908,18.3879323 259.918908,18.8938323 259.603908,20.5342323 C259.544908,20.8632323 259.544908,21.1972323 259.515908,21.5164323 C259.338908,21.7325323 259.181908,21.9388323 259.299908,22.2285323 Z" id="Path" fill="#C2C2C2"></path>
            <path d="M364.514908,17.8968323 C363.414908,15.4853323 363.886908,13.4766323 365.885908,12.0817323 C366.043908,12.2249323 366.169908,12.4009323 366.253908,12.5974323 C366.170908,12.4047323 366.040908,12.2359323 365.875908,12.1063323 C368.654908,10.2695323 373.271908,10.4217323 375.825908,12.4059323 C377.195908,13.4667323 375.412908,13.7663323 375.334908,14.4785323 C374.686908,14.8763323 374.027908,13.9873323 373.369908,14.4785323 C372.191908,14.2280323 371.081908,13.7025323 369.814908,13.7909323 C368.694908,13.8744323 367.756908,14.1543323 367.176908,15.1857323 C367.034908,16.0157323 366.233908,16.4872323 365.997908,17.2730323 C365.824908,17.4949323 365.597908,17.6687323 365.337908,17.7779323 C365.077908,17.8871323 364.794908,17.9280323 364.514908,17.8968323 Z" id="Path" fill="#C2C2C2"></path>
            <path d="M194.003908,27.2627323 C189.210908,25.0722323 187.825908,18.9871323 191.022908,14.1642323 C191.204908,14.0995323 191.399908,14.0841323 191.589908,14.1195323 C191.779908,14.1548323 191.956908,14.2397323 192.102908,14.3655323 C192.281908,14.5109323 192.402908,14.7143323 192.446908,14.9401323 C192.274908,15.9224323 193.315908,16.6591323 192.937908,17.6659323 C192.705908,18.6415323 192.718908,19.6594323 192.975908,20.6287323 C193.232908,21.5980323 193.725908,22.4885323 194.411908,23.2206323 C194.765908,23.5764323 195.063908,23.9837323 195.295908,24.4288323 C195.977908,25.8728323 195.221908,26.6733323 194.003908,27.2627323 Z" id="Path" fill="#C2C2C2"></path>
            <path d="M389.974908,26.5604323 C389.842908,28.0338323 388.771908,27.9601323 387.725908,27.9306323 C386.527908,27.8913323 386.792908,26.8452323 386.787908,26.2853323 C386.713908,21.3151323 386.743908,16.3399323 386.743908,11.1093323 C387.907908,11.6332323 388.921908,12.4424323 389.690908,13.4618323 C389.184908,13.9951323 388.855908,14.6709323 388.747908,15.3975323 C388.639908,16.1241323 388.757908,16.8663323 389.086908,17.5235323 C389.862908,19.1344323 389.832908,20.7404323 389.862908,22.4005323 C389.891908,23.7904323 389.714908,25.1803323 389.974908,26.5604323 Z" id="Path" fill="#C2C2C2"></path>
            <path d="M216.035908,16.1680323 C216.035908,19.4144323 216.079908,22.6559323 216.079908,25.9022323 C216.079908,26.6291323 216.079908,27.3756323 215.136908,27.6408323 C212.867908,27.9306323 212.862908,27.9306323 212.862908,25.7598323 C212.862908,22.6804323 212.862908,19.6010323 212.862908,16.5216323 C212.862908,15.3429323 213.250908,14.5571323 214.571908,14.5227323 C215.539908,14.6307323 215.509908,15.6327323 216.035908,16.1680323 Z" id="Path" fill="#C2C2C2"></path>
            <path d="M54.0066075,18.9232323 C53.5940075,18.7955323 53.3632075,18.1325323 52.8966075,18.3683323 C52.4300075,18.6040323 52.6658075,19.1688323 52.6609075,19.5814323 C52.6363075,21.5164323 52.6609075,23.4515323 52.6609075,25.3865323 C52.6609075,25.9170323 52.8279075,26.5014323 52.3760075,26.9631323 C52.2453075,26.8549323 52.1391075,26.7201323 52.0646075,26.5677323 C51.9900075,26.4152323 51.9489075,26.2487323 51.9438075,26.0790323 C51.9438075,23.5743323 51.9438075,21.0695323 50.7455075,18.9232323 C49.9597075,21.0253323 50.8584075,23.3434323 50.8339075,25.6272323 C50.8339075,26.6095323 51.9095075,26.4572323 52.3809075,26.9533323 C52.1255075,28.2842323 51.0549075,27.9355323 50.2298075,27.8913323 C49.2475075,27.8275323 49.6011075,26.9729323 49.6011075,26.4179323 C49.5766075,21.4035323 49.6011075,16.3841323 49.6011075,10.9767323 C51.6043075,12.5067323 53.4621075,14.2182323 55.1509075,16.0894323 C55.1777075,16.4631323 55.1395075,16.8387323 55.0380075,17.1994323 C54.9934075,17.3434323 54.9325075,17.4818323 54.8563075,17.6119323 C54.4633075,18.0048323 54.4683075,18.6236323 54.0066075,18.9232323 Z" id="Path" fill="#C2C2C2"></path>
            <path d="M200.456908,11.1486323 C201.733908,11.1977323 202.500908,12.2487323 203.575908,12.6957323 C203.153908,13.7860323 204.400908,12.9707323 204.484908,13.4815323 C207.239908,16.5216323 207.686908,20.8485323 205.559908,23.9082323 C204.494908,23.8788323 203.379908,24.0163323 202.686908,22.9260323 C202.557908,22.5010323 202.580908,22.0444323 202.750908,21.6343323 C203.477908,19.0755323 203.084908,16.8310323 200.903908,15.0678323 C200.765908,14.9756323 200.646908,14.8562323 200.555908,14.7169323 C200.464908,14.5777323 200.402908,14.4214323 200.373908,14.2575323 C201.267908,13.6534323 201.920908,13.0444323 200.623908,12.1505323 C200.536908,12.1053323 200.460908,12.0403323 200.402908,11.9606323 C200.344908,11.8809323 200.305908,11.7887323 200.289908,11.6914323 C200.272908,11.5941323 200.279908,11.4944323 200.308908,11.4002323 C200.337908,11.3059323 200.388908,11.2198323 200.456908,11.1486323 Z" id="Path" fill="#C2C2C2"></path>
            <path d="M424.334908,13.8007323 C423.151908,13.8007323 421.967908,13.8007323 420.783908,13.8007323 C420.125908,13.8007323 419.497908,13.8007323 419.565908,12.8774323 C419.624908,12.0817323 419.634908,11.1290323 420.685908,11.1093323 C424.403908,11.0455323 428.126908,11.0700323 431.844908,11.0847323 C432.600908,11.0847323 432.521908,11.6938323 432.521908,12.1898323 C432.521908,13.0886323 432.124908,13.7271323 431.166908,13.7811323 C430.041908,13.8449323 428.912908,13.8056323 427.782908,13.8105323 C427.075908,14.5522323 426.043908,14.7535323 425.164908,15.0826323 C424.040908,15.4951323 424.884908,14.0807323 424.334908,13.8007323 Z" id="Path" fill="#C2C2C2"></path>
            <path d="M212.681908,13.8056323 C211.551908,13.8056323 210.421908,13.7811323 209.292908,13.8056323 C208.496908,13.8056323 207.818908,13.8056323 207.892908,12.7006323 C207.951908,11.7183323 208.182908,11.0602323 209.326908,11.0602323 C212.828908,11.0602323 216.335908,11.0602323 219.836908,11.0602323 C220.534908,11.0602323 220.868908,11.2861323 220.873908,12.0425323 C220.873908,13.0247323 220.558908,13.7320323 219.507908,13.8007323 C218.378908,13.8793323 217.243908,13.8351323 216.114908,13.8449323 C215.691908,14.0954323 215.220908,13.9088323 214.778908,13.9972323 C214.489908,13.9964323 214.202908,13.9685323 213.918908,13.9137323 C213.579908,13.8597323 213.231908,13.9137323 212.887908,13.8548323 L212.681908,13.8056323 Z" id="Path" fill="#C2C2C2"></path>
            <path d="M427.428908,26.9729323 C427.439908,27.0582323 427.430908,27.1449323 427.403908,27.2264323 C427.376908,27.3080323 427.331908,27.3824323 427.271908,27.4441323 C427.211908,27.5059323 427.138908,27.5534323 427.057908,27.5832323 C426.977908,27.6130323 426.890908,27.6243323 426.805908,27.6163323 C424.663908,27.8864323 424.526908,27.7783323 424.526908,25.7598323 C424.526908,22.9751323 424.570908,20.1854323 424.496908,17.4105323 C424.493908,16.9681323 424.579908,16.5296323 424.747908,16.1205323 C424.916908,15.7115323 425.165908,15.3403323 425.479908,15.0285323 C425.617908,14.8501323 425.813908,14.7248323 426.033908,14.6738323 C426.253908,14.6228323 426.484908,14.6492323 426.687908,14.7486323 C427.178908,14.9205323 427.586908,15.1710323 427.571908,15.8045323 C427.487908,19.5273323 427.743908,23.2599323 427.428908,26.9729323 Z" id="Path" fill="#C2C2C2"></path>
            <path d="M59.8949075,20.4752323 C60.7838075,20.9320323 60.8772075,20.4752323 60.8772075,19.7189323 C60.8477075,17.6709323 60.8772075,15.6228323 60.8772075,13.5699323 C60.8772075,11.3107323 61.1915075,11.0406323 63.5440075,11.1142323 C64.2611075,12.3175323 63.7552075,13.6239323 63.8190075,14.8763323 C63.9713075,17.8231323 63.8190075,20.7699323 63.8731075,23.7413323 C63.8731075,24.4337323 63.8731075,25.2146323 63.0087075,25.3276323 C62.1443075,25.4406323 61.9233075,24.6646323 61.6581075,24.0556323 C61.4084075,23.3712323 61.3226075,22.6378323 61.4076075,21.9142323 C61.4321075,21.3249323 61.5795075,20.7257323 61.1620075,20.2100323 C61.2379075,20.2948323 61.2940075,20.3955323 61.3261075,20.5047323 C61.3583075,20.6139323 61.3657075,20.7289323 61.3478075,20.8413323 C61.3299075,20.9537323 61.2872075,21.0607323 61.2228075,21.1546323 C61.1584075,21.2484323 61.0739075,21.3267323 60.9754075,21.3838323 C60.8191075,21.5513323 60.6141075,21.6656323 60.3895075,21.7105323 C60.1648075,21.7554323 59.9317075,21.7288323 59.7230075,21.6343323 C59.1091075,21.2414323 58.8733075,20.7257323 59.8949075,20.4752323 Z" id="Path" fill="#C2C2C2"></path>
            <path d="M59.8949075,20.4752323 C59.6444075,20.6373323 59.4382075,20.8337323 59.5511075,21.1579323 C59.6641075,21.4820323 59.9686075,21.3789323 60.2436075,21.3298323 C61.1031075,21.1874323 61.2946075,20.6078323 61.0736075,19.4340323 C61.7416075,20.6569323 62.1836075,21.3985323 61.8791075,22.4103323 C61.7756075,22.9071323 61.8359075,23.4240323 62.0510075,23.8837323 C62.2425075,24.3453323 62.3015075,25.1803323 63.0332075,25.0477323 C63.7650075,24.9150323 63.5538075,24.1538323 63.5588075,23.6185323 C63.5588075,19.4602323 63.5588075,15.3003323 63.5588075,11.1388323 L63.8976075,11.1388323 C64.2562075,13.4127323 64.0106075,15.7014323 64.0499075,17.9852323 C64.0990075,20.6078323 64.0499075,23.2403323 64.0499075,25.8679323 C64.0499075,26.6930323 64.0057075,27.4149323 62.8466075,26.9238323 C61.2701075,25.4504323 59.4480075,24.2815323 58.0875075,22.5969323 C57.9637075,22.2767323 57.7698075,21.9883323 57.5199075,21.7529323 C57.2700075,21.5175323 56.9706075,21.3410323 56.6436075,21.2365323 C56.5529075,21.2310323 56.4673075,21.1925323 56.4030075,21.1284323 C56.1376075,20.7368323 55.7800075,20.4163323 55.3618075,20.1953323 C54.9293075,19.9776323 54.5718075,19.6355323 54.3353075,19.2130323 C54.1290075,18.7956323 54.4777075,18.6580323 54.7135075,18.4616323 C55.0256075,18.2162323 55.3779075,18.0268323 55.7547075,17.9017323 C55.9869075,17.8668323 56.2242075,17.9118323 56.4275075,18.0294323 C56.6878075,18.6531323 57.2133075,18.5598323 57.7290075,18.5205323 C58.2152075,19.4340323 59.4136075,19.5617323 59.8949075,20.4752323 Z" id="Path" fill="#C2C2C2"></path>
            <path d="M200.456908,11.1486323 C200.462908,11.3432323 200.521908,11.5324323 200.627908,11.6960323 C200.732908,11.8595323 200.881908,11.9912323 201.055908,12.0769323 C201.659908,12.4108323 202.288908,12.8135323 202.092908,13.5944323 C201.851908,14.5227323 200.957908,13.9775323 200.383908,14.1691323 C200.283908,14.2684323 200.161908,14.3409323 200.026908,14.3796323 C199.891908,14.4182323 199.748908,14.4219323 199.611908,14.3901323 C197.401908,13.8351323 195.565908,14.6504323 193.831908,15.8635323 C192.991908,15.9666323 192.637908,15.3723323 192.303908,14.7879323 L191.965908,14.4490323 C191.395908,13.7713323 191.965908,13.3243323 192.303908,12.8332323 C194.695908,10.7655323 197.470908,10.4561323 200.456908,11.1486323 Z" id="Path" fill="#C2C2C2"></path>
            <path d="M245.346908,20.1707323 C245.751908,21.7121323 246.577908,23.1101323 247.733908,24.2078323 C247.585908,25.1790323 247.072908,26.0572323 246.299908,26.6635323 C242.193908,24.3945323 240.965908,18.4272323 243.843908,14.7633323 C245.027908,14.9402323 244.874908,15.8782323 244.869908,16.6493323 C244.864908,17.4204323 244.712908,18.0883323 244.668908,18.8152323 C244.643908,19.3947323 244.673908,19.9350323 245.346908,20.1707323 Z" id="Path" fill="#C2C2C2"></path>
            <path d="M194.003908,27.2627323 C194.297908,26.3246323 195.874908,25.8580323 195.044908,24.5025323 C195.161908,24.4230323 195.297908,24.3730323 195.438908,24.3568323 C195.579908,24.3405323 195.722908,24.3585323 195.854908,24.4092323 C196.779908,24.7784323 197.784908,24.8988323 198.770908,24.7583323 C199.756908,24.6179323 200.688908,24.2215323 201.473908,23.6086323 C201.663908,23.4812323 201.896908,23.4336323 202.121908,23.4760323 C202.294908,23.6222323 202.417908,23.8178323 202.475908,24.0365323 C202.533908,24.2552323 202.523908,24.4864323 202.445908,24.6990323 C202.224908,25.5388323 202.696908,26.0692323 203.206908,26.5996323 C200.274908,28.6231323 197.195908,28.7508323 194.003908,27.2627323 Z" id="Path" fill="#C2C2C2"></path>
            <path d="M410.740908,13.7467323 C409.571908,13.2212323 409.188908,12.3077323 409.399908,11.0946323 L416.496908,11.0553323 C417.242908,11.0553323 417.999908,10.9620323 417.969908,12.1112323 C417.925908,13.0935323 417.542908,13.7614323 416.496908,13.7811323 C414.571908,13.8105323 412.655908,13.7614323 410.740908,13.7467323 Z" id="Path" fill="#C2C2C2"></path>
            <path d="M389.975908,26.5603323 C389.351908,24.8414323 389.812908,23.0635323 389.709908,21.3151323 C389.650908,20.2640323 389.641908,19.3505323 388.874908,18.3977323 C387.848908,17.1453323 388.315908,15.5246323 388.462908,14.0610323 C388.521908,13.4667323 389.179908,13.4618323 389.695908,13.4618323 C390.714908,14.2136323 391.639908,15.0860323 392.450908,16.0599323 C392.715908,17.3271323 392.450908,18.2848323 390.976908,18.5500323 C389.994908,17.9459323 390.029908,18.5991323 390.024908,19.2768323 C390.019908,21.7079323 389.994908,24.1342323 389.975908,26.5603323 Z" id="Path" fill="#C2C2C2"></path>
            <path d="M390.981908,18.5500323 C391.929908,17.9901323 392.170908,17.0127323 392.455908,16.0599323 C394.488908,17.4007323 395.986908,19.3210323 397.813908,20.8878323 C397.150908,21.8356323 395.632908,21.0940323 395.073908,22.2433323 C393.575908,21.1685323 392.203908,19.9297323 390.981908,18.5500323 Z" id="Path" fill="#C2C2C2"></path>
            <path d="M504.580908,23.5350323 C506.042908,24.7681323 507.350908,26.1731323 508.475908,27.7194323 C505.631908,28.4954323 503.603908,27.5623323 502.159908,25.2097323 C501.967908,24.9366323 501.803908,24.6454323 501.668908,24.3404323 C501.530908,24.1264323 501.466908,23.8729323 501.486908,23.6190323 C501.507908,23.3651323 501.610908,23.1250323 501.781908,22.9358323 C502.159908,22.5429323 502.616908,22.7295323 503.038908,22.8818323 C503.554908,23.0733323 504.074908,23.2943323 504.580908,23.5350323 Z" id="Path" fill="#C2C2C2"></path>
            <path d="M245.346908,20.1707323 C244.486908,20.5538323 244.054908,20.6618323 244.123908,19.3456323 C244.201908,17.8329323 245.218908,16.2024323 243.853908,14.7584323 C244.014908,14.2024323 244.379908,13.7273323 244.874908,13.4275323 C245.911908,13.1573323 246.726908,12.2095323 247.929908,12.4452323 C248.105908,12.4881323 248.271908,12.5630323 248.420908,12.6662323 C248.813908,13.1131323 249.083908,13.5797323 248.700908,14.1642323 C246.505908,15.5737323 245.252908,17.5039323 245.346908,20.1707323 Z" id="Path" fill="#C2C2C2"></path>
            <path d="M246.299908,26.6586323 C246.357908,25.6026323 247.241908,25.0182323 247.733908,24.2029323 C249.154908,25.0318323 250.799908,25.3975323 252.438908,25.2490323 L252.438908,25.5732323 C252.698908,25.9120323 253.140908,25.9906323 253.454908,26.2460323 L253.798908,26.2460323 C254.348908,27.3216323 253.675908,27.5721323 252.816908,27.5033323 C251.758908,27.3758323 250.686908,27.5300323 249.707908,27.9502323 C248.445908,27.9885323 247.219908,27.5239323 246.299908,26.6586323 Z" id="Path" fill="#C2C2C2"></path>
            <path d="M405.995908,27.8815323 C407.051908,26.2608323 408.795908,26.8992323 410.263908,26.6488323 C410.494908,26.6095323 410.843908,26.9778323 411.187908,26.8354323 C413.431908,25.9268323 415.656908,26.4719323 417.881908,26.9238323 C418.048908,27.8029323 417.552908,27.9503323 416.810908,27.9404323 C413.225908,27.9061323 409.620908,27.9011323 405.995908,27.8815323 Z" id="Path" fill="#C2C2C2"></path>
            <path d="M409.399908,20.8976323 C409.448908,19.0460323 409.949908,18.5401323 411.791908,18.5156323 C413.146908,18.5156323 414.497908,18.5156323 415.847908,18.5156323 C415.965908,20.8386323 415.887908,20.9320323 413.628908,20.9369323 C412.218908,20.9320323 410.808908,20.9074323 409.399908,20.8976323 Z" id="Path" fill="#C2C2C2"></path>
            <path d="M272.844908,22.8327323 C274.062908,24.4141323 275.300908,25.9955323 276.552908,27.6457323 C273.365908,28.3726323 272.962908,28.1762323 270.777908,24.9101323 C271.407908,24.1613323 272.098908,23.4664323 272.844908,22.8327323 Z" id="Path" fill="#C2C2C2"></path>
            <path d="M427.428908,26.9729323 C427.428908,23.6676323 427.360908,20.3573323 427.428908,17.0520323 C427.428908,15.9912323 427.227908,15.0580323 426.171908,15.0875323 C425.552908,15.0875323 424.771908,16.0698323 424.747908,16.8065323 C424.639908,20.1069323 424.629908,23.4220323 424.747908,26.7224323 C424.791908,27.9601323 426.034908,27.4689323 426.795908,27.6212323 C424.688908,28.2253323 424.393908,28.0288323 424.383908,25.9759323 L424.324908,13.7958323 C424.840908,13.9923323 424.496908,14.6406323 424.997908,14.9598323 C425.690908,14.0758323 426.682908,13.8204323 427.772908,13.8007323 C427.772908,17.6070323 427.743908,21.4084323 427.708908,25.2097323 C427.713908,25.8089323 427.900908,26.4818323 427.428908,26.9729323 Z" id="Path" fill="#C2C2C2"></path>
            <path d="M285.393908,16.1680323 C285.201908,15.6768323 284.666908,15.4067323 284.715908,14.8223323 C284.493908,14.6492323 284.345908,14.3981323 284.302908,14.1200323 C284.744908,13.0984323 285.108908,11.3598323 285.904908,11.369591 C287.013908,11.369591 287.092908,13.1524323 287.726908,14.1003323 C287.767908,14.2037323 287.790908,14.3133323 287.794908,14.4245323 C287.868908,14.5710323 287.918908,14.7286323 287.942908,14.8910323 C288.050908,15.5737323 288.487908,16.4479323 287.701908,16.8261323 C287.303908,17.0223323 286.847908,17.0637323 286.420908,16.9420323 C285.993908,16.8204323 285.627908,16.5445323 285.393908,16.1680323 Z" id="Path" fill="#C2C2C2"></path>
            <path d="M364.514908,17.8968323 C364.833908,17.4056323 365.496908,17.4842323 365.914908,17.1650323 L366.169908,17.1208323 C367.058908,16.9587323 367.864908,17.3713323 368.718908,17.4646323 C369.789908,17.3467323 370.683908,18.0147323 371.665908,18.1522323 C371.719908,18.5303323 372.348908,18.7317323 372.092908,19.1344323 C371.768908,19.6649323 371.488908,19.2327323 371.164908,19.0166323 C370.585908,18.6335323 370.241908,19.0166323 369.975908,19.5077323 C369.930908,19.5758323 369.870908,19.6336323 369.801908,19.6776323 C369.732908,19.7215323 369.654908,19.7506323 369.573908,19.7631323 C368.901908,19.8109323 368.240908,19.9531323 367.608908,20.1855323 C366.277908,19.8318323 365.079908,19.2818323 364.514908,17.8968323 Z" id="Path" fill="#C2C2C2"></path>
            <path d="M252.762908,11.0946323 C254.589908,11.1191323 255.935908,12.1358323 257.182908,13.2949323 C257.595908,13.6828323 258.606908,14.1101323 257.919908,14.8370323 C257.231908,15.5639323 256.337908,16.2466323 255.227908,15.6032323 C254.577908,15.1688323 253.953908,14.6948323 253.361908,14.1838323 C253.533908,13.6927323 254.083908,13.5846323 254.373908,13.2015323 C254.026908,12.9168323 253.651908,12.6683323 253.253908,12.4599323 C253.122908,12.3707323 253.000908,12.2687323 252.889908,12.1554323 C252.644908,11.8313323 252.408908,11.4924323 252.762908,11.0946323 Z" id="Path" fill="#C2C2C2"></path>
            <path d="M185.845908,27.8864323 C184.951908,26.5260323 185.182908,24.9986323 185.172908,23.5104323 C185.172908,21.6048323 185.172908,19.6992323 185.172908,17.7936323 C185.172908,17.0569323 185.172908,16.4037323 186.209908,16.4921323 C186.209908,19.9006323 186.218908,23.3091323 186.238908,26.7175323 C186.228908,27.1301323 186.415908,27.6408323 185.845908,27.8864323 Z" id="Path" fill="#C2C2C2"></path>
            <path d="M497.346908,12.4648323 C497.046908,12.6171323 496.742908,12.8921323 496.442908,12.8921323 C494.114908,12.8921323 494.286908,14.3901323 494.316908,16.0010323 C494.389908,19.9301323 494.316908,23.9082323 494.316908,27.8618323 C493.761908,27.4346323 494.021908,26.8305323 494.016908,26.3148323 C494.016908,21.8013323 493.987908,17.2927323 494.016908,12.7841323 C494.016908,12.1702323 493.554908,11.1683323 494.768908,11.1093323 C495.873908,11.0602323 497.174908,10.7655323 497.346908,12.4648323 Z" id="Path" fill="#C2C2C2"></path>
            <path d="M355.040908,13.7614323 C355.792908,12.4943323 357.324908,12.5582323 358.237908,13.9432323 C358.419908,14.2280323 358.316908,14.8960323 358.846908,14.6013323 C359.377908,14.3066323 359.097908,13.7320323 358.778908,13.3243323 C358.633908,13.1627323 358.468908,13.0208323 358.287908,12.9020323 C358.046908,12.7301323 357.491908,12.8086323 357.668908,12.3470323 C357.737908,12.1702323 358.252908,12.1603323 358.562908,12.0719323 C360.001908,12.7644323 360.526908,14.0365323 360.801908,15.4804323 C360.064908,15.2643323 359.780908,16.1434323 359.136908,16.1533323 C358.680908,15.5050323 357.805908,15.7800323 357.265908,15.3232323 C356.587908,14.6946323 355.576908,14.5571323 355.040908,13.7614323 Z" id="Path" fill="#C2C2C2"></path>
            <path d="M437.919908,14.8075323 C437.885908,14.1249323 437.394908,14.1298323 436.898908,14.1347323 C436.244908,14.0070323 435.557908,14.0659323 434.933908,13.7762323 C434.834908,13.5767323 434.755908,13.3677323 434.697908,13.1524323 C434.589908,12.4796323 433.577908,11.7772323 434.570908,11.1339323 C435.463908,10.5494323 437.325908,11.1830323 437.713908,12.1407323 C438.066908,13.0051323 438.302908,13.9186323 438.587908,14.8075323 C438.545908,14.8554323 438.494908,14.8938323 438.437908,14.9201323 C438.379908,14.9464323 438.316908,14.9600323 438.253908,14.9600323 C438.190908,14.9600323 438.127908,14.9464323 438.069908,14.9201323 C438.012908,14.8938323 437.961908,14.8554323 437.919908,14.8075323 Z" id="Path" fill="#C2C2C2"></path>
            <path d="M203.207908,26.5996323 C202.043908,26.5996323 201.620908,26.1085323 201.949908,24.9642323 C202.060908,24.4940323 202.135908,24.0163323 202.175908,23.5350323 C202.097908,23.0880323 202.337908,22.8965323 202.750908,22.8474323 C203.585908,23.4859323 204.715908,23.3729323 205.584908,23.9082323 C204.999908,25.0084323 204.513908,26.1478323 203.207908,26.5996323 Z" id="Path" fill="#C2C2C2"></path>
            <path d="M252.762908,11.0946323 L253.101908,12.1161323 C252.487908,13.5208323 251.348908,13.7418323 250.075908,13.2507323 C249.501908,13.0297323 248.862908,13.1426323 248.347908,12.7890323 L248.008908,12.7890323 C247.792908,12.3470323 246.932908,12.5729323 247.026908,11.8313323 C247.153908,11.7008323 247.306908,11.5980323 247.475908,11.5296323 C247.644908,11.4611323 247.825908,11.4284323 248.008908,11.4335323 C248.332908,11.2616323 248.779908,11.5022323 249.039908,11.1241323 C250.306908,10.7655323 251.529908,10.5593323 252.762908,11.0946323 Z" id="Path" fill="#C2C2C2"></path>
            <path d="M249.722908,27.9552323 C250.405908,26.6340323 251.598908,26.8108323 252.703908,27.0957323 C253.597908,27.3265323 253.823908,27.0269323 253.798908,26.2509323 C254.830908,25.3522323 255.851908,26.8648323 256.878908,26.2509323 C255.928908,27.1201323 254.773908,27.7327323 253.521908,28.0309323 C252.269908,28.3291323 250.961908,28.3030323 249.722908,27.9552323 Z" id="Path" fill="#C2C2C2"></path>
            <path d="M214.046908,13.4618323 L214.729908,13.7958323 C215.220908,14.0168323 215.382908,14.3312323 215.067908,14.8075323 C213.530908,14.7486323 213.000908,15.5639323 213.019908,16.9882323 C213.054908,19.8318323 213.147908,22.6804323 212.985908,25.5142323 C212.887908,27.2479323 213.476908,27.8766323 215.136908,27.6261323 C212.926908,28.2597323 212.720908,28.1172323 212.715908,26.0545323 C212.715908,21.9715323 212.704908,17.8886323 212.681908,13.8056323 L212.720908,13.7811323 C213.177908,13.7123323 213.682908,13.8793323 214.046908,13.4618323 Z" id="Path" fill="#C2C2C2"></path>
            <path d="M125.372908,22.8867323 C125.446908,22.1107323 124.488908,22.3415323 124.242908,21.6834323 C124.649908,21.5491323 125.079908,21.4969323 125.507908,21.5297323 C125.934908,21.5626323 126.351908,21.6799323 126.732908,21.8749323 C126.241908,22.2482323 126.285908,22.5724323 126.678908,23.0488323 C127.332908,23.8444323 127.867908,24.7284323 128.456908,25.5732323 C127.130908,26.3344323 126.099908,25.3374323 124.964908,24.9887323 C124.449908,24.1636323 124.724908,23.4908323 125.372908,22.8867323 Z" id="Path" fill="#C2C2C2"></path>
            <path d="M143.067908,20.5882323 C141.682908,18.5696323 139.551908,18.4960323 137.429908,18.5500323 C136.260908,18.5794323 135.725908,18.2111323 135.907908,17.0324323 C136.074908,15.9666323 135.524908,14.8174323 136.285908,13.8204323 C136.049908,18.2111323 136.049908,18.2111323 140.391908,18.2111323 L141.579908,18.2111323 C143.642908,18.2013323 143.848908,18.5352323 143.067908,20.5882323 Z" id="Path" fill="#C2C2C2"></path>
            <path d="M275.609908,14.7830323 C274.313908,14.4048323 273.591908,14.6062323 274.180908,16.1532323 C274.104908,16.2364323 274.005908,16.2946323 273.895908,16.3200323 C273.786908,16.3455323 273.671908,16.3370323 273.566908,16.2957323 C273.159908,15.9961323 272.923908,15.5000323 272.412908,15.3134323 C272.244908,15.2213323 272.101908,15.0894323 271.996908,14.9293323 C271.891908,14.7692323 271.826908,14.5858323 271.808908,14.3950323 C271.907908,14.2071323 271.977908,14.0050323 272.014908,13.7958323 C272.014908,13.4275323 271.170908,13.1770323 271.798908,12.7350323 C272.230908,12.4305323 272.451908,12.9658323 272.726908,13.1770323 C273.493908,13.7713323 273.841908,12.6318323 274.495908,12.7890323 C274.804908,13.0304323 275.062908,13.3311323 275.253908,13.6736323 C275.444908,14.0160323 275.566908,14.3931323 275.609908,14.7830323 Z" id="Path" fill="#C2C2C2"></path>
            <path d="M285.393908,16.1680323 C285.884908,16.7279323 286.645908,16.0157323 287.234908,16.5609323 C287.608908,16.9047323 287.726908,16.3988323 287.760908,16.0698323 C287.789908,15.5197323 287.760908,14.9696323 287.794908,14.4196323 C288.344908,15.4509323 288.893908,16.4823323 289.440908,17.5137323 C289.165908,17.5530323 288.860908,17.6070323 288.894908,17.9704323 C289.081908,19.6796323 288.403908,18.2455323 288.109908,18.1865323 C287.524908,18.4370323 287.028908,17.8575323 286.449908,18.0097323 C286.105908,18.0097323 285.928908,17.7985323 285.751908,17.5579323 C286.036908,16.9833323 284.715908,16.8212323 285.393908,16.1680323 Z" id="Path" fill="#C2C2C2"></path>
            <path d="M125.033908,24.9052323 C126.290908,24.5467323 127.223908,25.8089323 128.471908,25.5732323 C128.649908,25.6708323 128.805908,25.8054323 128.927908,25.9681323 C129.049908,26.1307323 129.134908,26.3176323 129.178908,26.5161323 C128.947908,27.6556323 128.034908,27.3216323 127.322908,27.3265323 C126.706908,27.2586323 126.124908,27.0128323 125.647908,26.6193323 C125.043908,26.1773323 124.768908,25.4946323 124.360908,24.9052323 C124.451908,24.8196323 124.571908,24.7719323 124.696908,24.7719323 C124.821908,24.7719323 124.942908,24.8196323 125.033908,24.9052323 Z" id="Path" fill="#C2C2C2"></path>
            <path d="M62.8468075,26.9287323 C63.9960075,27.0073323 63.8831075,26.2166323 63.8831075,25.4553323 C63.8831075,20.6782323 63.8831075,15.8995323 63.8831075,11.1191323 C64.3153075,11.3745323 64.1974075,11.7969323 64.1974075,12.1702323 C64.1974075,17.1339323 64.1974075,22.1009323 64.1974075,27.0711323 C64.1805075,27.2888323 64.1509075,27.5052323 64.1090075,27.7194323 C63.4558075,27.7096323 63.1857075,27.2430323 62.8468075,26.9287323 Z" id="Path" fill="#C2C2C2"></path>
            <path d="M504.580908,23.5350323 C504.305908,23.5350323 503.981908,23.6479323 503.760908,23.5350323 C501.437908,22.4250323 501.732908,23.7462323 502.159908,25.2048323 L499.374908,22.2286323 C500.145908,22.2040323 500.961908,22.3268323 501.471908,21.5361323 C501.899908,22.2040323 502.684908,21.8799323 503.254908,22.1598323 L504.580908,23.5350323 Z" id="Path" fill="#C2C2C2"></path>
            <path d="M248.342908,12.7890323 C248.951908,12.6367323 249.388908,12.1751323 250.169908,12.8774323 C251.230908,13.8253323 252.177908,12.6515323 253.116908,12.1161323 C253.828908,12.7841323 253.882908,13.4520323 253.116908,14.1249323 C251.676908,13.6645323 250.126908,13.6800323 248.695908,14.1691323 L248.342908,12.7890323 Z" id="Path" fill="#C2C2C2"></path>
            <path d="M451.528908,21.8749323 C451.484908,21.3445323 451.685908,20.7552323 451.283908,20.3033323 C450.880908,19.8515323 450.639908,19.4488323 451.106908,19.0362323 C451.572908,18.6236323 451.990908,19.0067323 452.393908,19.3358323 C452.574908,19.4880323 452.884908,19.4635323 453.169908,19.5175323 C452.786908,20.5489323 452.614908,21.6687323 451.921908,22.5773323 C451.307908,22.6067323 451.302908,22.3071323 451.528908,21.8749323 Z" id="Path" fill="#C2C2C2"></path>
            <path d="M225.563908,12.6809323 C226.545908,14.3017323 225.342908,15.1022323 224.330908,15.9912323 C223.657908,15.8291323 224.094908,15.0335323 223.579908,14.8174323 C224.075908,13.9530323 224.571908,13.0935323 225.563908,12.6809323 Z" id="Path" fill="#C2C2C2"></path>
            <path d="M470.594908,12.4255323 C469.857908,12.9412323 468.806908,12.6220323 468.138908,13.3587323 C467.971908,13.5355323 467.588908,13.4717323 467.367908,13.2457323 C467.265908,13.1482323 467.199908,13.0193323 467.178908,12.8796323 C467.158908,12.7399323 467.185908,12.5974323 467.254908,12.4747323 C467.500908,12.0474323 467.942908,11.7232323 467.839908,11.1535323 C468.858908,11.3115323 469.813908,11.7522323 470.594908,12.4255323 Z" id="Path" fill="#C2C2C2"></path>
            <path d="M125.632908,26.6193323 C126.806908,26.4818323 128.014908,27.5524323 129.163908,26.5161323 C129.391908,26.6663323 129.578908,26.8694323 129.710908,27.1081323 C129.842908,27.3468323 129.914908,27.6138323 129.920908,27.8864323 C128.368908,27.7734323 126.624908,28.5985323 125.632908,26.6193323 Z" id="Path" fill="#C2C2C2"></path>
            <path d="M460.349908,26.6340323 C460.349908,26.0250323 460.472908,25.6026323 461.243908,25.5683323 C461.543908,25.5364323 461.847908,25.5911323 462.117908,25.7260323 C462.388908,25.8609323 462.614908,26.0703323 462.770908,26.3295323 C463.212908,27.0564323 462.087908,27.0318323 462.068908,27.5770323 C461.732908,27.5463323 461.406908,27.4467323 461.110908,27.2845323 C460.814908,27.1223323 460.555908,26.9008323 460.349908,26.6340323 Z" id="Path" fill="#C2C2C2"></path>
            <path d="M272.844908,22.8326323 C272.734908,23.3404323 272.481908,23.8060323 272.115908,24.1743323 C271.748908,24.5425323 271.284908,24.7979323 270.777908,24.9101323 L270.359908,24.2815323 C271.037908,23.5644323 271.007908,22.0714323 272.554908,22.3170323 L272.844908,22.8326323 Z" id="Path" fill="#C2C2C2"></path>
            <path d="M76.8293075,20.1904323 L77.3204075,20.1560323 C77.2074075,18.9478323 78.9166075,18.4272323 78.4991075,17.1060323 C78.9500075,17.6103323 79.2853075,18.2070323 79.4814075,18.8545323 C78.4991075,19.3800323 78.5777075,20.8779323 77.3646075,21.2266323 C76.7851075,21.0793323 76.5984075,20.7502323 76.8293075,20.1904323 Z" id="Path" fill="#C2C2C2"></path>
            <path d="M374.740908,27.2479323 C374.533908,26.7224323 373.507908,27.1497323 373.639908,26.5456323 C373.736908,26.2616323 373.892908,26.0014323 374.097908,25.7821323 C374.302908,25.5628323 374.551908,25.3895323 374.828908,25.2736323 C375.545908,25.0035323 375.904908,25.8187323 376.380908,26.2215323 C375.943908,26.7372323 375.516908,27.2676323 374.740908,27.2479323 Z" id="Path" fill="#C2C2C2"></path>
            <path d="M278.237908,25.8973323 C279.008908,26.3393323 278.895908,27.7980323 280.202908,27.5966323 C280.102908,27.7345323 279.962908,27.8377323 279.800908,27.8914323 C279.639908,27.9452323 279.465908,27.9469323 279.303908,27.8962323 C278.659908,27.8176323 277.746908,28.2547323 277.441908,27.6261323 C277.196908,27.0809323 277.810908,26.4032323 278.237908,25.8973323 Z" id="Path" fill="#C2C2C2"></path>
            <path d="M367.608908,20.1953323 C367.982908,19.9350323 367.937908,19.5372323 367.952908,19.1590323 C367.967908,18.7808323 367.888908,18.2848323 368.409908,18.2602323 C369.077908,18.2307323 368.699908,18.7513323 368.767908,19.0706323 C368.915908,19.7876323 369.558908,19.4193323 369.990908,19.5175323 C370.314908,19.8318323 370.275908,20.0627323 369.823908,20.1658323 C369.371908,20.2689323 368.949908,20.0823323 368.645908,20.4998323 C368.460908,20.5429323 368.268908,20.5375323 368.086908,20.4842323 C367.905908,20.4308323 367.740908,20.3313323 367.608908,20.1953323 Z" id="Path" fill="#C2C2C2"></path>
            <path d="M434.972908,13.7762323 C435.714908,13.4422323 436.401908,13.3734323 436.937908,14.1347323 C436.696908,14.3950323 437.988908,15.7407323 436.269908,15.0089323 C435.881908,14.8419323 435.984908,15.5737323 435.881908,15.9028323 C435.340908,15.2839323 435.208908,14.5031323 434.972908,13.7762323 Z" id="Path" fill="#C2C2C2"></path>
            <path d="M281.950908,18.7759323 C282.245908,19.3161323 283.084908,18.4665323 283.192908,19.1786323 C283.291908,19.8073323 282.574908,19.9939323 282.151908,20.0921323 C281.439908,20.2542323 282.004908,22.0223323 280.648908,21.2070323 C281.081908,20.3983323 281.514908,19.5879323 281.950908,18.7759323 Z" id="Path" fill="#C2C2C2"></path>
            <path d="M445.777908,19.1835323 L445.944908,19.1835323 C446.632908,19.1541323 447.560908,18.5107323 447.943908,19.1835323 C448.326908,19.8564323 447.452908,20.2689323 446.848908,20.6176323 C446.735908,20.6815323 446.789908,21.0400323 446.769908,21.2610323 C446.204908,20.6569323 446.062908,19.8809323 445.777908,19.1835323 Z" id="Path" fill="#C2C2C2"></path>
            <path d="M72.6840075,16.0845323 C72.7527075,16.2613323 72.6840075,16.6395323 72.9934075,16.4921323 C73.3028075,16.3448323 73.6662075,15.9126323 73.9216075,16.4921323 C74.0739075,16.8310323 73.6810075,17.1061323 73.4059075,17.2779323 C72.9148075,17.6021323 72.0946075,17.5481323 72.2027075,18.5745323 C72.2419075,18.9380323 71.6673075,18.5991323 71.3727075,18.5303323 C71.6893075,17.6560323 72.1310075,16.8321323 72.6840075,16.0845323 Z" id="Path" fill="#C2C2C2"></path>
            <path d="M253.121908,14.1249323 C253.356908,13.4760323 253.356908,12.7650323 253.121908,12.1161323 L255.620908,13.1328323 L253.361908,14.2034323 C253.275908,14.1987323 253.193908,14.1716323 253.121908,14.1249323 Z" id="Path" fill="#C2C2C2"></path>
            <path d="M215.068908,14.8075323 L214.729908,13.7958323 C215.220908,13.1721323 215.652908,13.6485323 216.114908,13.7958323 C216.114908,14.5767323 216.065908,15.3527323 216.035908,16.1336323 C215.181908,16.0796323 215.038908,15.5050323 215.068908,14.8075323 Z" id="Path" fill="#C2C2C2"></path>
            <path d="M186.194908,15.8144323 C185.703908,16.0157323 185.187908,16.3055323 185.187908,15.4215323 C185.187908,14.7339323 185.015908,14.0217323 185.339908,13.3341323 C185.997908,13.2457323 185.766908,14.0365323 186.199908,14.1396323 C186.199908,14.6946323 186.199908,15.2545323 186.194908,15.8144323 Z" id="Path" fill="#C2C2C2"></path>
            <path d="M247.025908,11.8313323 C247.296908,12.2144323 248.081908,12.0670323 248.008908,12.7890323 C246.854908,12.5090323 246.043908,13.8105323 244.860908,13.4275323 C245.440908,12.7267323 246.184908,12.1787323 247.025908,11.8313323 Z" id="Path" fill="#C2C2C2"></path>
            <path d="M125.033908,24.9052323 L124.346908,24.9052323 L123.963908,24.3404323 C124.051908,23.4957323 124.228908,22.7246323 125.372908,22.8670323 C125.264908,23.5595323 124.915908,24.1931323 125.033908,24.9052323 Z" id="Path" fill="#C2C2C2"></path>
            <path d="M366.602908,24.1833323 C366.494908,24.5811323 366.828908,25.2834323 366.273908,25.3276323 C365.718908,25.3718323 365.384908,24.5909323 364.902908,24.2373323 C365.009908,24.1193323 365.138908,24.0241323 365.282908,23.9572323 C365.426908,23.8904323 365.582908,23.8533323 365.740908,23.8483323 C365.899908,23.8432323 366.057908,23.8703323 366.205908,23.9279323 C366.353908,23.9854323 366.488908,24.0723323 366.602908,24.1833323 Z" id="Path" fill="#C2C2C2"></path>
            <path d="M470.569908,26.6340323 C470.378908,25.3325323 470.938908,24.7530323 472.264908,24.9052323 C472.092908,25.8580323 471.287908,26.2018323 470.569908,26.6340323 Z" id="Path" fill="#C2C2C2"></path>
            <path d="M284.302908,14.1052323 C284.437908,14.1637323 284.549908,14.2631323 284.623908,14.3893323 C284.697908,14.5155323 284.729908,14.6619323 284.715908,14.8076323 C284.386908,15.0187323 284.401908,15.3576323 284.366908,15.6916323 C284.234908,17.0373323 283.752908,16.0403323 283.384908,15.8340323 L284.302908,14.1052323 Z" id="Path" fill="#C2C2C2"></path>
            <path d="M365.914908,17.1502323 C365.565908,15.9912323 366.714908,15.7849323 367.196908,15.1562323 L367.358908,16.4332323 C367.083908,17.0864323 366.670908,17.4547323 365.914908,17.1502323 Z" id="Path" fill="#C2C2C2"></path>
            <path d="M451.528908,21.8749323 C451.512908,22.0178323 451.541908,22.1622323 451.610908,22.2880323 C451.680908,22.4139323 451.787908,22.5150323 451.916908,22.5773323 C451.921908,23.0501323 451.773908,23.5118323 451.494908,23.8935323 C450.502908,23.2059323 450.467908,22.5527323 451.528908,21.8749323 Z" id="Path" fill="#C2C2C2"></path>
            <path d="M55.7303075,18.1718323 L55.0476075,18.8447323 C54.6891075,18.4567323 54.2667075,18.0883323 54.7087075,17.4989323 L54.7087075,17.1502323 C55.0378075,16.9587323 55.0672075,16.3399323 55.6468075,16.5118323 L56.0986075,17.1306323 C56.1350075,17.3212323 56.1200075,17.5181323 56.0553075,17.7010323 C55.9906075,17.8840323 55.8784075,18.0464323 55.7303075,18.1718323 Z" id="Path" fill="#C2C2C2"></path>
            <path d="M503.240908,22.1647323 C502.419908,22.5920323 501.658908,22.8474323 501.457908,21.5410323 C501.815908,21.5410323 502.208908,21.6097323 502.439908,21.2316323 C502.637908,21.3130323 502.812908,21.4400323 502.951908,21.6022323 C503.090908,21.7643323 503.189908,21.9571323 503.240908,22.1647323 Z" id="Path" fill="#C2C2C2"></path>
            <path d="M435.905908,16.1680323 C437.683908,16.4037323 436.775908,17.7052323 436.887908,18.5991323 C436.374908,17.8772323 436.037908,17.0443323 435.905908,16.1680323 Z" id="Path" fill="#C2C2C2"></path>
            <path d="M57.7293075,18.5254323 C57.3119075,18.7219323 57.5181075,19.6255323 56.8109075,19.4193323 C56.1822075,19.2375323 56.4867075,18.6138323 56.4082075,18.1718323 C56.5260075,17.8968323 56.6979075,17.7200323 57.0319075,17.8575323 L57.7293075,18.5254323 Z" id="Path" fill="#C2C2C2"></path>
            <path d="M204.484908,13.4815323 C204.322908,13.4815323 204.155908,13.4815323 203.992908,13.4815323 C203.550908,13.4815323 203.251908,14.4638323 202.794908,13.7762323 C202.337908,13.0886323 203.315908,13.0640323 203.575908,12.6809323 C203.781908,12.7296323 203.971908,12.8280323 204.129908,12.9676323 C204.288908,13.1073323 204.409908,13.2837323 204.484908,13.4815323 Z" id="Path" fill="#C2C2C2"></path>
            <path d="M365.914908,17.1502323 C366.533908,17.1895323 366.847908,16.6149323 367.353908,16.4332323 C367.628908,17.0078323 368.252908,17.1257323 368.718908,17.4498323 C367.780908,17.3811323 366.783908,17.8280323 365.914908,17.1502323 Z" id="Path" fill="#C2C2C2"></path>
            <path d="M255.473908,23.5055323 C255.301908,24.0654323 256.455908,24.3453323 255.846908,24.9347323 C255.237908,25.5241323 254.972908,24.3748323 254.397908,24.5320323 L255.473908,23.5055323 Z" id="Path" fill="#C2C2C2"></path>
            <path d="M487.268908,27.2528323 C489.085908,26.7617323 489.085908,26.7617323 488.913908,27.8864323 C488.607908,27.9534323 488.288908,27.9291323 487.995908,27.8165323 C487.703908,27.7038323 487.450908,27.5079323 487.268908,27.2528323 Z" id="Path" fill="#C2C2C2"></path>
            <path d="M454.907908,14.8075323 C454.549908,14.6946323 453.832908,15.0433323 453.896908,14.4834323 C453.959908,13.9235323 454.387908,13.2261323 455.261908,13.7958323 L454.907908,14.8075323 Z" id="Path" fill="#C2C2C2"></path>
            <path d="M373.389908,14.4637323 C374.037908,13.1426323 374.690908,14.3311323 375.353908,14.4637323 C374.695908,15.1562323 374.042908,14.7879323 373.389908,14.4637323 Z" id="Path" fill="#C2C2C2"></path>
            <path d="M54.7088075,17.4989323 L55.0476075,18.8447323 C54.9031075,18.8303323 54.7576075,18.8602323 54.6305075,18.9304323 C54.5033075,19.0005323 54.4005075,19.1077323 54.3355075,19.2376323 L54.0064075,18.9232323 C54.1194075,18.3879323 53.7609075,17.6414323 54.7088075,17.4989323 Z" id="Path" fill="#C2C2C2"></path>
            <path d="M450.845908,25.5781323 C450.428908,25.3080323 449.770908,25.0280323 450.015908,24.4878323 C450.261908,23.9475323 450.791908,24.4485323 451.194908,24.5712323 C451.076908,24.9052323 450.958908,25.2441323 450.845908,25.5781323 Z" id="Path" fill="#C2C2C2"></path>
            <path d="M437.919908,14.8076323 L438.587908,14.8076323 C438.734908,15.2447323 438.882908,15.6818323 439.034908,16.1140323 C437.919908,16.3104323 437.919908,15.5885323 437.919908,14.8076323 Z" id="Path" fill="#C2C2C2"></path>
            <path d="M192.304908,12.8528323 L191.965908,14.4687323 L191.022908,14.1642323 C191.286908,13.5931323 191.739908,13.1301323 192.304908,12.8528323 Z" id="Path" fill="#C2C2C2"></path>
            <path d="M57.0319075,17.8575323 L56.4081075,18.1718323 L55.7304075,18.1718323 C55.7304075,17.7887323 55.6763075,17.3811323 56.0987075,17.1453323 C56.3131075,17.1355323 56.5242075,17.2015323 56.6948075,17.3317323 C56.8654075,17.4619323 56.9848075,17.6481323 57.0319075,17.8575323 Z" id="Path" fill="#C2C2C2"></path>
            <path d="M56.6437075,21.2414323 C57.5277075,21.2758323 58.2005075,21.5312323 58.0876075,22.6018323 L56.6437075,21.2414323 Z" id="Path" fill="#C2C2C2"></path>
            <path d="M280.634908,27.2479323 C280.506908,26.8698323 280.049908,26.4523323 280.516908,26.1085323 C280.865908,25.8482323 280.973908,26.4376323 281.243908,26.5554323 C281.159908,26.8894323 281.022908,27.1792323 280.634908,27.2479323 Z" id="Path" fill="#C2C2C2"></path>
            <path d="M490.554908,26.9287323 C489.458908,27.0024323 489.571908,26.2509323 489.571908,25.5584323 L490.554908,26.9287323 Z" id="Path" fill="#C2C2C2"></path>
            <path d="M364.809908,26.3050323 C365.639908,25.8138323 366.007908,26.0299323 365.884908,26.9975323 C365.451908,26.9117323 365.066908,26.6641323 364.809908,26.3050323 Z" id="Path" fill="#C2C2C2"></path>
            <path d="M55.6468075,16.5265323 C55.3521075,16.7672323 55.2048075,17.2190323 54.7087075,17.1650323 C54.7087075,16.7623323 54.6743075,16.3448323 55.1213075,16.1091323 C55.3668075,16.1680323 55.5878075,16.2417323 55.6468075,16.5265323 Z" id="Path" fill="#C2C2C2"></path>
            <path d="M485.500908,23.2206323 C485.500908,23.6283323 485.534908,24.0507323 485.073908,24.2766323 L484.459908,23.5743323 L485.500908,23.2206323 Z" id="Path" fill="#C2C2C2"></path>
            <path d="M364.460908,24.8610323 C365.320908,25.4602323 364.225908,25.5732323 364.190908,25.9514323 C363.611908,25.4258323 364.195908,25.1803323 364.460908,24.8610323 Z" id="Path" fill="#C2C2C2"></path>
            <path d="M259.299908,22.2286323 C259.063908,22.1647323 258.670908,22.2286323 258.734908,21.8455323 C258.798908,21.4624323 259.225908,21.5852323 259.525908,21.5361323 C259.557908,21.6610323 259.553908,21.7926323 259.513908,21.9152323 C259.473908,22.0379323 259.399908,22.1466323 259.299908,22.2286323 Z" id="Path" fill="#C2C2C2"></path>
            <path d="M447.044908,21.8995323 C448.066908,21.9634323 447.722908,22.7246323 447.761908,23.2894323 C447.394908,22.9041323 447.145908,22.4218323 447.044908,21.8995323 Z" id="Path" fill="#C2C2C2"></path>
            <path d="M278.934908,24.5614323 C279.357908,25.3423323 278.777908,25.6174323 278.237908,25.9071323 C278.305908,25.3909323 278.552908,24.9148323 278.934908,24.5614323 Z" id="Path" fill="#C2C2C2"></path>
            <path d="M490.558908,15.4951323 C489.773908,15.5835323 489.773908,15.5835323 490.259908,14.4687323 C490.399908,14.5951323 490.502908,14.7580323 490.555908,14.9393323 C490.607908,15.1206323 490.609908,15.3131323 490.558908,15.4951323 Z" id="Path" fill="#C2C2C2"></path>
            <path d="M281.665908,25.5830323 C281.469908,25.4553323 281.326908,25.2589323 281.508908,25.0919323 C281.788908,24.8119323 282.078908,24.9347323 282.318908,25.2048323 L281.665908,25.5830323 Z" id="Path" fill="#C2C2C2"></path>
            <path d="M353.979908,22.5772323 C354.279908,22.5772323 354.633908,21.9781323 354.854908,22.5772323 C354.967908,22.8768323 354.520908,22.8621323 354.284908,22.9260323 L353.979908,22.5772323 Z" id="Path" fill="#C2C2C2"></path>
            <path d="M55.3619075,20.2002323 C55.4932075,20.1849323 55.6263075,20.1976323 55.7523075,20.2376323 C55.8783075,20.2776323 55.9943075,20.3439323 56.0928075,20.4321323 C56.1912075,20.5204323 56.2698075,20.6285323 56.3233075,20.7494323 C56.3768075,20.8703323 56.4040075,21.0011323 56.4031075,21.1333323 L55.3619075,20.2002323 Z" id="Path" fill="#C2C2C2"></path>
            <path d="M249.039908,11.1241323 C248.936908,12.0130323 248.435908,11.6152323 248.008908,11.4335323 C248.138908,11.2970323 248.302908,11.1968323 248.483908,11.1426323 C248.663908,11.0883323 248.855908,11.0819323 249.039908,11.1241323 Z" id="Path" fill="#C2C2C2"></path>
            <path d="M483.476908,22.5085323 C483.727908,22.2335323 484.031908,22.0960323 484.306908,22.4201323 C484.473908,22.6215323 484.272908,22.8081323 484.071908,22.9112323 L483.476908,22.5085323 Z" id="Path" fill="#C2C2C2"></path>
            <path d="M258.596908,23.9966323 C258.508908,23.3827323 258.567908,22.8376323 259.230908,22.5478323 C259.200908,23.0912323 258.975908,23.6055323 258.596908,23.9966323 Z" id="Path" fill="#C2C2C2"></path>
            <path d="M1.37168755,19.5028323 C1.46262755,14.5163323 3.51029755,9.7655723 7.07289755,6.2754723 C10.6355075,2.7853823 15.4274075,0.8357993 20.4146075,0.847350804 C25.4019075,0.8590053 30.1847075,2.8308623 33.7310075,6.3374923 C37.2773075,9.8441323 39.3029075,14.6044323 39.3706075,19.5912323 C39.4443075,29.7576323 30.7021075,38.3623323 20.4620075,38.3819323 C17.9674075,38.4013323 15.4935075,37.9278323 13.1823075,36.9885323 C10.8712075,36.0492323 8.76837755,34.6627323 6.99456755,32.9085323 C5.22074755,31.1543323 3.81090755,29.0670323 2.84596755,26.7665323 C1.88103755,24.4660323 1.38001755,21.9975323 1.37168755,19.5028323 Z" id="Path" fill="#FFFFFF"></path>
            <path d="M229.355908,25.1557323 C226.177908,23.3238323 224.934908,21.1677323 225.548908,18.4518323 C226.108908,15.9077323 227.920908,14.1298323 230.263908,13.8253323 C231.415908,13.6761323 232.584908,13.8903323 233.608908,14.4379323 C234.632908,14.9856323 235.460908,15.8394323 235.975908,16.8801323 C236.507908,17.9662323 236.693908,19.1891323 236.508908,20.3841323 C236.324908,21.5792323 235.778908,22.6891323 234.944908,23.5644323 C234.445908,24.0118323 233.924908,24.4331323 233.382908,24.8267323 C232.134908,26.1920323 230.735908,25.4995323 229.355908,25.1557323 Z" id="Path" fill="#FFFFFF"></path>
            <path d="M229.355908,25.1557323 C230.705908,25.3543323 232.082908,25.2418323 233.382908,24.8267323 C232.969908,27.1497323 232.940908,27.1939323 230.926908,25.9120323 C230.406908,25.5879323 229.679908,25.8335323 229.355908,25.1557323 Z" id="Path" fill="#C2C2C2"></path>
            <path d="M461.361908,23.5890323 C459.288908,20.4261323 459.283908,17.8820323 461.361908,15.6327323 C462.162908,14.7080323 463.253908,14.0825323 464.455908,13.8585323 C465.658908,13.6346323 466.901908,13.8255323 467.981908,14.3999323 C470.265908,15.5393323 471.419908,18.1718323 470.869908,20.9811323 C470.587908,22.1071323 469.963908,23.1183323 469.084908,23.8762323 C468.205908,24.6341323 467.113908,25.1016323 465.958908,25.2147323 C464.578908,25.2932323 463.134908,25.4160323 462.058908,24.2324323 C461.753908,24.1138323 461.503908,23.8839323 461.361908,23.5890323 Z" id="Path" fill="#FFFFFF"></path>
            <path d="M459.038908,22.9309323 C459.681908,22.9653323 459.818908,23.4220323 459.941908,23.8297323 C460.064908,24.2373323 459.819908,24.4141323 459.401908,24.2815323 C458.984908,24.1489323 458.419908,24.3503323 458.389908,23.6921323 C458.389908,23.5089323 458.455908,23.3317323 458.573908,23.1922323 C458.692908,23.0527323 458.857908,22.9601323 459.038908,22.9309323 Z" id="Path" fill="#C2C2C2"></path>
            <path d="M461.361908,23.5890323 C461.591908,23.8051323 461.852908,24.0163323 462.063908,24.2275323 C461.645908,24.3159323 461.459908,24.9298323 460.904908,24.7186323 C460.619908,24.1734323 461.292908,23.9966323 461.361908,23.5890323 Z" id="Path" fill="#C2C2C2"></path>
            <path d="M464.062908,25.4995323 C464.152908,25.6226323 464.220908,25.7605323 464.263908,25.9071323 C464.263908,26.1969323 464.037908,26.2411323 463.831908,26.1773323 C463.723908,26.1478323 463.659908,25.9759323 463.576908,25.8629323 L464.062908,25.4995323 Z" id="Path" fill="#C2C2C2"></path>
            <path d="M355.040908,13.7614323 C355.949908,14.0267323 356.843908,14.3312323 357.432908,15.1464323 C357.805908,15.6376323 358.149908,16.1533323 357.815908,16.8163323 C357.324908,18.9920323 356.445908,19.7336323 354.240908,19.8073323 C350.620908,19.9252323 350.620908,19.9252323 350.625908,16.3694323 C350.650908,15.9801323 350.650908,15.5897323 350.625908,15.2005323 C350.497908,14.1396323 350.861908,13.6632323 352.010908,13.7565323 C353.007908,13.8597323 354.029908,13.7713323 355.040908,13.7614323 Z" id="Path" fill="#FFFFFF"></path>
            <path d="M357.815908,16.8163323 L357.432908,15.1464323 C358.012908,15.4509323 359.117908,14.8910323 359.117908,16.1533323 C358.508908,16.0305323 358.149908,16.4037323 357.815908,16.8163323 Z" id="Path" fill="#C2C2C2"></path>
            <path d="M299.989908,16.9587323 C299.989908,13.7860323 299.989908,13.8056323 303.157908,13.7909323 C304.311908,13.7909323 305.392908,13.8351323 306.261908,14.7732323 C306.645908,15.1442323 306.926908,15.6099323 307.073908,16.1235323 C307.221908,16.6371323 307.231908,17.1805323 307.102908,17.6991323 C306.973908,18.2177323 306.710908,18.6932323 306.339908,19.0779323 C305.968908,19.4626323 305.502908,19.7430323 304.989908,19.8908323 C303.619908,20.3377323 302.199908,20.0921323 300.804908,20.1412323 C300.102908,20.1658323 299.984908,19.7041323 299.989908,19.1590323 L299.989908,16.9587323 Z" id="Path" fill="#FFFFFF"></path>
            <path d="M158.656908,16.9587323 C158.656908,13.7860323 158.656908,13.8056323 161.824908,13.7909323 C162.978908,13.7909323 164.059908,13.8351323 164.928908,14.7732323 C165.312908,15.1439323 165.593908,15.6092323 165.741908,16.1225323 C165.889908,16.6358323 165.899908,17.1790323 165.770908,17.6975323 C165.642908,18.2160323 165.380908,18.6916323 165.009908,19.0766323 C164.639908,19.4616323 164.174908,19.7424323 163.661908,19.8908323 C162.286908,20.3377323 160.871908,20.0921323 159.471908,20.1412323 C158.769908,20.1658323 158.651908,19.7041323 158.656908,19.1590323 L158.656908,16.9587323 Z" id="Path" fill="#FFFFFF"></path>
            <path d="M271.808908,14.3999323 L272.515908,15.1464323 C272.751908,15.3461323 272.935908,15.6003323 273.050908,15.8870323 C273.166908,16.1737323 273.210908,16.4842323 273.178908,16.7917323 C273.135908,17.0539323 273.019908,17.2987323 272.844908,17.4989323 C271.823908,19.4635323 268.070908,20.7060323 266.121908,19.7434323 C265.995908,19.6884323 265.888908,19.5975323 265.814908,19.4822323 C265.740908,19.3669323 265.701908,19.2323323 265.703908,19.0951323 C265.652908,18.8209323 265.652908,18.5394323 265.703908,18.2651323 C266.194908,16.8163323 264.431908,14.5816323 266.725908,13.9039323 C267.562908,13.6442323 268.444908,13.5543323 269.316908,13.6395323 C270.189908,13.7247323 271.036908,13.9832323 271.808908,14.3999323 Z" id="Path" fill="#FFFFFF"></path>
            <path d="M272.844908,17.4989323 L272.889908,16.8064323 C273.105908,16.6051323 272.844908,15.9519323 273.503908,16.1532323 L274.180908,16.1532323 C274.323908,17.1748323 273.905908,17.6414323 272.844908,17.4989323 Z" id="Path" fill="#C2C2C2"></path>
            <path d="M76.8293075,20.1904323 C77.0159075,20.5341323 77.1977075,20.8779323 77.3794075,21.2266323 C77.5906075,22.0125323 77.4825075,22.6018323 76.4708075,22.4987323 C75.3756075,22.3857323 73.9120075,23.0438323 73.2833075,22.1451323 C72.7922075,21.4477323 73.8973075,20.3770323 74.2902075,19.4684323 C74.5554075,18.8545323 74.8893075,18.2700323 75.2430075,17.5775323 C76.0926075,18.3388323 76.2498075,19.3996323 76.8293075,20.1904323 Z" id="Path" fill="#FFFFFF"></path>
            <path d="M126.423908,17.5088323 C125.735908,19.5715323 124.006908,19.8073323 122.194908,19.7975323 C118.707908,19.7975323 119.277908,20.2493323 119.247908,16.8998323 C119.218908,13.7860323 119.247908,13.8498323 122.499908,13.7712323 C124.404908,13.7270323 125.824908,14.2280323 126.428908,16.1532323 C126.601908,16.3366323 126.697908,16.5796323 126.696915,16.8320323 C126.696915,17.0844323 126.598908,17.3267323 126.423908,17.5088323 Z" id="Path" fill="#FFFFFF"></path>
            <path d="M121.138908,21.5704323 C120.451908,21.4624323 119.493908,21.8356323 119.360908,20.7993323 C119.257908,20.0332323 120.014908,20.2345323 120.465908,20.2198323 C121.266908,20.1903323 122.283908,20.2738323 122.430908,21.0940323 C122.577908,21.9142323 121.575908,21.3641323 121.138908,21.5704323 Z" id="Path" fill="#C2C2C2"></path>
            <path d="M126.423908,17.5088323 L126.423908,16.1532323 L126.718908,16.1532323 C127.263908,16.1974323 127.577908,16.6984323 128.078908,16.8261323 C129.360908,17.3565323 128.289908,17.9999323 128.049908,18.4125323 C127.612908,19.1688323 127.430908,18.3290323 127.155908,18.1227323 C126.880908,17.9164323 126.674908,17.7150323 126.423908,17.5088323 Z" id="Path" fill="#C2C2C2"></path>
            <path d="M128.093908,16.8261323 C127.189908,17.4940323 127.111908,16.4921323 126.733908,16.1532323 C126.998908,15.2348323 127.970908,14.9844323 128.501908,14.2722323 C128.619908,15.1857323 127.843908,15.9273323 128.093908,16.8261323 Z" id="Path" fill="#C2C2C2"></path>
            <path d="M499.802908,20.3966323 C499.856908,20.1904323 499.900908,20.0037323 500.106908,20.1314323 C500.167908,20.1740323 500.218908,20.2288323 500.256908,20.2922323 C500.294908,20.3557323 500.318908,20.4264323 500.327908,20.4998323 C500.336908,20.5381323 500.333908,20.5781323 500.319908,20.6147323 C500.305908,20.6514323 500.280908,20.6831323 500.248908,20.7061323 C500.216908,20.7290323 500.179908,20.7422323 500.139908,20.7439323 C500.100908,20.7457323 500.061908,20.7359323 500.028908,20.7159323 C499.910908,20.6569323 499.861908,20.4899323 499.802908,20.3966323 Z" id="Path" fill="#C2C2C2"></path>
            <path d="M487.165908,18.4861323 L486.521908,19.2326323 C484.866908,19.9890323 483.084908,19.7778323 481.360908,19.8073323 C480.613908,19.8073323 480.377908,19.4487323 480.377908,18.7710323 C480.377908,17.4253323 480.407908,16.0845323 480.377908,14.7437323 C480.377908,13.9923323 480.721908,13.7614323 481.409908,13.7909323 C482.764908,13.8253323 484.120908,13.8204323 485.475908,13.8253323 C486.190908,14.1069323 486.786908,14.6268323 487.162908,15.2971323 C487.538908,15.9674323 487.671908,16.7469323 487.538908,17.5039323 C487.612908,17.6845323 487.614908,17.8862323 487.545908,18.0684323 C487.475908,18.2507323 487.340908,18.3999323 487.165908,18.4861323 Z" id="Path" fill="#FFFFFF"></path>
            <path d="M485.500908,20.5292323 C486.168908,21.3151323 486.831908,22.1009323 485.500908,22.8867323 C485.416908,22.2236323 484.704908,21.8504323 484.689908,21.1382323 C484.689908,20.8681323 484.056908,20.6766323 484.434908,20.3377323 C484.812908,19.9988323 485.151908,20.4065323 485.500908,20.5292323 Z" id="Path" fill="#C2C2C2"></path>
            <path d="M285.751908,17.5481323 L286.385908,17.8722323 C286.502908,17.9285323 286.598908,18.0208323 286.659908,18.1357323 C286.720908,18.2506323 286.743908,18.3820323 286.724908,18.5107323 C287.127908,19.4242323 287.515908,20.3426323 287.922908,21.2463323 C288.330908,22.1500323 288.124908,22.5527323 287.141908,22.4889323 C286.046908,22.4054323 284.597908,23.0193323 283.954908,22.1844323 C283.418908,21.4869323 284.553908,20.4359323 284.912908,19.5322323 C285.177908,18.8643323 285.466908,18.2111323 285.751908,17.5481323 Z" id="Path" fill="#FFFFFF"></path>
            <path d="M286.724908,18.5107323 L286.385908,17.8722323 C287.136908,16.9882323 287.544908,18.0146323 288.109908,18.1767323 C287.903908,19.3014323 287.254908,18.6629323 286.724908,18.5107323 Z" id="Path" fill="#C2C2C2"></path>
            <path d="M280.845908,24.8414323 C280.602908,25.0295323 280.343908,25.1940323 280.069908,25.3325323 C279.843908,25.4307323 279.676908,25.2392323 279.656908,24.9838323 C279.622908,24.5320323 279.794908,24.2422323 280.285908,24.2422323 C280.501908,24.2618323 280.756908,24.2618323 280.845908,24.8414323 Z" id="Path" fill="#C2C2C2"></path>
            <path d="M367.230908,26.2755323 C367.333908,26.3442323 367.603908,26.4277323 367.657908,26.5898323 C367.795908,26.9827323 367.412908,27.0122323 367.166908,27.0564323 C367.111908,27.0655323 367.055908,27.0628323 367.001908,27.0484323 C366.947908,27.0340323 366.897908,27.0083323 366.854908,26.9730323 C366.810908,26.9377323 366.775908,26.8936323 366.750908,26.8436323 C366.725908,26.7936323 366.712908,26.7389323 366.710908,26.6831323 C366.705908,26.4179323 366.872908,26.3099323 367.230908,26.2755323 Z" id="Path" fill="#C2C2C2"></path>
            <path d="M487.165908,18.4861323 L487.558908,17.5039323 C487.965908,17.7200323 488.348908,18.0294323 488.122908,18.4861323 C487.896908,18.9429323 487.489908,18.5598323 487.165908,18.4861323 Z" id="Path" fill="#C2C2C2"></path>
            <path d="M257.443908,24.1685323 C257.222908,24.1685323 256.951908,24.1292323 257.010908,23.8444323 C257.036908,23.7453323 257.084908,23.6530323 257.149908,23.5741323 C257.214908,23.4952323 257.296908,23.4316323 257.388908,23.3876323 C257.610908,23.2992323 257.811908,23.4367323 257.806908,23.7118323 C257.813908,23.7657323 257.809908,23.8205323 257.794908,23.8729323 C257.779908,23.9253323 257.754908,23.9742323 257.721908,24.0168323 C257.687908,24.0593323 257.645908,24.0947323 257.597908,24.1208323 C257.549908,24.1468323 257.497908,24.1631323 257.443908,24.1685323 Z" id="Path" fill="#C2C2C2"></path>
            <path d="M253.454908,26.2509323 C252.963908,26.2509323 252.472908,26.2509323 252.438908,25.5781323 C252.657908,25.5653323 252.875908,25.6239323 253.058908,25.7452323 C253.241908,25.8665323 253.380908,26.0440323 253.454908,26.2509323 Z" id="Path" fill="#C2C2C2"></path>
            <path d="M365.875908,12.0867323 C366.621908,12.2389323 366.724908,12.6515323 366.366908,13.2801323 C365.629908,13.0886323 366.032908,12.4747323 365.875908,12.0818323 L365.875908,12.0867323 Z" id="Path" fill="#C2C2C2"></path>
            <path d="M202.725908,22.8474323 L202.175908,23.5350323 C200.034908,25.5290323 197.652908,25.7500323 195.068908,24.5172323 C193.035908,22.6165323 191.768908,20.4605323 192.691908,17.5677323 C193.001908,16.9833323 192.868908,16.1581323 193.634908,15.8094323 C195.515908,13.7221323 197.838908,13.4422323 200.407908,14.1838323 C203.712908,16.5510323 204.356908,18.9183323 202.725908,22.8474323 Z" id="Path" fill="#FFFFFF"></path>
            <path d="M193.610908,15.7947323 L192.667908,17.5530323 C192.588908,17.1306323 192.839908,16.4970323 192.382908,16.3153323 C191.130908,15.8242323 192.117908,15.3331323 192.303908,14.8076323 C192.820908,15.0118323 193.272908,15.3531323 193.610908,15.7947323 Z" id="Path" fill="#C2C2C2"></path>
            <path d="M52.3809075,26.9729323 C50.6717075,27.4640323 50.2494075,26.6586323 50.2837075,25.1164323 C50.3378075,22.8523323 49.5863075,20.5931323 50.2837075,18.3241323 C50.4164075,17.9066323 50.3476075,17.3074323 50.9664075,17.3958323 C51.4919075,17.4646323 51.1972075,18.0441323 51.3200075,18.3781323 C52.3367075,21.1677323 52.4644075,24.0605323 52.3563075,26.9827323 L52.3809075,26.9729323 Z" id="Path" fill="#C2C2C2"></path>
            <path d="M214.046908,13.4618323 C213.712908,14.0021323 213.407908,14.6750323 212.720908,13.7811323 C213.069908,13.2949323 213.594908,13.5159323 214.046908,13.4618323 Z" id="Path" fill="#C2C2C2"></path>
            <path d="M245.149908,23.3975323 C244.933908,22.6951323 243.809908,23.2059323 243.676908,22.3563323 C243.622908,22.0076323 243.853908,21.6441323 244.260908,21.7718323 C244.815908,21.9486323 245.503908,22.0567323 245.611908,22.8130323 C245.650908,23.0930323 245.606908,23.3729323 245.149908,23.3975323 Z" id="Path" fill="#C2C2C2"></path>
            <path d="M273.502908,16.1680323 L272.898908,16.8065323 C272.771908,16.2515323 272.648908,15.6965323 272.525908,15.1464323 C273.272908,15.0728323 273.571908,15.4362323 273.502908,16.1680323 Z" id="Path" fill="#C2C2C2"></path>
            <path d="M23.8948075,2.4163023 C27.2100075,2.4703323 29.7884075,4.2040323 32.1802075,6.1833023 C34.4987075,8.0290323 36.1942075,10.5423323 37.0375075,13.3833323 C29.7688075,8.6143923 22.4312075,7.7500123 14.6959075,11.1093323 C15.2607075,9.1448323 16.9846075,7.2588723 21.0806075,4.0321323 C21.6995075,2.9663823 22.7210075,2.5734723 23.8948075,2.4163023 Z" id="Path" fill="#C2C2C2"></path>
            <path d="M26.0021075,28.2891323 C23.8640075,32.0365323 20.5470075,34.9719323 16.5674075,36.6384323 C16.1899075,36.7660323 15.7810075,36.7660323 15.4035075,36.6384323 C10.0009975,34.9538323 6.11122755,31.6337323 3.96006755,26.1920323 C10.9783075,30.4501323 18.2864075,31.2556323 26.0021075,28.2891323 Z" id="Path" fill="#C2C2C2"></path>
            <path d="M12.5255075,3.6686923 C15.9929075,2.1167123 19.5045075,0.9281703 23.3304075,2.3180723 C22.5164075,2.9006723 21.6167075,3.3530223 20.6636075,3.6588723 C14.2346075,7.3276323 11.1258075,13.0739323 10.0501975,20.0578323 C9.06793755,19.1295323 7.95797755,16.4774323 7.52577755,13.8842323 C7.39808755,13.1131323 7.26056755,12.3371323 7.19672755,11.5562323 C6.84310755,7.3767423 7.83028755,5.8591423 12.2554075,3.7472723 C12.5894075,3.8258523 12.5992075,4.1794823 12.7907075,4.3857523 C12.8153075,4.0959823 12.5992075,3.8897023 12.5255075,3.6686923 Z" id="Path" fill="#C2C2C2"></path>
            <path d="M34.3019075,28.2449323 C34.1350075,23.1217323 32.3273075,18.1875323 29.1451075,14.1691323 C29.2187075,13.9137323 29.0861075,13.8351323 28.8553075,13.8498323 C27.5538075,12.7350323 26.3996075,11.4433323 25.0343075,10.3530323 C29.4839075,10.5887323 33.7912075,11.3844323 37.1603075,14.3312323 C38.6927075,15.6719323 38.3636075,18.0932323 38.3047075,20.0528323 C38.2428075,23.7693323 36.9606075,27.3623323 34.6556075,30.2782323 C33.6438075,29.7527323 34.3069075,28.9374323 34.3019075,28.2449323 Z" id="Path" fill="#C2C2C2"></path>
            <path d="M13.1738075,26.6193323 L16.0764075,28.8835022 C11.6158075,28.8948323 7.26302755,27.5125323 3.62617755,24.9298323 C3.23331755,24.6031323 2.98315755,24.1363323 2.92877755,23.6283323 C1.62235755,18.0490323 2.89930755,13.0444323 6.46001755,8.4768723 C6.02799755,14.5689323 7.96320755,20.5927323 11.8625075,25.2932323 C12.0147075,25.8187323 11.1503075,25.8482323 11.3222075,26.3688323 L11.2584075,26.4523323 C11.3222075,26.5603323 11.3910075,26.5603323 11.4696075,26.4523323 C12.0422075,26.3497323 12.6320075,26.4075323 13.1738075,26.6193323 Z" id="Path" fill="#C2C2C2"></path>
            <path d="M26.1590075,30.2880323 L28.5459075,26.5800323 C28.6687075,26.5800323 28.8553075,26.6733323 28.8946075,26.5161323 C28.9339075,26.3590323 28.6981075,26.3639323 28.6245075,26.2558323 C29.6902075,23.8198323 30.3823075,21.2368323 30.6774075,18.5942323 C32.0611075,20.8371323 32.9533075,23.3480323 33.2951075,25.9612323 C33.4425075,26.8943323 33.5358075,27.8471323 33.5898075,28.7950323 C33.6979075,30.5778323 33.3344075,32.0954323 31.7873075,33.3674323 C28.1726075,36.3142323 21.9647075,38.0971323 17.4659075,36.9871323 C20.1293075,35.6475323 22.5951075,33.9469323 24.7936075,31.9333323 C26.2179075,32.1740323 26.5863075,31.5552323 26.1590075,30.2880323 Z" id="Path" fill="#C2C2C2"></path>
            <path d="M19.0573075,23.8198323 L16.0368075,24.9347323 C14.4800075,24.9347323 15.3198075,24.1931323 15.6439075,23.6234323 L16.7441075,22.8769323 C16.8914075,22.0910323 15.5752075,22.3857323 15.9534075,21.5312323 C16.3168075,21.1333323 17.2352075,21.7227323 17.2892075,20.7846323 C17.4955075,20.2935323 18.7626075,19.9104323 17.5397075,19.1737323 C17.5004075,19.1737323 17.4808075,19.0313323 17.4857075,19.0264323 C18.7577075,18.4174323 18.3059075,16.9440323 18.8952075,16.1582323 C19.7055075,15.0903323 20.3025075,13.8764323 20.6535075,12.5827323 C21.2036075,14.4588323 21.7978075,15.9470323 23.3498075,17.0029323 C22.0581075,17.2730323 21.9255075,17.7347323 22.9422075,18.3633323 C23.4087075,18.6531323 24.2731075,18.4468323 23.6838075,19.6698323 C23.3645075,20.3279323 25.2898075,20.5489323 25.7072075,21.5410323 C25.7711075,21.6932323 26.1002075,21.7374323 26.0265075,22.1009323 L24.6268075,22.6853323 C25.1572075,23.6234323 26.3163075,23.6676323 27.0824075,24.3552323 C25.0148075,25.8826323 23.0895075,25.1999323 21.1888075,24.2815323 C20.3588075,24.5860323 19.8873075,23.4024323 19.0573075,23.8198323 Z" id="Path" fill="#C2C2C2"></path>
            <path d="M19.0572075,23.8198323 C19.9413075,23.1666323 20.5306075,23.7069323 21.1593075,24.2815323 C21.1694075,24.7238323 21.2072075,25.1650323 21.2722075,25.6026323 C21.3950075,26.1822323 21.3999075,26.5849323 20.6387075,26.6438323 C19.8774075,26.7028323 19.7203075,26.2902323 19.6957075,25.6174323 C19.6711075,24.9445323 20.2016075,24.0899323 19.0572075,23.8198323 Z" id="Path" fill="#C2C2C2"></path>
            <path d="M26.1594075,30.2880323 C27.2694075,30.6662323 27.0287075,31.5552323 26.5621075,32.0758323 C26.3362075,32.3263323 25.2557075,33.2594323 24.7940075,31.9186323 C25.2459075,31.3931323 25.7026075,30.8332323 26.1594075,30.2880323 Z" id="Path" fill="#C2C2C2"></path>
            <path d="M13.1734075,26.6193323 C12.5153075,27.0024323 11.8670075,26.8059323 11.2089075,26.5898323 C10.1627875,25.5339323 11.4839075,25.6419323 11.8621075,25.2883323 C12.4548075,25.5458323 12.9248075,26.0228323 13.1734075,26.6193323 Z" id="Path" fill="#C2C2C2"></path>
            <path d="M20.6783075,3.6588623 C21.3988075,2.9352023 22.3346075,2.4647323 23.3452075,2.3180723 L23.8952075,2.4163023 L21.0909075,4.0321323 L20.6783075,3.6588623 Z" id="Path" fill="#C2C2C2"></path>
            <path d="M12.5255075,3.66867075 C12.9429075,3.8749623 13.2916075,4.1598123 13.2032075,4.6509523 C13.1989075,4.7484023 13.1740075,4.8438423 13.1303075,4.9310123 C13.0865075,5.0181923 13.0248075,5.0951323 12.9492075,5.1568023 C12.8736075,5.2184723 12.7859075,5.2634823 12.6917075,5.2888723 C12.5975075,5.3142723 12.4990075,5.3194823 12.4027075,5.3041623 C11.6954075,5.1813823 12.0687075,4.7884723 12.2799075,4.4937923 C12.4911075,4.1991123 12.3585075,4.0026523 12.2799075,3.7325323 C12.3547075,3.6901123 12.4394075,3.6680923 12.5255075,3.66867075 Z" id="Path" fill="#C2C2C2"></path>
            <path d="M15.6441075,23.6234323 C15.6932075,24.0850323 14.8877075,24.7972323 16.0370075,24.9347323 C15.5458075,25.3227323 15.0252075,25.2981323 14.3131075,24.9789323 C14.8484075,24.5467323 14.9221075,23.8198323 15.6441075,23.6234323 Z" id="Path" fill="#C2C2C2"></path>
            <path d="M34.3020075,28.2449323 C34.4738075,28.9129323 34.0466075,29.6840323 34.6556075,30.2782323 C34.4640075,30.6122323 34.1644075,31.1426323 34.0318075,30.3421323 C33.9287075,29.6741323 33.7715075,28.8834323 34.3020075,28.2449323 Z" id="Path" fill="#C2C2C2"></path>
            <path d="M28.6246075,26.2558323 C28.9193075,26.3688323 29.3957075,25.7647323 29.5332075,26.4621323 C29.5676075,26.6438323 29.5332075,26.9533323 29.3809075,27.0417323 C28.8898075,27.3216323 28.7425075,26.8894323 28.5460075,26.5800323 C28.5706075,26.4818323 28.5951075,26.3639323 28.6246075,26.2558323 Z" id="Path" fill="#C2C2C2"></path>
            <path d="M17.2891075,20.7846323 C17.5740075,22.3219323 16.3363075,21.1726323 15.9532075,21.5312323 L17.2891075,20.7846323 Z" id="Path" fill="#C2C2C2"></path>
            <path d="M28.8556075,13.8498323 C29.0717075,13.5011323 29.4105075,13.3980323 29.6070075,13.7663323 C29.8035075,14.1347323 29.3614075,14.0905323 29.1453075,14.1691323 L28.8556075,13.8498323 Z" id="Path" fill="#C2C2C2"></path>
            <path d="M11.2190075,26.5898323 C11.1797075,26.8894323 11.3270075,27.2676323 10.9243075,27.4198323 C10.8604075,27.4198323 10.6345075,27.2676323 10.6198075,27.1644323 C10.5461075,26.7175323 10.8801075,26.6389323 11.2190075,26.5898323 Z" id="Path" fill="#C2C2C2"></path>
        </g>
    </g>
</svg>