<?xml version="1.0" encoding="UTF-8"?>
<svg width="162px" height="29px" viewBox="0 0 162 29" version="1.1" xmlns="http://www.w3.org/2000/svg" xmlns:xlink="http://www.w3.org/1999/xlink">
    <title>Group</title>
    <g id="Page-1" stroke="none" stroke-width="1" fill="none" fill-rule="evenodd">
        <g id="Group" transform="translate(0.000000, 0.000000)" fill="#C2C2C2" fill-rule="nonzero">
            <path d="M31.811,0 L26.064,22.3304 L48.3945,28.0774 L54.1414,5.74694 L31.811,0 Z M105.922,2.50062 L105.922,25.5586 L128.98,25.5586 L128.98,2.50062 L105.922,2.50062 Z M131.736,2.50062 L140.742,13.8901 L131.736,25.5586 L142.816,25.5586 L146.344,20.978 L149.997,25.5586 L161.169,25.5586 L151.885,13.8286 L160.612,2.50062 L149.532,2.50062 L146.283,6.74119 L142.878,2.50062 L131.736,2.50062 Z M0,2.50114 L0,25.5592 L10.2139,25.5592 L10.2139,17.017 C12.9683,17.017 14.2682,19.4307 14.7014,25.5592 L25.2863,25.5592 C24.8221,21.1332 23.3055,17.3268 20.8297,14.5102 C22.5319,13.3341 23.4606,11.5384 23.4606,9.40304 C23.4606,5.96734 20.8917,2.50114 15.073,2.50114 L0,2.50114 Z M56.5221,2.50114 L56.5221,25.5592 L72.6162,25.5592 C78.0017,25.5592 80.5088,22.7429 80.5088,19.1833 C80.5088,17.2025 79.7972,15.4384 76.8878,13.8911 C79.2091,12.5601 79.8897,10.8265 79.8897,8.93847 C79.8897,6.27676 78.4042,2.50114 70.945,2.50114 L56.5221,2.50114 Z M83.6378,2.50114 L83.6378,25.5592 L102.796,25.5592 L102.796,19.7719 L93.8511,19.7719 L93.8511,2.50114 L83.6378,2.50114 Z M66.736,7.14375 L67.3551,7.14375 C69.4287,7.14375 70.0479,8.10274 70.0479,9.37204 C70.0479,11.0121 69.212,11.6313 66.9835,11.6313 L66.736,11.6313 L66.736,7.14375 Z M10.2139,7.23625 L10.8329,7.23625 C12.7517,7.23625 13.2467,8.53647 13.2467,9.52707 C13.2467,11.0126 12.3494,11.6933 10.4924,11.6933 L10.2139,11.6933 L10.2139,7.23625 Z M38.4834,11.2975 L42.8424,12.4189 L41.7205,16.7783 L37.3615,15.6564 L38.4834,11.2975 Z M115.2,11.7786 L119.701,11.7786 L119.701,16.2791 L115.2,16.2791 L115.2,11.7786 Z M66.736,15.5003 L67.4476,15.5003 C69.5833,15.5003 70.2949,16.5832 70.2949,18.1002 C70.2949,19.8334 69.3973,20.4835 67.045,20.4835 L66.736,20.4835 L66.736,15.5003 Z" id="Shape"></path>
        </g>
    </g>
</svg>