<?xml version="1.0" encoding="UTF-8"?>
<svg width="146px" height="51px" viewBox="0 0 146 51" version="1.1" xmlns="http://www.w3.org/2000/svg" xmlns:xlink="http://www.w3.org/1999/xlink">
    <title>rstudio</title>
    <g id="Page-1" stroke="none" stroke-width="1" fill="none" fill-rule="evenodd">
        <g id="rstudio" transform="translate(0.726696, 0.255449)" fill-rule="nonzero">
            <path d="M43.2784038,43.0926513 C53.1790038,33.2346513 53.1790038,17.2515513 43.2784038,7.39353125 C33.3779038,-2.46450875 17.3259038,-2.46450875 7.42541375,7.39352125 C-2.47513625,17.2515513 -2.47513625,33.2346513 7.42540375,43.0926513 C17.3259038,52.9506513 33.3779038,52.9506513 43.2784038,43.0926513 Z" id="Path" fill="#C2C2C2"></path>
            <path d="M56.0988038,32.7287513 C57.4163038,33.5680513 59.2985038,34.2036513 61.3280038,34.2036513 C64.3313038,34.2036513 66.0826038,32.6228513 66.0826038,30.3413513 C66.0826038,28.2635513 64.8714038,27.0168513 61.8026038,25.8761513 C58.0956038,24.5316513 55.8042038,22.5842513 55.8042038,19.4308513 C55.8042038,15.9026513 58.7339038,13.2870513 63.1529038,13.2870513 C65.4443038,13.2870513 67.1628038,13.8248513 68.1448038,14.3951513 L67.3346038,16.7826513 C66.6227038,16.3426513 65.1087038,15.7070513 63.0547038,15.7070513 C59.9532038,15.7070513 58.7748038,17.5567513 58.7748038,19.0967513 C58.7748038,21.2152513 60.1578038,22.2501513 63.2920038,23.4642513 C67.1382038,24.9390513 69.0613038,26.7887513 69.0613038,30.1132513 C69.0613038,33.6006513 66.4999038,36.6562513 61.1398038,36.6562513 C58.9466038,36.6562513 56.5571038,35.9881513 55.3378038,35.1814513 L56.0988038,32.7287513 Z" id="Path" fill="#C2C2C2"></path>
            <path d="M76.4674038,16.1471513 L76.4674038,20.0420513 L80.7146038,20.0420513 L80.7146038,22.2909513 L76.4674038,22.2909513 L76.4674038,31.0503513 C76.4674038,33.0629513 77.0403038,34.2037513 78.6933038,34.2037513 C79.5035038,34.2037513 79.9781038,34.1385513 80.4118038,33.9999513 L80.5427038,36.2489513 C79.9699038,36.4526513 79.0616038,36.6481513 77.9159038,36.6481513 C76.5329038,36.6481513 75.4200038,36.1755513 74.7162038,35.4096513 C73.9060038,34.5051513 73.5705038,33.0629513 73.5705038,31.1481513 L73.5705038,22.2909513 L71.0419038,22.2909513 L71.0419038,20.0420513 L73.5705038,20.0420513 L73.5705038,17.0190513 L76.4674038,16.1471513 Z" id="Path" fill="#C2C2C2"></path>
            <path d="M97.7032038,31.8243513 C97.7032038,33.5354513 97.7359038,35.0102513 97.8341038,36.2895513 L95.2073038,36.2895513 L95.0354038,33.6413513 L94.9699038,33.6413513 C94.2252038,34.9532513 92.4740038,36.6643513 89.5771038,36.6643513 C87.0157038,36.6643513 83.9469038,35.2221513 83.9469038,29.5509513 L83.9469038,20.0419513 L86.9175038,20.0419513 L86.9175038,29.0050513 C86.9175038,32.0932513 87.8913038,34.2117513 90.5591038,34.2117513 C92.5476038,34.2117513 93.9306038,32.8346513 94.4708038,31.4902513 C94.6426038,31.0909513 94.7408038,30.5531513 94.7408038,29.9828513 L94.7408038,20.0419513 L97.7114038,20.0419513 L97.7114038,31.8243513 L97.7032038,31.8243513 Z" id="Path" fill="#C2C2C2"></path>
            <path d="M116.688304,12.4559513 L116.688304,32.0932513 C116.688304,33.5355513 116.754304,35.1814513 116.819304,36.2896513 L114.192304,36.2896513 L114.062304,33.4703513 L113.963304,33.4703513 C113.088304,35.2792513 111.132304,36.6563513 108.464304,36.6563513 C104.520304,36.6563513 101.451304,33.3318513 101.451304,28.3939513 C101.418304,22.9916513 104.823304,19.6997513 108.767304,19.6997513 C111.296304,19.6997513 112.949304,20.8731513 113.693304,22.1524513 L113.759304,22.1524513 L113.759304,12.4559513 L116.688304,12.4559513 Z M113.751304,26.6502513 C113.751304,26.2835513 113.718304,25.7783513 113.620304,25.4117513 C113.178304,23.5620513 111.566304,22.0220513 109.340304,22.0220513 C106.271304,22.0220513 104.454304,24.7109513 104.454304,28.2636513 C104.454304,31.5555513 106.107304,34.2770513 109.274304,34.2770513 C111.263304,34.2770513 113.088304,32.9325513 113.620304,30.7488513 C113.718304,30.3495513 113.751304,29.9421513 113.751304,29.4695513 L113.751304,26.6502513 Z" id="Shape" fill="#C2C2C2"></path>
            <path d="M124.945304,15.4709513 C124.945304,16.4812513 124.233304,17.2798513 123.055304,17.2798513 C121.975304,17.2798513 121.271304,16.4731513 121.271304,15.4709513 C121.271304,14.4605513 122.016304,13.6212513 123.129304,13.6212513 C124.201304,13.6294513 124.945304,14.4360513 124.945304,15.4709513 Z M121.639304,36.2897513 L121.639304,20.0420513 L124.610304,20.0420513 L124.610304,36.2897513 L121.639304,36.2897513 Z" id="Shape" fill="#C2C2C2"></path>
            <path d="M144.299304,28.0273513 C144.299304,34.0326513 140.085304,36.6564513 136.173304,36.6564513 C131.787304,36.6564513 128.350304,33.4296513 128.350304,28.2962513 C128.350304,22.8939513 131.959304,19.6998513 136.443304,19.6998513 C141.132304,19.7080513 144.299304,23.0976513 144.299304,28.0273513 Z M131.386304,28.1985513 C131.386304,31.7593513 133.407304,34.4400513 136.312304,34.4400513 C139.144304,34.4400513 141.271304,31.7918513 141.271304,28.1251513 C141.271304,25.3710513 139.888304,21.9162513 136.386304,21.9162513 C132.900304,21.9162513 131.386304,25.1429513 131.386304,28.1985513 Z" id="Shape" fill="#C2C2C2"></path>
            <path d="M34.0280038,33.2991513 L36.7776038,33.2991513 L36.7776038,35.4258513 L32.5796038,35.4258513 L25.6237038,25.0450513 L21.9166038,25.0450513 L21.9166038,33.2991513 L25.5418038,33.2991513 L25.5418038,35.4258513 L16.4173038,35.4258513 L16.4173038,33.2991513 L19.5516038,33.2991513 L19.5516038,15.0063513 L16.4173038,14.6233513 L16.4173038,12.6107513 C17.6039038,12.8796513 18.6350038,13.0670513 19.9280038,13.0670513 C21.8757038,13.0670513 23.8642038,12.6107513 25.8119038,12.6107513 C29.5926038,12.6107513 33.1033038,14.3218513 33.1033038,18.5019513 C33.1033038,21.7368513 31.1557038,23.7901513 28.1360038,24.6620513 L34.0280038,33.2991513 Z M21.9166038,22.9916513 L23.9052038,23.0323513 C28.7579038,23.1057513 30.6237038,21.2479513 30.6237038,18.7708513 C30.6237038,15.8782513 28.5206038,14.7374513 25.8528038,14.7374513 C24.5926038,14.7374513 23.2914038,14.8515513 21.9166038,15.0063513 L21.9166038,22.9916513 Z" id="Shape" fill="#FFFFFF"></path>
            <path d="M142.630304,13.6293513 C141.574304,13.6293513 140.715304,14.4848513 140.715304,15.5360513 C140.715304,16.5871513 141.574304,17.4427513 142.630304,17.4427513 C143.685304,17.4427513 144.545304,16.5871513 144.545304,15.5360513 C144.545304,14.4848513 143.685304,13.6293513 142.630304,13.6293513 Z M144.234304,15.5360513 C144.234304,16.4160513 143.514304,17.1249513 142.638304,17.1249513 C141.754304,17.1249513 141.042304,16.4078513 141.042304,15.5360513 C141.042304,14.6559513 141.762304,13.9470513 142.638304,13.9470513 C143.514304,13.9389513 144.234304,14.6559513 144.234304,15.5360513 Z" id="Shape" fill="#C2C2C2"></path>
            <path d="M143.309304,16.3100513 L142.834304,15.6174513 C143.104304,15.5197513 143.244304,15.3241513 143.244304,15.0471513 C143.244304,14.6315513 142.892304,14.4848513 142.556304,14.4848513 C142.466304,14.4848513 142.376304,14.4930513 142.294304,14.5093513 C142.212304,14.5174513 142.122304,14.5256513 142.041304,14.5256513 C141.926304,14.5256513 141.836304,14.5093513 141.738304,14.4848513 L141.689304,14.4767513 L141.689304,14.7456513 L141.967304,14.7782513 L141.967304,16.3100513 L141.689304,16.3100513 L141.689304,16.5871513 L142.581304,16.5871513 L142.581304,16.3100513 L142.262304,16.3100513 L142.262304,15.6663513 L142.523304,15.6663513 L143.121304,16.5626513 L143.137304,16.5789513 L143.571304,16.5789513 L143.571304,16.3019513 L143.309304,16.3019513 L143.309304,16.3100513 Z M142.941304,15.0715513 C142.941304,15.1693513 142.900304,15.2508513 142.826304,15.3078513 C142.736304,15.3730513 142.597304,15.4056513 142.417304,15.4056513 L142.262304,15.4056513 L142.262304,14.7782513 C142.376304,14.7700513 142.474304,14.7619513 142.564304,14.7619513 C142.736304,14.7619513 142.941304,14.8189513 142.941304,15.0715513 Z" id="Shape" fill="#C2C2C2"></path>
        </g>
    </g>
</svg>